<svg width="322" height="322" viewBox="0 0 322 322" version="1.1" xmlns="http://www.w3.org/2000/svg" xmlns:xlink="http://www.w3.org/1999/xlink">
<title>white-logo</title>
<desc>Created using Figma</desc>
<g id="Canvas" transform="translate(-1192 1850)">
<g id="white-logo">
<g id="Rectangle">
<use xlink:href="#path0_stroke" transform="translate(1195 -1847)" fill="url(#paint0_linear)"/>
</g>
<g id="Equity Charger">
<use xlink:href="#path1_fill" transform="translate(1259 -1701)" fill="#1E1E1E"/>
</g>
</g>
</g>
<defs>
<linearGradient id="paint0_linear" x1="0" y1="0" x2="1" y2="0" gradientUnits="userSpaceOnUse" gradientTransform="matrix(-316 -316 316 -316 158 474)">
<stop offset="0" stop-color="#2768C9"/>
<stop offset="1" stop-color="#361FB2"/>
</linearGradient>
<path id="path0_stroke" d="M 316 40L 318.5 40L 318.5 38.9645L 317.768 38.2322L 316 40ZM 316 316L 316 318.5L 318.5 318.5L 318.5 316L 316 316ZM 40 316L 38.2322 317.768L 38.9645 318.5L 40 318.5L 40 316ZM 0 0L 0 -2.5L -2.5 -2.5L -2.5 0L 0 0ZM 276 0L 277.768 -1.76777L 277.036 -2.5L 276 -2.5L 276 0ZM 0 276L -2.5 276L -2.5 277.036L -1.76777 277.768L 0 276ZM 313.5 40L 313.5 316L 318.5 316L 318.5 40L 313.5 40ZM 316 313.5L 40 313.5L 40 318.5L 316 318.5L 316 313.5ZM 42.5 316L 42.5 40L 37.5 40L 37.5 316L 42.5 316ZM 0 2.5L 276 2.5L 276 -2.5L 0 -2.5L 0 2.5ZM 276 273.5L 0 273.5L 0 278.5L 276 278.5L 276 273.5ZM 2.5 276L 2.5 0L -2.5 0L -2.5 276L 2.5 276ZM 41.7678 38.2322L 1.76777 -1.76777L -1.76777 1.76777L 38.2322 41.7678L 41.7678 38.2322ZM 317.768 38.2322L 277.768 -1.76777L 274.232 1.76777L 314.232 41.7678L 317.768 38.2322ZM -1.76777 277.768L 38.2322 317.768L 41.7678 314.232L 1.76777 274.232L -1.76777 277.768ZM 274.232 277.768L 314.232 317.768L 317.768 314.232L 277.768 274.232L 274.232 277.768ZM 273.5 0L 273.5 40L 278.5 40L 278.5 0L 273.5 0ZM 273.5 40L 273.5 276L 278.5 276L 278.5 40L 273.5 40ZM 40 42.5L 276 42.5L 276 37.5L 40 37.5L 40 42.5ZM 276 42.5L 316 42.5L 316 37.5L 276 37.5L 276 42.5Z"/>
<path id="path1_fill" d="M 70.712 40.768L 70.712 46L 45.512 46L 45.512 12.4L 70.04 12.4L 70.04 17.632L 51.752 17.632L 51.752 26.368L 67.976 26.368L 67.976 31.504L 51.752 31.504L 51.752 40.768L 70.712 40.768ZM 101.914 20.368L 101.914 55.312L 95.9139 55.312L 95.9139 42.88C 93.8979 45.184 91.1619 46.336 87.7059 46.336C 85.2099 46.336 82.9699 45.792 80.9859 44.704C 79.0339 43.616 77.4979 42.08 76.3779 40.096C 75.2899 38.112 74.7459 35.808 74.7459 33.184C 74.7459 30.592 75.3059 28.304 76.4259 26.32C 77.5459 24.336 79.0819 22.8 81.0339 21.712C 82.9859 20.624 85.2099 20.08 87.7059 20.08C 89.4659 20.08 91.0659 20.384 92.5059 20.992C 93.9779 21.6 95.2099 22.512 96.2019 23.728L 96.2019 20.368L 101.914 20.368ZM 88.3779 41.2C 90.5859 41.2 92.4099 40.464 93.8499 38.992C 95.2899 37.52 96.0099 35.584 96.0099 33.184C 96.0099 30.784 95.2899 28.848 93.8499 27.376C 92.4099 25.904 90.5859 25.168 88.3779 25.168C 86.1699 25.168 84.3459 25.904 82.9059 27.376C 81.4979 28.848 80.7939 30.784 80.7939 33.184C 80.7939 35.584 81.4979 37.52 82.9059 38.992C 84.3459 40.464 86.1699 41.2 88.3779 41.2ZM 134.58 20.368L 134.58 46L 128.868 46L 128.868 42.736C 127.908 43.888 126.708 44.784 125.268 45.424C 123.828 46.032 122.276 46.336 120.612 46.336C 117.188 46.336 114.484 45.392 112.5 43.504C 110.548 41.584 109.572 38.752 109.572 35.008L 109.572 20.368L 115.572 20.368L 115.572 34.192C 115.572 36.496 116.084 38.224 117.108 39.376C 118.164 40.496 119.652 41.056 121.572 41.056C 123.716 41.056 125.412 40.4 126.66 39.088C 127.94 37.744 128.58 35.824 128.58 33.328L 128.58 20.368L 134.58 20.368ZM 142.436 20.368L 148.436 20.368L 148.436 46L 142.436 46L 142.436 20.368ZM 145.46 16.144C 144.372 16.144 143.46 15.808 142.724 15.136C 141.988 14.432 141.62 13.568 141.62 12.544C 141.62 11.52 141.988 10.672 142.724 10C 143.46 9.296 144.372 8.944 145.46 8.944C 146.548 8.944 147.46 9.28 148.196 9.952C 148.932 10.592 149.3 11.408 149.3 12.4C 149.3 13.456 148.932 14.352 148.196 15.088C 147.492 15.792 146.58 16.144 145.46 16.144ZM 171.719 44.608C 171.015 45.184 170.151 45.616 169.127 45.904C 168.135 46.192 167.079 46.336 165.959 46.336C 163.143 46.336 160.967 45.6 159.431 44.128C 157.895 42.656 157.127 40.512 157.127 37.696L 157.127 25.36L 152.903 25.36L 152.903 20.56L 157.127 20.56L 157.127 14.704L 163.127 14.704L 163.127 20.56L 169.991 20.56L 169.991 25.36L 163.127 25.36L 163.127 37.552C 163.127 38.8 163.431 39.76 164.039 40.432C 164.647 41.072 165.527 41.392 166.679 41.392C 168.023 41.392 169.143 41.04 170.039 40.336L 171.719 44.608ZM 200.186 20.368L 188.186 48.064C 187.066 50.848 185.706 52.8 184.106 53.92C 182.506 55.072 180.57 55.648 178.298 55.648C 177.018 55.648 175.754 55.44 174.506 55.024C 173.258 54.608 172.234 54.032 171.434 53.296L 173.834 48.88C 174.41 49.424 175.082 49.856 175.85 50.176C 176.65 50.496 177.45 50.656 178.25 50.656C 179.306 50.656 180.17 50.384 180.842 49.84C 181.546 49.296 182.186 48.384 182.762 47.104L 183.194 46.096L 172.01 20.368L 178.25 20.368L 186.314 39.328L 194.426 20.368L 200.186 20.368ZM 20.1421 105.48C 16.7501 105.48 13.6781 104.744 10.9261 103.272C 8.20613 101.768 6.06213 99.704 4.49413 97.08C 2.95812 94.456 2.19012 91.496 2.19012 88.2C 2.19012 84.904 2.97413 81.944 4.54213 79.32C 6.11012 76.696 8.25413 74.648 10.9741 73.176C 13.7261 71.672 16.7981 70.92 20.1901 70.92C 22.9421 70.92 25.4541 71.4 27.7261 72.36C 29.9981 73.32 31.9181 74.712 33.4861 76.536L 29.4541 80.328C 27.0221 77.704 24.0301 76.392 20.4781 76.392C 18.1741 76.392 16.1101 76.904 14.2861 77.928C 12.4621 78.92 11.0381 80.312 10.0141 82.104C 8.99012 83.896 8.47812 85.928 8.47812 88.2C 8.47812 90.472 8.99012 92.504 10.0141 94.296C 11.0381 96.088 12.4621 97.496 14.2861 98.52C 16.1101 99.512 18.1741 100.008 20.4781 100.008C 24.0301 100.008 27.0221 98.68 29.4541 96.024L 33.4861 99.864C 31.9181 101.688 29.9821 103.08 27.6781 104.04C 25.4061 105 22.8941 105.48 20.1421 105.48ZM 53.4331 79.08C 56.6651 79.08 59.2571 80.024 61.2091 81.912C 63.1611 83.8 64.1371 86.6 64.1371 90.312L 64.1371 105L 58.1371 105L 58.1371 91.08C 58.1371 88.84 57.6091 87.16 56.5531 86.04C 55.4971 84.888 53.9931 84.312 52.0411 84.312C 49.8331 84.312 48.0891 84.984 46.8091 86.328C 45.5291 87.64 44.8891 89.544 44.8891 92.04L 44.8891 105L 38.8891 105L 38.8891 69.384L 44.8891 69.384L 44.8891 82.344C 45.8811 81.288 47.0971 80.488 48.5371 79.944C 50.0091 79.368 51.6411 79.08 53.4331 79.08ZM 81.5405 79.08C 85.3165 79.08 88.1965 79.992 90.1805 81.816C 92.1965 83.608 93.2045 86.328 93.2045 89.976L 93.2045 105L 87.5405 105L 87.5405 101.88C 86.8045 103 85.7485 103.864 84.3725 104.472C 83.0285 105.048 81.3965 105.336 79.4765 105.336C 77.5565 105.336 75.8765 105.016 74.4365 104.376C 72.9965 103.704 71.8765 102.792 71.0765 101.64C 70.3085 100.456 69.9245 99.128 69.9245 97.656C 69.9245 95.352 70.7725 93.512 72.4685 92.136C 74.1965 90.728 76.9005 90.024 80.5805 90.024L 87.2045 90.024L 87.2045 89.64C 87.2045 87.848 86.6605 86.472 85.5725 85.512C 84.5165 84.552 82.9325 84.072 80.8205 84.072C 79.3805 84.072 77.9565 84.296 76.5485 84.744C 75.1725 85.192 74.0045 85.816 73.0445 86.616L 70.6925 82.248C 72.0365 81.224 73.6525 80.44 75.5405 79.896C 77.4285 79.352 79.4285 79.08 81.5405 79.08ZM 80.7245 100.968C 82.2285 100.968 83.5565 100.632 84.7085 99.96C 85.8925 99.256 86.7245 98.264 87.2045 96.984L 87.2045 94.008L 81.0125 94.008C 77.5565 94.008 75.8285 95.144 75.8285 97.416C 75.8285 98.504 76.2605 99.368 77.1245 100.008C 77.9885 100.648 79.1885 100.968 80.7245 100.968ZM 106.617 83.112C 108.345 80.424 111.385 79.08 115.737 79.08L 115.737 84.792C 115.225 84.696 114.761 84.648 114.345 84.648C 112.009 84.648 110.185 85.336 108.873 86.712C 107.561 88.056 106.905 90.008 106.905 92.568L 106.905 105L 100.905 105L 100.905 79.368L 106.617 79.368L 106.617 83.112ZM 146.032 79.368L 146.032 101.112C 146.032 110.136 141.424 114.648 132.208 114.648C 129.744 114.648 127.408 114.328 125.2 113.688C 122.992 113.08 121.168 112.184 119.728 111L 122.416 106.488C 123.536 107.416 124.944 108.152 126.64 108.696C 128.368 109.272 130.112 109.56 131.872 109.56C 134.688 109.56 136.752 108.92 138.064 107.64C 139.376 106.36 140.032 104.408 140.032 101.784L 140.032 100.44C 139.008 101.56 137.76 102.408 136.288 102.984C 134.816 103.56 133.2 103.848 131.44 103.848C 129.008 103.848 126.8 103.336 124.816 102.312C 122.864 101.256 121.312 99.784 120.16 97.896C 119.04 96.008 118.48 93.848 118.48 91.416C 118.48 88.984 119.04 86.84 120.16 84.984C 121.312 83.096 122.864 81.64 124.816 80.616C 126.8 79.592 129.008 79.08 131.44 79.08C 133.296 79.08 134.976 79.384 136.48 79.992C 138.016 80.6 139.296 81.528 140.32 82.776L 140.32 79.368L 146.032 79.368ZM 132.352 98.76C 134.624 98.76 136.48 98.088 137.92 96.744C 139.392 95.368 140.128 93.592 140.128 91.416C 140.128 89.272 139.392 87.528 137.92 86.184C 136.48 84.84 134.624 84.168 132.352 84.168C 130.048 84.168 128.16 84.84 126.688 86.184C 125.248 87.528 124.528 89.272 124.528 91.416C 124.528 93.592 125.248 95.368 126.688 96.744C 128.16 98.088 130.048 98.76 132.352 98.76ZM 178.016 92.328C 178.016 92.744 177.984 93.336 177.92 94.104L 157.808 94.104C 158.16 95.992 159.072 97.496 160.544 98.616C 162.048 99.704 163.904 100.248 166.112 100.248C 168.928 100.248 171.248 99.32 173.072 97.464L 176.288 101.16C 175.136 102.536 173.68 103.576 171.92 104.28C 170.16 104.984 168.176 105.336 165.968 105.336C 163.152 105.336 160.672 104.776 158.528 103.656C 156.384 102.536 154.72 100.984 153.536 99C 152.384 96.984 151.808 94.712 151.808 92.184C 151.808 89.688 152.368 87.448 153.488 85.464C 154.64 83.448 156.224 81.88 158.24 80.76C 160.256 79.64 162.528 79.08 165.056 79.08C 167.552 79.08 169.776 79.64 171.728 80.76C 173.712 81.848 175.248 83.4 176.336 85.416C 177.456 87.4 178.016 89.704 178.016 92.328ZM 165.056 83.88C 163.136 83.88 161.504 84.456 160.16 85.608C 158.848 86.728 158.048 88.232 157.76 90.12L 172.304 90.12C 172.048 88.264 171.264 86.76 169.952 85.608C 168.64 84.456 167.008 83.88 165.056 83.88ZM 189.492 83.112C 191.22 80.424 194.26 79.08 198.612 79.08L 198.612 84.792C 198.1 84.696 197.636 84.648 197.22 84.648C 194.884 84.648 193.06 85.336 191.748 86.712C 190.436 88.056 189.78 90.008 189.78 92.568L 189.78 105L 183.78 105L 183.78 79.368L 189.492 79.368L 189.492 83.112Z"/>
</defs>
</svg>
