<svg width="45" height="45" viewBox="0 0 45 45" version="1.1" xmlns="http://www.w3.org/2000/svg" xmlns:xlink="http://www.w3.org/1999/xlink">
<title>Vector</title>
<desc>Created using Figma</desc>
<g id="Canvas" transform="translate(-2625 -10)">
<g id="Vector">
<use xlink:href="#path0_fill" transform="translate(2625 10)" fill="url(#paint0_linear)"/>
</g>
</g>
<defs>
<linearGradient id="paint0_linear" x1="0" y1="0" x2="1" y2="0" gradientUnits="userSpaceOnUse" gradientTransform="matrix(2.75544e-15 45 -44.9997 2.75546e-15 44.9997 -2.75546e-15)">
<stop offset="0" stop-color="#361FB2"/>
<stop offset="1" stop-color="#2768C9"/>
</linearGradient>
<path id="path0_fill" d="M 34.2137 1.24403e-05C 34.1663 0.00103925 34.1191 0.0055079 34.0723 0.0133831L 17.6035 0.0133831L 17.6035 5.64435L 18.4133 6.45423L 19.5594 7.60029L 19.5594 1.96932L 33.251 1.96932L 33.251 11.749L 43.0307 11.749L 43.0307 35.2203L 29.3391 35.2203L 29.3391 37.1762L 44.9866 37.1762L 44.9866 10.9353C 45.0041 10.8297 45.0041 10.7219 44.9866 10.6163L 44.9866 10.3661L 44.7975 10.177C 44.7459 10.1089 44.6855 10.0479 44.618 9.99555C 44.6161 9.99427 44.6142 9.993 44.6122 9.99173L 35.0025 0.382032C 34.9498 0.313041 34.8882 0.251376 34.8192 0.198663L 34.6339 0.0133831L 34.3798 0.0133831C 34.3249 0.00420477 34.2693 -0.000268355 34.2137 1.24403e-05ZM 35.2069 3.35223L 41.6478 9.79308L 35.2069 9.79308L 35.2069 3.35223ZM 16.6102 7.82377C 16.5628 7.8248 16.5156 7.82927 16.4689 7.83714L 0 7.83714L 0 45L 27.3832 45L 27.3832 44.022L 27.3832 18.7591C 27.4006 18.6535 27.4006 18.5457 27.3832 18.4401L 27.3832 18.1899L 27.1941 18.0008C 27.1409 17.931 27.0786 17.8687 27.0088 17.8155L 17.3991 8.20579C 17.3464 8.1368 17.2847 8.07514 17.2157 8.02242L 17.0304 7.83714L 16.7764 7.83714C 16.7215 7.82796 16.6659 7.82349 16.6102 7.82377ZM 1.95594 9.79308L 15.6475 9.79308L 15.6475 19.5728L 25.4272 19.5728L 25.4272 43.0441L 1.95594 43.0441L 1.95594 9.79308ZM 17.6035 11.176L 24.0443 17.6168L 17.6035 17.6168L 17.6035 11.176ZM 27.62 15.6609L 29.576 17.6168L 39.1188 17.6168L 39.1188 15.6609L 27.62 15.6609ZM 29.3391 21.5287L 29.3391 23.4847L 35.2069 23.4847L 35.2069 21.5287L 29.3391 21.5287ZM 5.86782 23.4847L 5.86782 25.4406L 21.5153 25.4406L 21.5153 23.4847L 5.86782 23.4847ZM 29.3391 27.3965L 29.3391 29.3525L 39.1188 29.3525L 39.1188 27.3965L 29.3391 27.3965ZM 5.86782 29.3525L 5.86782 31.3084L 17.6035 31.3084L 17.6035 29.3525L 5.86782 29.3525ZM 5.86782 35.2203L 5.86782 37.1762L 21.5153 37.1762L 21.5153 35.2203L 5.86782 35.2203Z"/>
</defs>
</svg>
