<svg width="43" height="45" viewBox="0 0 43 45" version="1.1" xmlns="http://www.w3.org/2000/svg" xmlns:xlink="http://www.w3.org/1999/xlink">
<title>Vector</title>
<desc>Created using Figma</desc>
<g id="Canvas" transform="translate(-5016 -10)">
<g id="Vector">
<use xlink:href="#path0_fill" transform="translate(5016 10)" fill="url(#paint0_linear)"/>
</g>
</g>
<defs>
<linearGradient id="paint0_linear" x1="0" y1="0" x2="1" y2="0" gradientUnits="userSpaceOnUse" gradientTransform="matrix(2.59005e-15 45 -42.2987 2.75546e-15 42.2987 -3.747e-15)">
<stop offset="0" stop-color="#361FB2"/>
<stop offset="1" stop-color="#2768C9"/>
</linearGradient>
<path id="path0_fill" d="M 21.0176 0C 16.0709 0.11116 12.9409 2.11139 11.5959 5.20498C 10.315 8.1511 10.5833 11.8588 11.4971 15.7138C 11.0064 16.2903 10.6051 17.0997 10.7064 18.3163L 10.7064 18.3492L 10.7064 18.3821C 10.8819 19.6688 11.2689 20.5722 11.7606 21.2152C 11.9944 21.5209 12.3285 21.5359 12.6171 21.7094C 12.8725 23.147 13.4432 24.5192 14.0996 25.5966C 14.1323 25.7525 14.1998 25.8989 14.2972 26.0249C 14.2972 26.0249 14.4054 26.159 14.429 26.1896C 14.758 26.6849 14.9231 27.3706 14.9231 28.1332C 14.9231 28.9433 14.9111 29.6984 14.8243 30.5381C 14.506 31.337 13.7175 31.9743 12.4524 32.6135C 11.132 33.2806 9.40035 33.8959 7.64275 34.6559C 5.88516 35.416 4.09967 36.3302 2.66837 37.7855C 1.23708 39.2408 0.2103 41.2516 0.0658858 43.8799L 0 45L 1.12006 45L 41.1786 45L 42.2987 45L 42.2328 43.8799C 42.0885 41.2535 41.0879 39.2416 39.6632 37.7855C 38.2386 36.3294 36.4474 35.4164 34.6889 34.6559C 32.9304 33.8955 31.1901 33.2831 29.8463 32.6135C 28.5443 31.9647 27.7281 31.2998 27.3755 30.4722C 27.2938 29.4741 27.2767 28.6872 27.2767 27.8038C 27.2767 27.2382 27.472 26.7303 27.8038 26.2225C 27.8115 26.2116 27.8291 26.2006 27.8368 26.1896C 27.8416 26.1833 27.9026 26.1237 27.9026 26.1237C 28.0334 25.9858 28.1245 25.815 28.1662 25.6296C 28.805 24.5341 29.3341 23.1438 29.5827 21.7423C 29.9113 21.5703 30.2825 21.5495 30.5381 21.2152C 31.0457 20.5515 31.3429 19.6092 31.4605 18.3163C 31.5533 17.202 31.2349 16.3907 30.7357 15.7796C 31.2843 14.0897 31.9332 11.3899 31.724 8.63104C 31.6091 7.11629 31.2086 5.60644 30.3075 4.34846C 29.494 3.21286 28.1739 2.43263 26.519 2.0754C 25.4033 0.585021 23.3751 0 21.0505 0L 21.0176 0ZM 21.0505 2.10835C 21.0637 2.10835 21.0704 2.1083 21.0835 2.10835C 23.1885 2.11594 24.5328 2.70821 24.9707 3.459L 25.2343 3.9202L 25.7613 3.98609C 27.209 4.18966 28.0065 4.74663 28.5944 5.56735C 29.1823 6.38807 29.5197 7.53012 29.6157 8.79575C 29.8076 11.327 29.0763 14.2986 28.5944 15.6479L 28.265 16.5373L 29.0886 16.9656C 29.0805 16.9956 29.4271 17.3448 29.3851 18.1186C 29.3835 18.1358 29.3868 18.1346 29.3851 18.1515C 29.2881 19.1446 29.0326 19.7021 28.858 19.9305C 28.6804 20.1627 28.5922 20.1281 28.6274 20.1281L 27.705 20.1281L 27.5732 21.0505C 27.3912 22.4158 26.6962 24.1388 26.0908 25.0037L 26.0578 25.0037C 25.9973 25.0945 25.9501 25.2034 25.8931 25.3001C 25.6175 25.6226 25.201 26.046 24.6083 26.552C 23.6244 27.3919 22.3206 28.1332 21.1493 28.1332C 19.9898 28.1332 18.6701 27.3541 17.6574 26.4861C 16.7791 25.7333 16.2578 25.0868 16.1091 24.9048C 16.1044 24.8982 16.1137 24.8786 16.1091 24.8719C 15.4883 23.9762 14.7736 22.3996 14.5937 21.0505L 14.4949 20.1281L 13.6384 20.1281C 13.6016 20.1103 13.5045 20.057 13.4078 19.9305C 13.2206 19.6856 12.9592 19.1213 12.8148 18.1515C 12.813 18.1304 12.8158 18.1392 12.8148 18.1186C 12.8125 18.1021 12.8171 18.1024 12.8148 18.0857C 12.7979 17.2864 13.2944 16.8435 13.2101 16.8997L 13.8031 16.4714L 13.6384 15.7467C 12.6655 11.9065 12.5127 8.42325 13.5395 6.06149C 14.5635 3.70628 16.6403 2.21551 21.0505 2.10835ZM 17.0315 28.6933C 18.143 29.5136 19.5333 30.2416 21.1493 30.2416C 22.7289 30.2416 24.0862 29.5478 25.1684 28.7592C 25.1732 29.4023 25.1937 30.0593 25.2672 30.8675L 25.2672 30.9993L 25.3331 31.131C 25.5189 31.6163 25.7807 32.0295 26.0908 32.4158C 26.077 32.459 26.066 32.503 26.0578 32.5476C 26.0578 32.5476 25.8072 33.2377 25.0695 33.9971C 24.3319 34.7565 23.189 35.5124 21.1493 35.5124C 19.1177 35.5124 17.9317 34.7216 17.1632 33.9312C 16.3948 33.1407 16.142 32.4158 16.142 32.4158C 16.4454 32.0213 16.6976 31.595 16.8668 31.0981L 16.8997 30.9993L 16.9326 30.9004C 17.0216 30.0996 17.0312 29.3803 17.0315 28.6933ZM 27.7379 33.8653C 28.1071 34.1034 28.492 34.3254 28.8909 34.5242C 30.4296 35.2909 32.178 35.8842 33.8324 36.5996C 35.4867 37.315 37.0327 38.1281 38.1479 39.2679C 39.037 40.1766 39.572 41.3887 39.8609 42.8917L 2.43777 42.8917C 2.72804 41.3899 3.2565 40.1772 4.15081 39.2679C 5.27258 38.1273 6.84398 37.3154 8.49927 36.5996C 10.1546 35.8838 11.8852 35.2934 13.4078 34.5242C 13.7884 34.3319 14.1755 34.1281 14.5278 33.8982C 14.7646 34.3238 15.124 34.8747 15.6479 35.4136C 16.7242 36.5207 18.5427 37.6208 21.1493 37.6208C 23.748 37.6208 25.5305 36.532 26.5849 35.4466C 27.1609 34.8537 27.5123 34.3 27.7379 33.8653Z"/>
</defs>
</svg>
