<svg width="27" height="21" viewBox="0 0 27 21" version="1.1" xmlns="http://www.w3.org/2000/svg" xmlns:xlink="http://www.w3.org/1999/xlink">
<title>Vector</title>
<desc>Created using Figma</desc>
<g id="Canvas" transform="translate(280 -525)">
<g id="Vector">
<use xlink:href="#path0_fill" transform="translate(-279 526)" fill="#8E8E93"/>
<use xlink:href="#path1_stroke" transform="translate(-279 526)" fill="#8E8E93"/>
</g>
</g>
<defs>
<path id="path0_fill" d="M 13.5228 0C 11.2746 0 9.63301 0.879945 8.76334 2.18733C 8.58506 2.45535 8.44939 2.7355 8.33783 3.03101L 8.21176 2.78103C 8.1713 2.69854 8.10873 2.62867 8.0309 2.57907C 7.95307 2.52947 7.86298 2.50205 7.77049 2.4998C 6.02537 2.4998 4.72167 3.20362 4.03545 4.24967C 3.40927 5.20421 3.3711 6.40632 3.76754 7.53066C 3.73606 7.58232 3.66968 7.6091 3.64146 7.67128C 3.54686 7.87968 3.49664 8.14467 3.53114 8.45247C 3.53106 8.45767 3.53106 8.46288 3.53114 8.46809C 3.58863 8.92403 3.70483 9.24972 3.89361 9.49926C 3.97384 9.6053 4.10222 9.60481 4.20881 9.67112C 4.28328 10.0419 4.39102 10.4112 4.53976 10.7179C 4.62853 10.901 4.72313 11.0605 4.82343 11.2023C 4.85756 11.2505 4.91428 11.2835 4.94951 11.3272C 4.94899 11.7107 4.93594 12.0532 4.90223 12.499C 4.81104 12.7284 4.59161 12.9287 4.17729 13.1396C 3.75347 13.3553 3.18728 13.5536 2.60132 13.8114C 2.01536 14.0692 1.39254 14.3812 0.899282 14.8895C 0.406024 15.3977 0.0580694 16.1088 0.000982778 17.0143C -0.00332017 17.0825 0.00653769 17.1509 0.0299472 17.2152C 0.0533566 17.2795 0.0898203 17.3384 0.137085 17.3882C 0.184349 17.438 0.24141 17.4776 0.304742 17.5047C 0.368073 17.5317 0.436329 17.5456 0.505291 17.5455L 3.64146 17.5455C 3.56405 17.8315 3.5039 18.1375 3.48386 18.4673C 3.47956 18.5355 3.48942 18.6039 3.51283 18.6682C 3.53624 18.7325 3.5727 18.7914 3.61997 18.8412C 3.66723 18.891 3.72429 18.9306 3.78762 18.9577C 3.85095 18.9847 3.91921 18.9986 3.98817 18.9985L 21.2292 18.9985C 21.2982 18.9986 21.3664 18.9847 21.4298 18.9577C 21.4931 18.9306 21.5502 18.891 21.5974 18.8412C 21.6447 18.7914 21.6812 18.7325 21.7046 18.6682C 21.728 18.6039 21.7378 18.5355 21.7335 18.4673C 21.7123 18.1185 21.6452 17.7985 21.5602 17.4986L 24.7121 17.4986C 24.7811 17.4988 24.8493 17.4849 24.9126 17.4578C 24.976 17.4307 25.033 17.3911 25.0803 17.3413C 25.1276 17.2915 25.164 17.2327 25.1874 17.1684C 25.2109 17.104 25.2207 17.0357 25.2164 16.9674C 25.1594 16.0632 24.8061 15.3512 24.3181 14.8426C 23.8301 14.334 23.2274 14.0226 22.6476 13.7646C 22.0678 13.5065 21.5064 13.3082 21.0874 13.0927C 20.6869 12.8868 20.4742 12.677 20.3782 12.4522C 20.3451 12.0472 20.3315 11.6882 20.3309 11.2804C 20.3653 11.2375 20.4237 11.2026 20.457 11.1554C 20.5569 11.0138 20.6387 10.8526 20.7249 10.671C 20.8648 10.3764 20.9663 10.024 21.0243 9.67112C 21.1262 9.60575 21.2466 9.60124 21.3238 9.49926C 21.5126 9.24972 21.6288 8.92403 21.6862 8.46809C 21.7211 8.19178 21.691 7.93574 21.6075 7.71815C 21.5841 7.65731 21.4976 7.62036 21.4656 7.56191C 21.576 7.30556 21.7025 7.06444 21.7335 6.74947C 21.7795 6.28339 21.7412 5.75836 21.6075 5.24959C 21.4737 4.74082 21.2403 4.23412 20.8352 3.84345C 20.5077 3.52753 20.0465 3.3409 19.5272 3.26537L 19.3223 2.79666C 19.2829 2.70888 19.2189 2.63421 19.1378 2.58156C 19.0568 2.52892 18.9622 2.50053 18.8653 2.4998C 18.1686 2.4998 17.4259 2.56902 16.7377 2.78103C 16.5577 2.38682 16.3218 2.01231 15.997 1.70299C 15.5653 1.29187 14.9598 1.04461 14.2635 0.968674L 13.9798 0.296852C 13.9404 0.209076 13.8764 0.134401 13.7953 0.0817569C 13.7143 0.0291129 13.6196 0.000729006 13.5228 0ZM 13.1918 1.03117L 13.4597 1.60925C 13.4991 1.69703 13.5631 1.7717 13.6442 1.82434C 13.7252 1.87699 13.8199 1.90537 13.9167 1.9061C 14.5438 1.9061 14.9696 2.10365 15.3036 2.42169C 15.6376 2.73973 15.876 3.19353 16.0128 3.70284C 16.1496 4.21214 16.1856 4.7693 16.1389 5.23397C 16.0921 5.69864 15.9313 6.07312 15.8394 6.18702C 15.792 6.24668 15.7589 6.31629 15.7426 6.39054C 15.7263 6.46479 15.7274 6.54174 15.7456 6.61554C 15.7638 6.68934 15.7988 6.75805 15.8478 6.81645C 15.8968 6.87485 15.9586 6.92141 16.0285 6.95258C 16.0213 6.94783 16.0294 6.9488 16.0443 6.98383C 16.072 7.04876 16.1023 7.19194 16.0916 7.37442C 16.0892 7.39005 16.094 7.39053 16.0916 7.40567C 16.0234 7.81953 15.9035 8.06577 15.8237 8.17124C 15.7823 8.2259 15.7519 8.24349 15.7449 8.24936C 15.6296 8.25927 15.5213 8.30814 15.4381 8.38779C 15.3549 8.46743 15.3019 8.57301 15.2878 8.68682C 15.246 9.06003 15.1001 9.54679 14.9254 9.9211C 14.838 10.1083 14.735 10.2668 14.6574 10.3742C 14.5993 10.4547 14.5396 10.4985 14.5471 10.4992C 14.4645 10.5426 14.3957 10.608 14.3483 10.688C 14.301 10.7681 14.2771 10.8595 14.2792 10.9523C 14.2792 11.6022 14.2751 12.125 14.3265 12.8896C 14.3301 12.9378 14.3407 12.9851 14.358 13.0302C 14.6285 13.7342 15.2375 14.1565 15.9025 14.4832C 16.5675 14.8099 17.3211 15.0535 18.03 15.3582C 18.7389 15.6628 19.3982 16.0292 19.8739 16.5143C 20.2416 16.8893 20.467 17.3857 20.5988 17.9986L 4.61856 17.9986C 4.75035 17.3857 4.97583 16.8893 5.3435 16.5143C 5.8192 16.0292 6.47848 15.6628 7.18738 15.3582C 7.89627 15.0535 8.64992 14.8099 9.31493 14.4832C 9.97994 14.1565 10.5889 13.7342 10.8594 13.0302C 10.8767 12.9851 10.8873 12.9378 10.8909 12.8896C 10.9427 12.1711 10.9382 11.6022 10.9382 10.9523C 10.9403 10.8595 10.9164 10.7681 10.8691 10.688C 10.8217 10.608 10.7529 10.5426 10.6703 10.4992C 10.671 10.4985 10.6655 10.4925 10.6545 10.4836C 10.6505 10.4819 10.6456 10.4865 10.6387 10.4836C 10.6158 10.4647 10.582 10.4229 10.5442 10.3742C 10.4627 10.2692 10.3527 10.1038 10.2605 9.9211C 10.0762 9.55561 9.92384 9.09386 9.88228 8.70245C 9.87051 8.59554 9.8243 8.49524 9.75048 8.41644C 9.67667 8.33763 9.5792 8.28452 9.47253 8.26498C 9.42325 8.25521 9.16532 8.26604 9.07854 7.40567C 9.04333 7.02168 9.22547 6.90755 9.20461 6.92134C 9.30639 6.85687 9.38146 6.75834 9.41616 6.64365C 9.45087 6.52897 9.44291 6.40574 9.39373 6.29638C 9.07008 5.56109 8.96799 4.79978 9.07854 4.09343C 9.13522 4.03081 9.17504 3.95503 9.19433 3.8731C 9.21361 3.79117 9.21173 3.70574 9.18885 3.62472C 9.28295 3.31429 9.41674 3.02319 9.5986 2.74979C 10.2263 1.80621 11.4082 1.11424 13.1918 1.03117ZM 18.5501 3.5466L 18.7077 3.89032C 18.7447 3.98102 18.8077 4.05897 18.8889 4.11451C 18.9702 4.17005 19.066 4.20075 19.1647 4.2028C 19.6144 4.2028 19.8928 4.33724 20.126 4.56214C 20.3592 4.78705 20.5308 5.12091 20.6304 5.49957C 20.7299 5.87823 20.7594 6.29063 20.7249 6.64011C 20.6905 6.98958 20.572 7.27452 20.52 7.34318C 20.4766 7.39918 20.4457 7.46368 20.4292 7.53241C 20.4127 7.60114 20.4112 7.67254 20.4246 7.74192C 20.438 7.8113 20.466 7.87708 20.5069 7.93492C 20.5478 7.99276 20.6007 8.04135 20.6619 8.07749C 20.6791 8.12239 20.6932 8.21944 20.6776 8.3431C 20.6343 8.6871 20.5582 8.85511 20.52 8.90556C 20.4052 8.91947 20.2987 8.97208 20.2184 9.05457C 20.1381 9.13706 20.0888 9.24441 20.0788 9.35865C 20.0602 9.61664 19.9411 9.9749 19.8109 10.2492C 19.7458 10.3864 19.6795 10.4954 19.6217 10.5773C 19.5784 10.6387 19.5387 10.6845 19.5429 10.6867C 19.476 10.7318 19.4209 10.7923 19.3825 10.863C 19.3441 10.9337 19.3235 11.0126 19.3223 11.0929C 19.3223 11.6428 19.3172 12.0679 19.3696 12.6396C 19.3746 12.6825 19.3852 12.7245 19.4011 12.7646C 19.6164 13.3516 20.1007 13.7191 20.6146 13.9833C 21.1285 14.2475 21.7082 14.435 22.2378 14.6707C 22.7675 14.9064 23.2491 15.1871 23.5932 15.5457C 23.833 15.7956 23.9927 16.1114 24.0975 16.4987L 21.1819 16.4987C 21.1662 16.498 21.1504 16.498 21.1347 16.4987C 20.9778 16.2427 20.7997 16.0161 20.5988 15.8113C 19.9761 15.1762 19.1997 14.7786 18.4398 14.452C 17.6799 14.1254 16.9316 13.8738 16.3595 13.5927C 15.8081 13.3218 15.4786 13.0316 15.3351 12.7021C 15.2979 12.1021 15.2882 11.6525 15.2878 11.1241C 15.3411 11.0637 15.4283 11.0196 15.477 10.9523C 15.6059 10.7737 15.7314 10.5745 15.8394 10.3429C 16.0288 9.93724 16.1412 9.46353 16.2177 8.9993C 16.3552 8.91726 16.5208 8.92146 16.6274 8.78057C 16.8473 8.48992 17.0001 8.08784 17.0844 7.53066C 17.0901 7.52043 17.0953 7.51001 17.1002 7.49941C 17.1318 7.15506 17.0829 6.84816 16.9741 6.59324C 16.9469 6.52946 16.8533 6.51236 16.8165 6.45262C 16.98 6.12409 17.0887 5.7558 17.1317 5.32771C 17.182 4.82735 17.1655 4.28255 17.0529 3.73408C 17.5062 3.61121 18.0371 3.5669 18.5501 3.5466ZM 7.48681 3.56222L 7.67593 3.92157C 7.711 3.99552 7.76381 4.05982 7.82974 4.10884C 7.89568 4.15787 7.97273 4.19013 8.05416 4.2028C 7.98795 4.92996 8.1013 5.68325 8.36935 6.40575C 8.17799 6.66532 8.02525 7.01226 8.06992 7.49941C 8.15798 8.37244 8.55159 8.78641 8.9367 9.01492C 9.01833 9.49376 9.16242 9.97805 9.36221 10.3742C 9.47807 10.6039 9.60604 10.8104 9.74044 10.9835C 9.79058 11.0481 9.87592 11.0827 9.92956 11.1398C 9.92913 11.6684 9.91884 12.1434 9.88228 12.7021C 9.73877 13.0316 9.40929 13.3218 8.8579 13.5927C 8.28578 13.8738 7.53753 14.1254 6.77763 14.452C 6.01772 14.7786 5.24131 15.1762 4.61856 15.8113C 4.40522 16.0288 4.21448 16.2702 4.05121 16.5456C 4.04596 16.5455 4.0407 16.5455 4.03545 16.5456L 1.13568 16.5456C 1.24125 16.1596 1.39749 15.8424 1.63999 15.5925C 1.98829 15.2337 2.47495 14.9535 3.01107 14.7176C 3.5472 14.4817 4.11571 14.2941 4.63432 14.0302C 5.15293 13.7662 5.64749 13.4162 5.86357 12.8271C 5.88087 12.782 5.89148 12.7346 5.89509 12.6865C 5.94706 12.0682 5.95813 11.6553 5.95813 11.1554C 5.96054 11.0684 5.94 10.9822 5.89854 10.9055C 5.85708 10.8288 5.79613 10.7641 5.72173 10.7179C 5.70584 10.7004 5.67236 10.6658 5.64293 10.6242C 5.58407 10.541 5.50688 10.4224 5.43806 10.2804C 5.30042 9.99662 5.17926 9.62951 5.13863 9.3274C 5.12202 9.21879 5.06981 9.11863 4.99005 9.04239C 4.9103 8.96614 4.80743 8.91806 4.69736 8.90556C 4.6592 8.85511 4.58313 8.6871 4.53976 8.3431C 4.52383 8.20093 4.55241 8.11907 4.57128 8.07749C 4.67033 8.0107 4.74217 7.91114 4.77393 7.79664C 4.80569 7.68213 4.79531 7.56015 4.74463 7.45254C 4.32647 6.51434 4.40017 5.53781 4.88647 4.7965C 5.33461 4.11337 6.20157 3.63972 7.48681 3.56222Z"/>
<path id="path1_stroke" d="M 8.76334 2.18733L 8.55519 2.04887L 8.76334 2.18733ZM 8.33783 3.03101L 8.11462 3.14359L 8.3708 3.65154L 8.57172 3.11931L 8.33783 3.03101ZM 8.21176 2.78103L 7.98728 2.89112L 7.98854 2.89361L 8.21176 2.78103ZM 7.77049 2.4998L 7.77654 2.2498L 7.77049 2.2498L 7.77049 2.4998ZM 4.03545 4.24967L 3.82642 4.11254L 4.03545 4.24967ZM 3.76754 7.53066L 3.98102 7.66076L 4.04277 7.55944L 4.00331 7.44753L 3.76754 7.53066ZM 3.64146 7.67128L 3.86911 7.77461L 3.86911 7.77461L 3.64146 7.67128ZM 3.53114 8.45247L 3.78111 8.45641L 3.78136 8.44046L 3.77959 8.42462L 3.53114 8.45247ZM 3.53114 8.46809L 3.28117 8.47203L 3.28139 8.48575L 3.28311 8.49936L 3.53114 8.46809ZM 3.89361 9.49926L 4.09299 9.34843L 4.09299 9.34843L 3.89361 9.49926ZM 4.20881 9.67112L 4.45391 9.62189L 4.43263 9.51593L 4.34086 9.45884L 4.20881 9.67112ZM 4.53976 10.7179L 4.7647 10.6088L 4.7647 10.6088L 4.53976 10.7179ZM 4.82343 11.2023L 4.61935 11.3466L 4.61935 11.3466L 4.82343 11.2023ZM 4.94951 11.3272L 5.19951 11.3276L 5.19963 11.2393L 5.14424 11.1705L 4.94951 11.3272ZM 4.90223 12.499L 5.13454 12.5914L 5.14864 12.5559L 5.15152 12.5179L 4.90223 12.499ZM 4.17729 13.1396L 4.29068 13.3624L 4.17729 13.1396ZM 0.899282 14.8895L 0.719882 14.7154L 0.899282 14.8895ZM 0.000982778 17.0143L 0.250487 17.03L 0.250487 17.03L 0.000982778 17.0143ZM 0.505291 17.5455L 0.505291 17.2955L 0.504833 17.2955L 0.505291 17.5455ZM 3.64146 17.5455L 3.88278 17.6108L 3.96812 17.2955L 3.64146 17.2955L 3.64146 17.5455ZM 3.48386 18.4673L 3.73337 18.483L 3.7334 18.4825L 3.48386 18.4673ZM 3.98817 18.9985L 3.98817 18.7485L 3.98771 18.7485L 3.98817 18.9985ZM 21.2292 18.9985L 21.2297 18.7485L 21.2292 18.7485L 21.2292 18.9985ZM 21.7335 18.4673L 21.484 18.4825L 21.484 18.483L 21.7335 18.4673ZM 21.5602 17.4986L 21.5602 17.2486L 21.2294 17.2486L 21.3197 17.5669L 21.5602 17.4986ZM 24.7121 17.4986L 24.7126 17.2486L 24.7121 17.2486L 24.7121 17.4986ZM 25.2164 16.9674L 24.9669 16.9832L 24.9669 16.9832L 25.2164 16.9674ZM 21.0874 13.0927L 21.2017 12.8704L 21.0874 13.0927ZM 20.3782 12.4522L 20.129 12.4725L 20.1323 12.513L 20.1483 12.5503L 20.3782 12.4522ZM 20.3309 11.2804L 20.1357 11.1242L 20.0808 11.1928L 20.0809 11.2807L 20.3309 11.2804ZM 20.457 11.1554L 20.2527 11.0113L 20.457 11.1554ZM 20.7249 10.671L 20.9508 10.7782L 20.7249 10.671ZM 21.0243 9.67112L 20.8893 9.46073L 20.7957 9.52081L 20.7777 9.63057L 21.0243 9.67112ZM 21.3238 9.49926L 21.5232 9.65009L 21.3238 9.49926ZM 21.6862 8.46809L 21.9343 8.49936L 21.9343 8.49936L 21.6862 8.46809ZM 21.6075 7.71815L 21.8408 7.6285L 21.8408 7.62847L 21.6075 7.71815ZM 21.4656 7.56191L 21.236 7.46304L 21.1878 7.57497L 21.2463 7.68189L 21.4656 7.56191ZM 21.7335 6.74947L 21.9823 6.77399L 21.9823 6.77399L 21.7335 6.74947ZM 21.6075 5.24959L 21.8492 5.18604L 21.8492 5.18604L 21.6075 5.24959ZM 20.8352 3.84345L 21.0088 3.6635L 20.8352 3.84345ZM 19.5272 3.26537L 19.2981 3.3655L 19.3537 3.49278L 19.4912 3.51277L 19.5272 3.26537ZM 19.3223 2.79666L 19.5514 2.69652L 19.5504 2.69435L 19.3223 2.79666ZM 18.8653 2.4998L 18.8672 2.2498L 18.8653 2.2498L 18.8653 2.4998ZM 16.7377 2.78103L 16.5103 2.88489L 16.6015 3.08459L 16.8113 3.01995L 16.7377 2.78103ZM 15.997 1.70299L 15.8246 1.88403L 15.8246 1.88403L 15.997 1.70299ZM 14.2635 0.968674L 14.0331 1.06592L 14.0903 1.20127L 14.2364 1.2172L 14.2635 0.968674ZM 13.9798 0.296852L 14.2102 0.199581L 14.2079 0.194546L 13.9798 0.296852ZM 13.1918 1.03117L 13.4186 0.926047L 13.348 0.773624L 13.1802 0.78144L 13.1918 1.03117ZM 13.4597 1.60925L 13.6878 1.50694L 13.6865 1.50413L 13.4597 1.60925ZM 13.9167 1.9061L 13.9149 2.1561L 13.9167 2.1561L 13.9167 1.9061ZM 15.3036 2.42169L 15.1312 2.60273L 15.1312 2.60273L 15.3036 2.42169ZM 16.0128 3.70284L 15.7713 3.76769L 16.0128 3.70284ZM 16.1389 5.23397L 16.3876 5.25898L 16.3876 5.25898L 16.1389 5.23397ZM 15.8394 6.18702L 15.6449 6.03002L 15.6438 6.0314L 15.8394 6.18702ZM 16.0285 6.95258L 15.9267 7.1809L 16.1653 6.74332L 16.0285 6.95258ZM 16.0443 6.98383L 16.2742 6.8857L 16.2742 6.8857L 16.0443 6.98383ZM 16.0916 7.37442L 16.3388 7.41191L 16.3405 7.40054L 16.3411 7.38906L 16.0916 7.37442ZM 16.0916 7.40567L 16.3383 7.4463L 16.3383 7.44595L 16.0916 7.40567ZM 15.8237 8.17124L 16.023 8.32207L 16.023 8.32207L 15.8237 8.17124ZM 15.7449 8.24936L 15.7663 8.49844L 15.8449 8.49167L 15.9054 8.44097L 15.7449 8.24936ZM 15.2878 8.68682L 15.0397 8.65623L 15.0394 8.65898L 15.2878 8.68682ZM 14.9254 9.9211L 15.1519 10.0268L 14.9254 9.9211ZM 14.6574 10.3742L 14.8601 10.5205L 14.6574 10.3742ZM 14.5471 10.4992L 14.6635 10.7205L 15.4123 10.3267L 14.5697 10.2502L 14.5471 10.4992ZM 14.2792 10.9523L 14.5293 10.9523L 14.5292 10.9465L 14.2792 10.9523ZM 14.3265 12.8896L 14.0771 12.9064L 14.0772 12.9083L 14.3265 12.8896ZM 14.358 13.0302L 14.1246 13.1197L 14.1247 13.1199L 14.358 13.0302ZM 15.9025 14.4832L 16.0127 14.2589L 15.9025 14.4832ZM 19.8739 16.5143L 19.6954 16.6894L 19.8739 16.5143ZM 20.5988 17.9986L 20.5988 18.2486L 20.9083 18.2486L 20.8432 17.946L 20.5988 17.9986ZM 4.61856 17.9986L 4.37414 17.946L 4.30909 18.2486L 4.61856 18.2486L 4.61856 17.9986ZM 5.3435 16.5143L 5.522 16.6894L 5.3435 16.5143ZM 10.8594 13.0302L 11.0927 13.1199L 11.0928 13.1197L 10.8594 13.0302ZM 10.8909 12.8896L 11.1402 12.9083L 11.1402 12.9076L 10.8909 12.8896ZM 10.9382 10.9523L 10.6882 10.9465L 10.6882 10.9523L 10.9382 10.9523ZM 10.6703 10.4992L 10.5003 10.3159L 10.2412 10.5561L 10.5539 10.7205L 10.6703 10.4992ZM 10.6545 10.4836L 10.8119 10.2893L 10.7836 10.2664L 10.7499 10.2525L 10.6545 10.4836ZM 10.6387 10.4836L 10.4799 10.6766L 10.5078 10.6995L 10.541 10.7136L 10.6387 10.4836ZM 10.5442 10.3742L 10.3467 10.5275L 10.3467 10.5275L 10.5442 10.3742ZM 10.2605 9.9211L 10.4837 9.80852L 10.2605 9.9211ZM 9.88228 8.70245L 10.1309 8.67605L 10.1308 8.6751L 9.88228 8.70245ZM 9.47253 8.26498L 9.4239 8.51023L 9.42749 8.51089L 9.47253 8.26498ZM 9.07854 7.40567L 8.82957 7.4285L 8.8298 7.43076L 9.07854 7.40567ZM 9.20461 6.92134L 9.06677 6.71277L 9.33838 7.13254L 9.20461 6.92134ZM 9.39373 6.29638L 9.16491 6.3971L 9.16572 6.39891L 9.39373 6.29638ZM 9.07854 4.09343L 8.89319 3.92566L 8.84309 3.98101L 8.83154 4.05477L 9.07854 4.09343ZM 9.18885 3.62472L 8.9496 3.55219L 8.92838 3.62222L 8.94826 3.69264L 9.18885 3.62472ZM 9.5986 2.74979L 9.39045 2.61132L 9.5986 2.74979ZM 18.5501 3.5466L 18.7773 3.4424L 18.7075 3.29017L 18.5402 3.29679L 18.5501 3.5466ZM 18.7077 3.89032L 18.9394 3.79583L 18.9349 3.78613L 18.7077 3.89032ZM 19.1647 4.2028L 19.1595 4.4528L 19.1647 4.4528L 19.1647 4.2028ZM 20.7249 6.64011L 20.4761 6.61559L 20.4761 6.61559L 20.7249 6.64011ZM 20.52 7.34318L 20.7176 7.49637L 20.7194 7.49401L 20.52 7.34318ZM 20.6619 8.07749L 20.8952 7.98781L 20.864 7.9065L 20.789 7.86221L 20.6619 8.07749ZM 20.6776 8.3431L 20.4296 8.31182L 20.4296 8.31182L 20.6776 8.3431ZM 20.52 8.90556L 20.5501 9.15374L 20.6554 9.14098L 20.7194 9.05639L 20.52 8.90556ZM 20.0788 9.35865L 19.8297 9.33684L 19.8294 9.34068L 20.0788 9.35865ZM 19.8109 10.2492L 19.585 10.142L 19.8109 10.2492ZM 19.6217 10.5773L 19.826 10.7214L 19.6217 10.5773ZM 19.5429 10.6867L 19.6827 10.8939L 20.0335 10.6574L 19.657 10.4642L 19.5429 10.6867ZM 19.3223 11.0929L 19.0723 11.0892L 19.0723 11.0929L 19.3223 11.0929ZM 19.3696 12.6396L 19.1205 12.6625L 19.1213 12.6688L 19.3696 12.6396ZM 19.4011 12.7646L 19.6359 12.6785L 19.6335 12.6726L 19.4011 12.7646ZM 23.5932 15.5457L 23.7735 15.3726L 23.5932 15.5457ZM 24.0975 16.4987L 24.0975 16.7487L 24.4241 16.7487L 24.3388 16.4334L 24.0975 16.4987ZM 21.1819 16.4987L 21.1703 16.7487L 21.1819 16.7487L 21.1819 16.4987ZM 21.1347 16.4987L 20.9215 16.6293L 20.9987 16.7553L 21.1463 16.7484L 21.1347 16.4987ZM 20.5988 15.8113L 20.4203 15.9863L 20.5988 15.8113ZM 16.3595 13.5927L 16.2493 13.8171L 16.3595 13.5927ZM 15.3351 12.7021L 15.0856 12.7176L 15.0883 12.7616L 15.1059 12.802L 15.3351 12.7021ZM 15.2878 11.1241L 15.1003 10.9588L 15.0378 11.0297L 15.0378 11.1243L 15.2878 11.1241ZM 15.477 10.9523L 15.2743 10.8059L 15.477 10.9523ZM 15.8394 10.3429L 15.6129 10.2372L 15.8394 10.3429ZM 16.2177 8.9993L 16.0896 8.78458L 15.9899 8.84406L 15.971 8.95865L 16.2177 8.9993ZM 16.6274 8.78057L 16.428 8.62973L 16.6274 8.78057ZM 17.0844 7.53066L 16.8653 7.41032L 16.8439 7.44929L 16.8372 7.49326L 17.0844 7.53066ZM 17.1002 7.49941L 17.3272 7.60408L 17.3452 7.56505L 17.3491 7.52225L 17.1002 7.49941ZM 16.9741 6.59324L 17.2041 6.49511L 17.2041 6.49511L 16.9741 6.59324ZM 16.8165 6.45262L 16.5927 6.34122L 16.5309 6.46544L 16.6036 6.58363L 16.8165 6.45262ZM 17.1317 5.32771L 17.3805 5.35273L 17.1317 5.32771ZM 17.0529 3.73408L 16.9875 3.49279L 16.7608 3.55424L 16.808 3.78434L 17.0529 3.73408ZM 7.48681 3.56222L 7.70805 3.44579L 7.63288 3.30296L 7.47176 3.31268L 7.48681 3.56222ZM 7.67593 3.92157L 7.90201 3.81435L 7.89716 3.80514L 7.67593 3.92157ZM 8.05416 4.2028L 8.30313 4.22547L 8.3244 3.99184L 8.0926 3.95577L 8.05416 4.2028ZM 8.36935 6.40575L 8.57058 6.5541L 8.65071 6.4454L 8.60374 6.31879L 8.36935 6.40575ZM 8.06992 7.49941L 7.82095 7.52224L 7.82118 7.52451L 8.06992 7.49941ZM 8.9367 9.01492L 9.18314 8.97291L 9.16371 8.85893L 9.06427 8.79992L 8.9367 9.01492ZM 9.36221 10.3742L 9.13899 10.4868L 9.36221 10.3742ZM 9.74044 10.9835L 9.54297 11.1368L 9.54297 11.1368L 9.74044 10.9835ZM 9.92956 11.1398L 10.1796 11.14L 10.1796 11.0408L 10.1118 10.9686L 9.92956 11.1398ZM 9.88228 12.7021L 10.1115 12.802L 10.1289 12.762L 10.1317 12.7185L 9.88228 12.7021ZM 8.8579 13.5927L 8.96813 13.8171L 8.8579 13.5927ZM 4.61856 15.8113L 4.44005 15.6362L 4.61856 15.8113ZM 4.05121 16.5456L 4.04734 16.7956L 4.1923 16.7978L 4.26625 16.6731L 4.05121 16.5456ZM 4.03545 16.5456L 4.03545 16.7956L 4.03932 16.7956L 4.03545 16.5456ZM 1.13568 16.5456L 0.894535 16.4796L 0.808109 16.7956L 1.13568 16.7956L 1.13568 16.5456ZM 1.63999 15.5925L 1.81939 15.7666L 1.63999 15.5925ZM 4.63432 14.0302L 4.74771 14.253L 4.74771 14.253L 4.63432 14.0302ZM 5.86357 12.8271L 5.63011 12.7376L 5.62886 12.741L 5.86357 12.8271ZM 5.89509 12.6865L 5.64596 12.6656L 5.64579 12.6678L 5.89509 12.6865ZM 5.95813 11.1554L 5.70813 11.1484L 5.70813 11.1554L 5.95813 11.1554ZM 5.72173 10.7179L 5.53671 10.886L 5.56018 10.9119L 5.58983 10.9303L 5.72173 10.7179ZM 5.64293 10.6242L 5.84704 10.4798L 5.84702 10.4798L 5.64293 10.6242ZM 5.43806 10.2804L 5.21311 10.3895L 5.43806 10.2804ZM 5.13863 9.3274L 5.38644 9.29407L 5.38575 9.28962L 5.13863 9.3274ZM 4.69736 8.90556L 4.49798 9.05639L 4.56265 9.14187L 4.66915 9.15396L 4.69736 8.90556ZM 4.53976 8.3431L 4.29129 8.37095L 4.29172 8.37437L 4.53976 8.3431ZM 4.57128 8.07749L 4.43151 7.87022L 4.37287 7.90976L 4.34363 7.97416L 4.57128 8.07749ZM 4.74463 7.45254L 4.51624 7.55434L 4.51846 7.55905L 4.74463 7.45254ZM 4.88647 4.7965L 5.09551 4.93363L 4.88647 4.7965ZM 13.5228 -0.25C 11.2086 -0.25 9.48024 0.658226 8.55519 2.04887L 8.9715 2.32579C 9.78578 1.10166 11.3405 0.25 13.5228 0.25L 13.5228 -0.25ZM 8.55519 2.04887C 8.36454 2.33548 8.22082 2.63313 8.10394 2.94272L 8.57172 3.11931C 8.67797 2.83786 8.80557 2.57523 8.9715 2.32579L 8.55519 2.04887ZM 8.56105 2.91843L 8.43497 2.66845L 7.98854 2.89361L 8.11462 3.14359L 8.56105 2.91843ZM 8.43622 2.67095C 8.37545 2.54705 8.28162 2.4424 8.16527 2.36824L 7.89654 2.78989C 7.93584 2.81494 7.96715 2.85003 7.9873 2.89111L 8.43622 2.67095ZM 8.16527 2.36824C 8.04892 2.2941 7.91445 2.25322 7.77654 2.24988L 7.76443 2.74973C 7.81152 2.75087 7.85722 2.76483 7.89654 2.78989L 8.16527 2.36824ZM 7.77049 2.2498C 5.95762 2.2498 4.56722 2.98328 3.82642 4.11254L 4.24449 4.3868C 4.87612 3.42395 6.09311 2.7498 7.77049 2.7498L 7.77049 2.2498ZM 3.82642 4.11254C 3.14728 5.1478 3.11624 6.43532 3.53176 7.61379L 4.00331 7.44753C 3.62596 6.37733 3.67125 5.26062 4.24449 4.3868L 3.82642 4.11254ZM 3.55406 7.40056C 3.56126 7.38875 3.56727 7.38351 3.56456 7.38614C 3.55986 7.3907 3.55644 7.3934 3.53921 7.4084C 3.51398 7.43034 3.45233 7.48309 3.41381 7.56795L 3.86911 7.77461C 3.85881 7.79729 3.84446 7.80556 3.86735 7.78565C 3.87417 7.77972 3.89501 7.76216 3.9125 7.74522C 3.93196 7.72636 3.95808 7.6984 3.98102 7.66076L 3.55406 7.40056ZM 3.41381 7.56795C 3.29988 7.81895 3.24337 8.12944 3.2827 8.48031L 3.77959 8.42462C 3.74992 8.15989 3.79385 7.94041 3.86911 7.77461L 3.41381 7.56795ZM 3.28117 8.44853C 3.28105 8.45636 3.28105 8.4642 3.28117 8.47203L 3.78111 8.46415C 3.78107 8.46157 3.78107 8.45899 3.78111 8.45641L 3.28117 8.44853ZM 3.28311 8.49936C 3.34384 8.98107 3.47007 9.35377 3.69424 9.65009L 4.09299 9.34843C 3.9396 9.14568 3.83342 8.86699 3.77918 8.43682L 3.28311 8.49936ZM 3.69424 9.65009C 3.77662 9.75899 3.88148 9.80634 3.95123 9.83329C 4.03576 9.86595 4.05011 9.86683 4.07675 9.8834L 4.34086 9.45884C 4.29539 9.43056 4.25119 9.41162 4.21604 9.39803C 4.1986 9.39129 4.18155 9.38518 4.16783 9.38025C 4.15315 9.37499 4.14197 9.37097 4.13142 9.36689C 4.11037 9.35876 4.10085 9.35374 4.09596 9.35063C 4.0939 9.34931 4.09316 9.34863 4.09313 9.34861C 4.09309 9.34858 4.09311 9.34859 4.09315 9.34863C 4.09318 9.34867 4.09313 9.34862 4.09299 9.34843L 3.69424 9.65009ZM 3.9637 9.72035C 4.04056 10.103 4.15361 10.4946 4.31481 10.827L 4.7647 10.6088C 4.62843 10.3278 4.52599 9.98077 4.45391 9.62189L 3.9637 9.72035ZM 4.31481 10.827C 4.4092 11.0216 4.51067 11.193 4.61935 11.3466L 5.02752 11.0579C 4.93559 10.9279 4.84787 10.7803 4.7647 10.6088L 4.31481 10.827ZM 4.61935 11.3466C 4.65618 11.3987 4.70102 11.4369 4.72259 11.4556C 4.73637 11.4675 4.74317 11.4733 4.74993 11.4795C 4.75593 11.4851 4.75648 11.4861 4.75478 11.484L 5.14424 11.1705C 5.12492 11.1465 5.10517 11.127 5.08956 11.1126C 5.07471 11.0988 5.0586 11.0851 5.04953 11.0773C 5.0254 11.0564 5.02481 11.054 5.02752 11.0579L 4.61935 11.3466ZM 4.69951 11.3269C 4.699 11.7038 4.68622 12.04 4.65294 12.4802L 5.15152 12.5179C 5.18566 12.0664 5.19898 11.7177 5.19951 11.3276L 4.69951 11.3269ZM 4.66992 12.4067C 4.61297 12.5499 4.46157 12.7144 4.06389 12.9168L 4.29068 13.3624C 4.72165 13.1431 5.0091 12.9069 5.13454 12.5914L 4.66992 12.4067ZM 4.06389 12.9168C 3.86257 13.0193 3.62412 13.1192 3.35603 13.2281C 3.09093 13.3358 2.7979 13.4518 2.50064 13.5826L 2.70201 14.0403C 2.99071 13.9132 3.27375 13.8012 3.54419 13.6913C 3.81164 13.5827 4.06819 13.4756 4.29068 13.3624L 4.06389 12.9168ZM 2.50064 13.5826C 1.91019 13.8424 1.24896 14.1702 0.719882 14.7154L 1.07868 15.0636C 1.53612 14.5923 2.12054 14.2961 2.70201 14.0403L 2.50064 13.5826ZM 0.719882 14.7154C 0.184475 15.267 -0.187746 16.0345 -0.248522 16.9986L 0.250487 17.03C 0.303885 16.183 0.627573 15.5284 1.07868 15.0636L 0.719882 14.7154ZM -0.248522 16.9986C -0.254996 17.1012 -0.240158 17.2041 -0.204972 17.3007L 0.264867 17.1297C 0.253234 17.0978 0.248355 17.0638 0.250487 17.03L -0.248522 16.9986ZM -0.204972 17.3007C -0.169788 17.3974 -0.115037 17.4857 -0.0442229 17.5603L 0.318393 17.2161C 0.294678 17.1911 0.276502 17.1617 0.264867 17.1297L -0.204972 17.3007ZM -0.0442229 17.5603C 0.0265839 17.6349 0.111944 17.6942 0.206516 17.7346L 0.402967 17.2748C 0.370877 17.2611 0.342115 17.241 0.318393 17.2161L -0.0442229 17.5603ZM 0.206516 17.7346C 0.301083 17.775 0.402919 17.7957 0.505749 17.7955L 0.504833 17.2955C 0.469739 17.2956 0.435063 17.2885 0.402967 17.2748L 0.206516 17.7346ZM 0.505291 17.7955L 3.64146 17.7955L 3.64146 17.2955L 0.505291 17.2955L 0.505291 17.7955ZM 3.40014 17.4802C 3.31951 17.7781 3.25564 18.1013 3.23432 18.4521L 3.7334 18.4825C 3.75216 18.1737 3.8086 17.8849 3.88278 17.6108L 3.40014 17.4802ZM 3.23436 18.4516C 3.22789 18.5542 3.24272 18.6571 3.27791 18.7538L 3.74775 18.5827C 3.73611 18.5508 3.73124 18.5168 3.73337 18.483L 3.23436 18.4516ZM 3.27791 18.7538C 3.31309 18.8504 3.36784 18.9387 3.43866 19.0133L 3.80127 18.6691C 3.77756 18.6441 3.75938 18.6147 3.74775 18.5827L 3.27791 18.7538ZM 3.43866 19.0133C 3.50946 19.0879 3.59482 19.1472 3.6894 19.1876L 3.88585 18.7278C 3.85376 18.7141 3.825 18.6941 3.80127 18.6691L 3.43866 19.0133ZM 3.6894 19.1876C 3.78396 19.228 3.8858 19.2487 3.98863 19.2485L 3.98771 18.7485C 3.95262 18.7486 3.91794 18.7415 3.88585 18.7278L 3.6894 19.1876ZM 3.98817 19.2485L 21.2292 19.2485L 21.2292 18.7485L 3.98817 18.7485L 3.98817 19.2485ZM 21.2288 19.2485C 21.3316 19.2487 21.4334 19.228 21.528 19.1876L 21.3315 18.7278C 21.2994 18.7415 21.2648 18.7486 21.2297 18.7485L 21.2288 19.2485ZM 21.528 19.1876C 21.6226 19.1472 21.7079 19.0879 21.7787 19.0133L 21.4161 18.6691C 21.3924 18.6941 21.3636 18.7141 21.3315 18.7278L 21.528 19.1876ZM 21.7787 19.0133C 21.8495 18.9387 21.9043 18.8504 21.9395 18.7538L 21.4696 18.5827C 21.458 18.6147 21.4398 18.6441 21.4161 18.6691L 21.7787 19.0133ZM 21.9395 18.7538C 21.9747 18.6571 21.9895 18.5542 21.983 18.4516L 21.484 18.483C 21.4862 18.5168 21.4813 18.5508 21.4696 18.5827L 21.9395 18.7538ZM 21.9831 18.4521C 21.9605 18.0805 21.8891 17.742 21.8007 17.4304L 21.3197 17.5669C 21.4014 17.8549 21.4642 18.1566 21.484 18.4825L 21.9831 18.4521ZM 21.5602 17.7486L 24.7121 17.7486L 24.7121 17.2486L 21.5602 17.2486L 21.5602 17.7486ZM 24.7116 17.7486C 24.8145 17.7488 24.9163 17.7281 25.0109 17.6877L 24.8144 17.2279C 24.7823 17.2416 24.7477 17.2487 24.7126 17.2486L 24.7116 17.7486ZM 25.0109 17.6877C 25.1054 17.6473 25.1908 17.588 25.2616 17.5134L 24.899 17.1692C 24.8753 17.1942 24.8465 17.2142 24.8144 17.2279L 25.0109 17.6877ZM 25.2616 17.5134C 25.3324 17.4388 25.3872 17.3505 25.4224 17.2539L 24.9525 17.0828C 24.9409 17.1148 24.9227 17.1442 24.899 17.1692L 25.2616 17.5134ZM 25.4224 17.2539C 25.4576 17.1572 25.4724 17.0544 25.4659 16.9517L 24.9669 16.9832C 24.969 17.017 24.9642 17.0509 24.9525 17.0828L 25.4224 17.2539ZM 25.4659 16.9517C 25.4052 15.9879 25.027 15.2203 24.4985 14.6695L 24.1377 15.0157C 24.5852 15.482 24.9137 16.1385 24.9669 16.9832L 25.4659 16.9517ZM 24.4985 14.6695C 23.9755 14.1245 23.3357 13.7971 22.7492 13.5361L 22.5459 13.993C 23.1192 14.248 23.6847 14.5436 24.1377 15.0157L 24.4985 14.6695ZM 22.7492 13.5361C 22.4549 13.4052 22.1646 13.2891 21.9021 13.1814C 21.6365 13.0724 21.4006 12.9726 21.2017 12.8704L 20.9731 13.3151C 21.1933 13.4283 21.4475 13.5353 21.7123 13.644C 21.9802 13.7538 22.2604 13.8659 22.5459 13.993L 22.7492 13.5361ZM 21.2017 12.8704C 20.8266 12.6776 20.6718 12.5031 20.6081 12.354L 20.1483 12.5503C 20.2766 12.8509 20.5472 13.0961 20.9731 13.3151L 21.2017 12.8704ZM 20.6274 12.4318C 20.5949 12.0341 20.5815 11.6818 20.5809 11.28L 20.0809 11.2807C 20.0815 11.6946 20.0953 12.0603 20.129 12.4725L 20.6274 12.4318ZM 20.5261 11.4366C 20.524 11.4393 20.5242 11.4384 20.5304 11.4327C 20.5373 11.4263 20.5443 11.4204 20.5581 11.4084C 20.5792 11.3901 20.6247 11.3514 20.6613 11.2995L 20.2527 11.0113C 20.256 11.0066 20.2557 11.0088 20.2306 11.0305C 20.2214 11.0386 20.2053 11.0523 20.1904 11.0661C 20.175 11.0804 20.1551 11.1 20.1357 11.1242L 20.5261 11.4366ZM 20.6613 11.2995C 20.7744 11.1391 20.8639 10.9612 20.9508 10.7782L 20.4991 10.5638C 20.4135 10.7441 20.3393 10.8885 20.2527 11.0113L 20.6613 11.2995ZM 20.9508 10.7782C 21.1027 10.4582 21.2101 10.0825 21.271 9.71167L 20.7777 9.63057C 20.7226 9.96558 20.6269 10.2946 20.4991 10.5638L 20.9508 10.7782ZM 21.1594 9.88151C 21.186 9.86443 21.1999 9.86311 21.2801 9.82941C 21.3467 9.80146 21.4448 9.75364 21.5232 9.65009L 21.1244 9.34843C 21.1242 9.34865 21.1239 9.34942 21.1203 9.35178C 21.1154 9.35504 21.1062 9.36013 21.0865 9.36843C 21.0766 9.37259 21.066 9.37675 21.0522 9.38216C 21.0393 9.38721 21.0233 9.39351 21.0068 9.40037C 20.9737 9.41422 20.9321 9.43323 20.8893 9.46073L 21.1594 9.88151ZM 21.5232 9.65009C 21.7473 9.35377 21.8735 8.98107 21.9343 8.49936L 21.4382 8.43682C 21.384 8.86699 21.2778 9.14568 21.1244 9.34843L 21.5232 9.65009ZM 21.9343 8.49936C 21.9737 8.18667 21.9407 7.8886 21.8408 7.6285L 21.3741 7.8078C 21.4413 7.98287 21.4685 8.1969 21.4382 8.43682L 21.9343 8.49936ZM 21.8408 7.62847C 21.8197 7.57353 21.7881 7.5333 21.7639 7.50705C 21.7403 7.48135 21.7154 7.46023 21.7012 7.44828C 21.6831 7.43297 21.6774 7.42822 21.6724 7.42335C 21.6683 7.41931 21.6762 7.42592 21.6849 7.44193L 21.2463 7.68189C 21.271 7.72712 21.3017 7.76027 21.3235 7.7815C 21.3445 7.8019 21.3678 7.82115 21.3783 7.82998C 21.3849 7.8356 21.3892 7.83927 21.3924 7.84227C 21.3957 7.8452 21.3965 7.84613 21.3959 7.84553C 21.3956 7.84515 21.3835 7.83235 21.3741 7.80783L 21.8408 7.62847ZM 21.6952 7.66079C 21.7969 7.42464 21.9465 7.13796 21.9823 6.77399L 21.4847 6.72495C 21.4585 6.99092 21.3551 7.18648 21.236 7.46304L 21.6952 7.66079ZM 21.9823 6.77399C 22.0312 6.27783 21.9904 5.72299 21.8492 5.18604L 21.3657 5.31314C 21.492 5.79373 21.5277 6.28895 21.4847 6.72496L 21.9823 6.77399ZM 21.8492 5.18604C 21.7083 4.6497 21.4574 4.09618 21.0088 3.6635L 20.6617 4.0234C 21.0232 4.37207 21.2392 4.83194 21.3657 5.31314L 21.8492 5.18604ZM 21.0088 3.6635C 20.6324 3.30049 20.1165 3.09844 19.5632 3.01797L 19.4912 3.51277C 19.9766 3.58335 20.3829 3.75458 20.6617 4.0234L 21.0088 3.6635ZM 19.7563 3.16524L 19.5514 2.69653L 19.0932 2.89679L 19.2981 3.3655L 19.7563 3.16524ZM 19.5504 2.69435C 19.4913 2.56248 19.3952 2.45062 19.274 2.37191L 19.0017 2.79122C 19.0426 2.81779 19.0746 2.85528 19.0942 2.89896L 19.5504 2.69435ZM 19.274 2.37191C 19.1529 2.29321 19.0116 2.2509 18.8672 2.24981L 18.8634 2.7498C 18.9127 2.75017 18.9607 2.76463 19.0017 2.79122L 19.274 2.37191ZM 18.8653 2.2498C 18.154 2.2498 17.3843 2.32024 16.6641 2.54211L 16.8113 3.01995C 17.4675 2.8178 18.1833 2.7498 18.8653 2.7498L 18.8653 2.2498ZM 16.9651 2.67717C 16.7759 2.26296 16.5235 1.85918 16.1694 1.52195L 15.8246 1.88403C 16.1201 2.16544 16.3394 2.51067 16.5103 2.88489L 16.9651 2.67717ZM 16.1694 1.52195C 15.689 1.06442 15.0276 0.800524 14.2906 0.720148L 14.2364 1.2172C 14.892 1.2887 15.4416 1.51933 15.8246 1.88403L 16.1694 1.52195ZM 14.4938 0.871427L 14.2101 0.199604L 13.7495 0.394099L 14.0331 1.06592L 14.4938 0.871427ZM 14.2079 0.194546C 14.1487 0.0626728 14.0527 -0.0491889 13.9315 -0.1279L 13.6592 0.291413C 13.7001 0.317991 13.7321 0.35548 13.7517 0.399158L 14.2079 0.194546ZM 13.9315 -0.1279C 13.8103 -0.206596 13.6691 -0.248906 13.5246 -0.249993L 13.5209 0.249993C 13.5702 0.250364 13.6182 0.264822 13.6592 0.291413L 13.9315 -0.1279ZM 12.965 1.13629L 13.2329 1.71437L 13.6865 1.50413L 13.4186 0.926047L 12.965 1.13629ZM 13.2316 1.71156C 13.2908 1.84343 13.3868 1.95529 13.508 2.034L 13.7803 1.61469C 13.7394 1.58811 13.7074 1.55062 13.6878 1.50694L 13.2316 1.71156ZM 13.508 2.034C 13.6292 2.1127 13.7704 2.15501 13.9149 2.15609L 13.9186 1.65611C 13.8693 1.65574 13.8213 1.64128 13.7803 1.61469L 13.508 2.034ZM 13.9167 2.1561C 14.4816 2.1561 14.8452 2.33035 15.1312 2.60273L 15.476 2.24065C 15.0941 1.87694 14.6059 1.6561 13.9167 1.6561L 13.9167 2.1561ZM 15.1312 2.60273C 15.4234 2.88102 15.643 3.28983 15.7713 3.76769L 16.2542 3.63798C 16.109 3.09723 15.8517 2.59843 15.476 2.24065L 15.1312 2.60273ZM 15.7713 3.76769C 15.9 4.24655 15.9339 4.77319 15.8901 5.20895L 16.3876 5.25898C 16.4372 4.7654 16.3992 4.17773 16.2542 3.63798L 15.7713 3.76769ZM 15.8901 5.20895C 15.8689 5.42024 15.8216 5.61096 15.7699 5.76015C 15.7156 5.91672 15.6638 6.00662 15.6449 6.03002L 16.034 6.34402C 16.107 6.25352 16.1815 6.09923 16.2423 5.92392C 16.3056 5.74122 16.3621 5.51236 16.3876 5.25898L 15.8901 5.20895ZM 15.6438 6.0314C 15.5726 6.12087 15.5228 6.22539 15.4984 6.33707L 15.9868 6.44401C 15.9949 6.40718 16.0113 6.3725 16.0351 6.34263L 15.6438 6.0314ZM 15.4984 6.33707C 15.4739 6.44875 15.4755 6.5645 15.5029 6.67549L 15.9883 6.55558C 15.9793 6.51897 15.9788 6.48083 15.9868 6.44401L 15.4984 6.33707ZM 15.5029 6.67549C 15.5303 6.78647 15.5828 6.88964 15.6563 6.97719L 16.0393 6.65571C 16.0147 6.62646 15.9973 6.5922 15.9883 6.55558L 15.5029 6.67549ZM 15.6563 6.97719C 15.7298 7.06473 15.8223 7.13434 15.9267 7.1809L 16.1304 6.72427C 16.095 6.70847 16.0639 6.68497 16.0393 6.65571L 15.6563 6.97719ZM 16.1653 6.74332C 16.1717 6.74747 16.1778 6.75192 16.1836 6.75662C 16.1865 6.75897 16.1893 6.76137 16.1921 6.76382C 16.1934 6.76504 16.1948 6.76626 16.1961 6.76747C 16.1975 6.76882 16.1987 6.76996 16.1987 6.76991C 16.1985 6.76977 16.1981 6.76932 16.1977 6.769C 16.197 6.76831 16.1932 6.76479 16.19 6.76201C 15.8565 6.76664 15.8342 7.11103 15.8446 7.12274C 15.8459 7.12407 15.8476 7.12583 15.848 7.12626C 15.8484 7.1267 15.8495 7.12774 15.8487 7.12696C 15.8483 7.12657 15.8478 7.12605 15.8472 7.12545C 15.8461 7.12427 15.8449 7.12306 15.8438 7.12184C 15.8415 7.11941 15.8393 7.11703 15.8373 7.11472C 15.8333 7.11011 15.83 7.10582 15.8271 7.10198C 15.816 7.08701 15.8127 7.07811 15.8144 7.08196L 16.2742 6.8857C 16.2609 6.85452 16.2461 6.82763 16.2291 6.8046C 16.2247 6.79875 16.2202 6.79307 16.2155 6.78757C 16.2131 6.78482 16.2106 6.78213 16.2082 6.7795C 16.2069 6.77818 16.2057 6.77691 16.2045 6.77568C 16.2039 6.77505 16.2034 6.77452 16.203 6.77412C 16.2022 6.77333 16.2032 6.77437 16.2037 6.77481C 16.2041 6.77524 16.2058 6.777 16.2071 6.77833C 16.2175 6.79004 16.1952 7.13443 15.8616 7.13906C 15.8585 7.13628 15.8547 7.13276 15.854 7.13208C 15.8536 7.13175 15.8531 7.1313 15.853 7.13116C 15.853 7.13112 15.8542 7.13229 15.8557 7.1337C 15.857 7.13496 15.8585 7.13626 15.86 7.13759C 15.8629 7.14023 15.8661 7.14292 15.8695 7.14563C 15.8762 7.15105 15.8836 7.15651 15.8918 7.16184L 16.1653 6.74332ZM 15.8144 7.08196C 15.8233 7.10299 15.851 7.20572 15.842 7.35979L 16.3411 7.38906C 16.3535 7.17816 16.3207 6.99452 16.2742 6.8857L 15.8144 7.08196ZM 15.8444 7.33694C 15.8418 7.35403 15.8404 7.3724 15.8411 7.39203C 15.8417 7.41095 15.8442 7.42619 15.8445 7.42794C 15.8448 7.43015 15.8428 7.4184 15.8424 7.40377C 15.8419 7.38831 15.8432 7.37519 15.8448 7.3654L 16.3383 7.44595C 16.3411 7.42859 16.3428 7.40973 16.3422 7.38943C 16.3416 7.36997 16.339 7.35428 16.3388 7.35252C 16.3384 7.35031 16.3403 7.36155 16.3408 7.37551C 16.3413 7.39018 16.3402 7.40263 16.3388 7.41191L 15.8444 7.33694ZM 15.8449 7.36504C 15.781 7.75328 15.6721 7.95721 15.6243 8.02041L 16.023 8.32207C 16.1348 8.17433 16.2659 7.88578 16.3383 7.4463L 15.8449 7.36504ZM 15.6243 8.02041C 15.6139 8.03411 15.6076 8.03972 15.6066 8.04056C 15.6061 8.04104 15.6058 8.04123 15.6053 8.0416C 15.6045 8.04222 15.6045 8.04224 15.6017 8.04424C 15.6007 8.04496 15.5986 8.04651 15.5962 8.0483C 15.594 8.04995 15.5895 8.05334 15.5843 8.05775L 15.9054 8.44097C 15.8985 8.44681 15.8924 8.45104 15.8954 8.44888C 15.8958 8.44858 15.8996 8.44583 15.9033 8.44312C 15.9118 8.43684 15.923 8.42812 15.9361 8.41664C 15.9625 8.39354 15.9921 8.36302 16.023 8.32207L 15.6243 8.02041ZM 15.7234 8.00028C 15.5517 8.01505 15.3899 8.08794 15.2653 8.20719L 15.611 8.56839C 15.6528 8.52835 15.7076 8.50348 15.7663 8.49844L 15.7234 8.00028ZM 15.2653 8.20719C 15.1406 8.32648 15.0608 8.48496 15.0397 8.65623L 15.536 8.71742C 15.5429 8.66105 15.5692 8.60839 15.611 8.56839L 15.2653 8.20719ZM 15.0394 8.65898C 15.0011 9.00098 14.864 9.46148 14.6988 9.81537L 15.1519 10.0268C 15.3361 9.63209 15.491 9.11908 15.5363 8.71467L 15.0394 8.65898ZM 14.6988 9.81537C 14.62 9.9843 14.526 10.1291 14.4548 10.2278L 14.8601 10.5205C 14.9439 10.4046 15.056 10.2322 15.1519 10.0268L 14.6988 9.81537ZM 14.4548 10.2278C 14.4367 10.2529 14.4176 10.2733 14.4015 10.2892C 14.3975 10.2932 14.3937 10.2969 14.3896 10.3008C 14.3864 10.3039 14.3808 10.3094 14.376 10.3141C 14.375 10.3151 14.3589 10.3307 14.3444 10.3508C 14.3399 10.3571 14.332 10.3687 14.3241 10.3842C 14.3176 10.3968 14.3019 10.4295 14.2976 10.4748C 14.2926 10.5271 14.303 10.61 14.3712 10.6771C 14.4302 10.7352 14.4976 10.7457 14.5245 10.7482L 14.5697 10.2502C 14.5962 10.2526 14.6632 10.263 14.722 10.3208C 14.79 10.3878 14.8003 10.4704 14.7954 10.5223C 14.7911 10.5672 14.7755 10.5995 14.7694 10.6115C 14.7617 10.6265 14.7542 10.6374 14.7502 10.643C 14.7422 10.6541 14.7352 10.6617 14.7337 10.6633C 14.7324 10.6647 14.7315 10.6657 14.7309 10.6663C 14.7304 10.6669 14.73 10.6672 14.73 10.6672C 14.73 10.6673 14.7301 10.6671 14.7305 10.6668C 14.7308 10.6664 14.7313 10.666 14.7319 10.6653C 14.7333 10.664 14.7349 10.6625 14.7371 10.6603C 14.7414 10.6562 14.7472 10.6506 14.7538 10.6441C 14.7802 10.6178 14.8201 10.576 14.8601 10.5205L 14.4548 10.2278ZM 14.4308 10.2779C 14.3073 10.3428 14.2042 10.4407 14.1331 10.5608L 14.5635 10.8153C 14.5871 10.7754 14.6217 10.7424 14.6635 10.7205L 14.4308 10.2779ZM 14.1331 10.5608C 14.0621 10.6809 14.0261 10.8185 14.0293 10.958L 14.5292 10.9465C 14.5281 10.9006 14.5399 10.8552 14.5635 10.8153L 14.1331 10.5608ZM 14.0292 10.9523C 14.0292 11.6012 14.025 12.1321 14.0771 12.9064L 14.5759 12.8728C 14.5252 12.1178 14.5292 11.6032 14.5292 10.9523L 14.0292 10.9523ZM 14.0772 12.9083C 14.0826 12.9807 14.0986 13.0519 14.1246 13.1197L 14.5914 12.9407C 14.5828 12.9183 14.5776 12.8948 14.5758 12.8709L 14.0772 12.9083ZM 14.1247 13.1199C 14.4302 13.9151 15.1125 14.3737 15.7922 14.7076L 16.0127 14.2589C 15.3625 13.9394 14.8268 13.5533 14.5914 12.9406L 14.1247 13.1199ZM 15.7922 14.7076C 16.1351 14.8761 16.4984 15.0219 16.8593 15.162C 17.2232 15.3033 17.5822 15.4379 17.9313 15.5879L 18.1287 15.1285C 17.7689 14.9739 17.3966 14.8343 17.0403 14.6959C 16.6808 14.5564 16.3348 14.4171 16.0127 14.2589L 15.7922 14.7076ZM 17.9313 15.5879C 18.6295 15.8879 19.2536 16.2388 19.6954 16.6894L 20.0524 16.3393C 19.5428 15.8196 18.8483 15.4377 18.1287 15.1285L 17.9313 15.5879ZM 19.6954 16.6894C 20.0196 17.02 20.2289 17.4675 20.3544 18.0511L 20.8432 17.946C 20.7052 17.3038 20.4635 16.7586 20.0524 16.3393L 19.6954 16.6894ZM 20.5988 17.7486L 4.61856 17.7486L 4.61856 18.2486L 20.5988 18.2486L 20.5988 17.7486ZM 4.86297 18.0511C 4.98847 17.4675 5.19779 17.02 5.522 16.6894L 5.165 16.3393C 4.75387 16.7586 4.51223 17.3038 4.37414 17.946L 4.86297 18.0511ZM 5.522 16.6894C 5.96382 16.2388 6.58791 15.8879 7.28609 15.5879L 7.08867 15.1285C 6.36906 15.4377 5.67457 15.8196 5.165 16.3393L 5.522 16.6894ZM 7.28609 15.5879C 7.63516 15.4379 7.99418 15.3033 8.35809 15.162C 8.71898 15.0219 9.08227 14.8761 9.42516 14.7076L 9.2047 14.2589C 8.88258 14.4171 8.53654 14.5564 8.17714 14.6959C 7.82075 14.8343 7.44849 14.9739 7.08867 15.1285L 7.28609 15.5879ZM 9.42516 14.7076C 10.1049 14.3737 10.7872 13.9151 11.0927 13.1199L 10.626 12.9406C 10.3906 13.5533 9.85494 13.9394 9.2047 14.2589L 9.42516 14.7076ZM 11.0928 13.1197C 11.1188 13.0519 11.1348 12.9807 11.1402 12.9083L 10.6416 12.8709C 10.6398 12.8948 10.6345 12.9183 10.6259 12.9407L 11.0928 13.1197ZM 11.1402 12.9076C 11.1928 12.1785 11.1882 11.6003 11.1882 10.9523L 10.6882 10.9523C 10.6882 11.6042 10.6925 12.1638 10.6415 12.8717L 11.1402 12.9076ZM 11.1881 10.958C 11.1913 10.8185 11.1553 10.6809 11.0842 10.5608L 10.6539 10.8153C 10.6775 10.8552 10.6893 10.9006 10.6882 10.9465L 11.1881 10.958ZM 11.0842 10.5608C 11.0132 10.4407 10.9101 10.3428 10.7866 10.2779L 10.5539 10.7205C 10.5957 10.7424 10.6303 10.7754 10.6539 10.8153L 11.0842 10.5608ZM 10.8402 10.6825C 10.9097 10.6181 10.9215 10.5378 10.9202 10.4918C 10.919 10.4493 10.9072 10.4176 10.9017 10.4042C 10.8902 10.3759 10.8759 10.3563 10.8718 10.3506C 10.8606 10.3352 10.8498 10.324 10.8452 10.3194C 10.8339 10.3078 10.8221 10.2976 10.8119 10.2893L 10.4971 10.6778C 10.4971 10.6778 10.4969 10.6777 10.4967 10.6774C 10.4964 10.6772 10.4959 10.6768 10.4953 10.6762C 10.4942 10.6753 10.4918 10.673 10.4883 10.6696C 10.4864 10.6676 10.4776 10.6586 10.4676 10.6449C 10.464 10.64 10.4501 10.621 10.4388 10.5931C 10.4334 10.58 10.4216 10.5485 10.4204 10.5062C 10.4191 10.4603 10.4309 10.3802 10.5003 10.3159L 10.8402 10.6825ZM 10.7499 10.2525C 10.7217 10.2408 10.6947 10.2356 10.6713 10.2339C 10.6488 10.2322 10.6302 10.2339 10.6181 10.2355C 10.612 10.2363 10.6068 10.2372 10.603 10.238C 10.5992 10.2387 10.5961 10.2394 10.5943 10.2398C 10.5934 10.24 10.5926 10.2402 10.5921 10.2403C 10.5919 10.2403 10.5917 10.2404 10.5916 10.2404C 10.5915 10.2404 10.5914 10.2404 10.5914 10.2405C 10.5913 10.2405 10.5913 10.2405 10.5913 10.2405C 10.591 10.2405 10.592 10.2403 10.5933 10.24C 10.5983 10.2389 10.6184 10.2344 10.6448 10.2346C 10.6585 10.2346 10.6736 10.2359 10.6897 10.2391C 10.7058 10.2423 10.7215 10.2471 10.7365 10.2535L 10.541 10.7136C 10.5577 10.7208 10.5751 10.7261 10.5928 10.7296C 10.6105 10.7331 10.6271 10.7345 10.6423 10.7346C 10.6717 10.7347 10.6945 10.7297 10.7021 10.7281C 10.704 10.7276 10.7057 10.7272 10.706 10.7271C 10.7068 10.727 10.7058 10.7272 10.7048 10.7274C 10.7036 10.7277 10.7012 10.7282 10.6979 10.7289C 10.6947 10.7295 10.6901 10.7303 10.6845 10.7311C 10.6736 10.7325 10.6561 10.7341 10.6346 10.7325C 10.6122 10.7309 10.5863 10.7259 10.5591 10.7147L 10.7499 10.2525ZM 10.7976 10.2905C 10.8025 10.2946 10.8038 10.2963 10.8006 10.2929C 10.7979 10.2901 10.7937 10.2854 10.7876 10.2783C 10.7753 10.2637 10.7601 10.2447 10.7416 10.2209L 10.3467 10.5275C 10.3779 10.5677 10.4306 10.636 10.4799 10.6766L 10.7976 10.2905ZM 10.7417 10.2209C 10.6694 10.1277 10.5682 9.97595 10.4837 9.80852L 10.0373 10.0337C 10.1372 10.2317 10.256 10.4107 10.3467 10.5275L 10.7417 10.2209ZM 10.4837 9.80852C 10.3099 9.46381 10.1686 9.03125 10.1309 8.67605L 9.63368 8.72884C 9.67908 9.15646 9.84247 9.6474 10.0373 10.0337L 10.4837 9.80852ZM 10.1308 8.6751C 10.1131 8.51423 10.0436 8.36363 9.93295 8.24553L 9.56802 8.58734C 9.60504 8.62686 9.62795 8.67685 9.63378 8.72979L 10.1308 8.6751ZM 9.93295 8.24553C 9.82237 8.12748 9.67665 8.04821 9.51757 8.01907L 9.42749 8.51089C 9.48175 8.52083 9.53098 8.54779 9.56802 8.58734L 9.93295 8.24553ZM 9.52115 8.01975C 9.51401 8.01834 9.50786 8.01739 9.50463 8.0169C 9.50167 8.01645 9.49766 8.01588 9.4967 8.01574C 9.49321 8.01524 9.49263 8.01512 9.49269 8.01513C 9.49365 8.01532 9.49671 8.01603 9.50019 8.01751C 9.5096 8.02151 9.5039 8.02289 9.48784 8.00198C 9.44887 7.95126 9.36907 7.79498 9.32727 7.38058L 8.8298 7.43076C 8.87478 7.87673 8.96735 8.14522 9.09136 8.30662C 9.15679 8.39177 9.23023 8.44605 9.30457 8.47765C 9.36876 8.50494 9.44796 8.51498 9.42391 8.51021L 9.52115 8.01975ZM 9.32749 7.38284C 9.31387 7.23431 9.34343 7.15796 9.35845 7.1288C 9.36653 7.11311 9.37284 7.10635 9.37267 7.10655C 9.37254 7.10668 9.37121 7.10809 9.36838 7.11057C 9.36773 7.11114 9.36721 7.11158 9.36708 7.11169C 9.36103 7.11682 9.37183 7.10788 9.37932 7.10069C 9.38105 7.09903 9.387 7.09332 9.39396 7.0854C 9.39779 7.08095 9.40734 7.06883 9.41287 7.06104C 9.42222 7.04623 9.4451 6.99418 9.45375 6.95573C 9.44924 6.86132 9.33885 6.70828 9.24741 6.67365C 9.2062 6.67024 9.14714 6.67734 9.12962 6.68229C 9.10602 6.68989 9.0886 6.69967 9.08773 6.70013C 9.07921 6.70472 9.07265 6.70894 9.07231 6.70916C 9.07043 6.71035 9.06897 6.71131 9.06847 6.71164C 9.06784 6.71206 9.06732 6.7124 9.06713 6.71253C 9.06701 6.71261 9.0669 6.71268 9.06684 6.71273C 9.06673 6.7128 9.06675 6.71278 9.06668 6.71283C 9.06656 6.71291 9.06664 6.71286 9.06677 6.71277L 9.34246 7.1299C 9.34324 7.12938 9.34387 7.12896 9.3442 7.12874C 9.34491 7.12827 9.34418 7.12876 9.3435 7.1292C 9.34314 7.12944 9.34178 7.13033 9.34 7.13147C 9.33974 7.13163 9.33325 7.13581 9.32477 7.14038C 9.32393 7.14083 9.30652 7.1506 9.28293 7.1582C 9.26541 7.16315 9.20636 7.17024 9.16515 7.16684C 9.07372 7.1322 8.96333 6.97917 8.95881 6.88476C 8.96747 6.84631 8.99034 6.79427 8.99969 6.77946C 9.00522 6.77167 9.01476 6.75956 9.01858 6.75512C 9.02554 6.74721 9.03147 6.74152 9.03318 6.73988C 9.04049 6.73286 9.05076 6.72436 9.04387 6.7302C 9.04289 6.73103 9.0412 6.73247 9.0391 6.73431C 9.03043 6.74189 9.01857 6.75295 9.00486 6.76785C 8.97749 6.79757 8.94438 6.84076 8.91394 6.89987C 8.8519 7.02034 8.80799 7.19305 8.82958 7.4285L 9.32749 7.38284ZM 9.33838 7.13254C 9.49054 7.03616 9.60326 6.88852 9.65545 6.71606L 9.17688 6.57125C 9.15965 6.62816 9.12224 6.67758 9.07084 6.71013L 9.33838 7.13254ZM 9.65545 6.71606C 9.70764 6.54357 9.69565 6.35821 9.62174 6.19385L 9.16572 6.39891C 9.19017 6.45328 9.19409 6.51437 9.17688 6.57125L 9.65545 6.71606ZM 9.62254 6.19567C 9.31672 5.50085 9.22291 4.78777 9.32553 4.13209L 8.83154 4.05477C 8.71306 4.81179 8.82345 5.62133 9.16491 6.3971L 9.62254 6.19567ZM 9.26388 4.2612C 9.34882 4.16736 9.40867 4.0536 9.43768 3.93037L 8.95097 3.81582C 8.94141 3.85646 8.92161 3.89427 8.89319 3.92566L 9.26388 4.2612ZM 9.43768 3.93037C 9.46668 3.80714 9.46385 3.67863 9.42945 3.55679L 8.94826 3.69264C 8.95961 3.73284 8.96054 3.77519 8.95097 3.81582L 9.43768 3.93037ZM 9.4281 3.69724C 9.51556 3.40874 9.63924 3.14008 9.80676 2.88825L 9.39045 2.61132C 9.19423 2.9063 9.05035 3.21985 8.9496 3.55219L 9.4281 3.69724ZM 9.80676 2.88825C 10.381 2.02505 11.4807 1.36114 13.2034 1.2809L 13.1802 0.78144C 11.3357 0.867347 10.0716 1.58737 9.39045 2.61132L 9.80676 2.88825ZM 18.3228 3.65079L 18.4804 3.99452L 18.9349 3.78613L 18.7773 3.4424L 18.3228 3.65079ZM 18.4762 3.98473C 18.5318 4.12103 18.6263 4.23782 18.7478 4.32089L 19.03 3.90814C 18.989 3.88011 18.9576 3.84101 18.9392 3.79591L 18.4762 3.98473ZM 18.7478 4.32089C 18.8693 4.40393 19.0124 4.44969 19.1595 4.45274L 19.1699 3.95285C 19.1197 3.95181 19.071 3.93618 19.03 3.90814L 18.7478 4.32089ZM 19.1647 4.4528C 19.5513 4.4528 19.7671 4.56327 19.9525 4.74209L 20.2996 4.3822C 20.0186 4.1112 19.6774 3.9528 19.1647 3.9528L 19.1647 4.4528ZM 19.9525 4.74209C 20.1431 4.92593 20.2968 5.21382 20.3886 5.56312L 20.8721 5.43602C 20.7649 5.028 20.5754 4.64817 20.2996 4.3822L 19.9525 4.74209ZM 20.3886 5.56312C 20.4806 5.91318 20.5076 6.29575 20.4761 6.61559L 20.9737 6.66463C 21.0111 6.28551 20.9792 5.84329 20.8721 5.43602L 20.3886 5.56312ZM 20.4761 6.61559C 20.4609 6.76988 20.427 6.91057 20.3914 7.01918C 20.3527 7.13762 20.3204 7.19275 20.3207 7.19235L 20.7194 7.49401C 20.7717 7.42494 20.8246 7.30328 20.8666 7.17471C 20.9119 7.03632 20.9545 6.85982 20.9737 6.66462L 20.4761 6.61559ZM 20.3225 7.19C 20.2573 7.27399 20.2108 7.37084 20.1861 7.4742L 20.6723 7.59062C 20.6805 7.55652 20.6959 7.52438 20.7176 7.49636L 20.3225 7.19ZM 20.1861 7.4742C 20.1613 7.57756 20.1589 7.68498 20.1791 7.78934L 20.67 7.69451C 20.6634 7.66011 20.6642 7.62471 20.6723 7.59062L 20.1861 7.4742ZM 20.1791 7.78934C 20.1993 7.89369 20.2415 7.9925 20.3028 8.07927L 20.7111 7.79057C 20.6906 7.76166 20.6767 7.72891 20.67 7.69451L 20.1791 7.78934ZM 20.3028 8.07927C 20.3642 8.16603 20.4433 8.23876 20.5348 8.29278L 20.789 7.86221C 20.758 7.84395 20.7315 7.81949 20.7111 7.79057L 20.3028 8.07927ZM 20.4285 8.16718C 20.4258 8.16022 20.4304 8.17045 20.4329 8.20127C 20.4352 8.22919 20.4352 8.26701 20.4296 8.31182L 20.9257 8.37438C 20.9446 8.22397 20.9317 8.08262 20.8952 7.98781L 20.4285 8.16718ZM 20.4296 8.31182C 20.4095 8.47123 20.3825 8.5839 20.3588 8.65825C 20.3333 8.73778 20.3152 8.76192 20.3207 8.75472L 20.7194 9.05639C 20.7977 8.95293 20.8806 8.73169 20.9257 8.37437L 20.4296 8.31182ZM 20.49 8.65737C 20.3188 8.67812 20.1596 8.75659 20.0393 8.88014L 20.3975 9.22899C 20.4378 9.18756 20.4917 9.16082 20.5501 9.15374L 20.49 8.65737ZM 20.0393 8.88014C 19.9189 9.00373 19.8448 9.16494 19.8297 9.33685L 20.3278 9.38044C 20.3328 9.32389 20.3572 9.27038 20.3975 9.22899L 20.0393 8.88014ZM 19.8294 9.34068C 19.814 9.55486 19.7089 9.88105 19.585 10.142L 20.0367 10.3564C 20.1732 10.0687 20.3064 9.67843 20.3281 9.37661L 19.8294 9.34068ZM 19.585 10.142C 19.526 10.2663 19.4669 10.363 19.4174 10.4332L 19.826 10.7214C 19.892 10.6279 19.9655 10.5064 20.0367 10.3564L 19.585 10.142ZM 19.4174 10.4332C 19.3992 10.4591 19.3818 10.4816 19.3658 10.5024C 19.3594 10.5109 19.3493 10.5241 19.3411 10.5361C 19.3383 10.5402 19.3278 10.5553 19.3184 10.5748C 19.3151 10.5815 19.3011 10.61 19.2953 10.6493C 19.2911 10.6777 19.2782 10.8319 19.4288 10.9091L 19.657 10.4642C 19.7221 10.4976 19.7633 10.5541 19.7813 10.6118C 19.7967 10.6611 19.7929 10.7026 19.79 10.7222C 19.7843 10.7606 19.7708 10.7878 19.7683 10.7929C 19.7636 10.8027 19.7593 10.8097 19.7576 10.8124C 19.7556 10.8156 19.7541 10.8178 19.7537 10.8185C 19.7531 10.8194 19.7548 10.8169 19.7632 10.8059C 19.7769 10.788 19.801 10.7569 19.826 10.7214L 19.4174 10.4332ZM 19.4032 10.4794C 19.303 10.5469 19.2205 10.6376 19.1628 10.7437L 19.6022 10.9824C 19.6214 10.9471 19.6489 10.9167 19.6827 10.8939L 19.4032 10.4794ZM 19.1628 10.7437C 19.1052 10.8499 19.0741 10.9684 19.0723 11.0892L 19.5723 11.0965C 19.5729 11.0568 19.5831 11.0176 19.6022 10.9824L 19.1628 10.7437ZM 19.0723 11.0929C 19.0723 11.6402 19.067 12.0772 19.1206 12.6625L 19.6185 12.6168C 19.5674 12.0586 19.5723 11.6455 19.5723 11.0929L 19.0723 11.0929ZM 19.1213 12.6688C 19.1288 12.7332 19.1448 12.7964 19.1687 12.8567L 19.6335 12.6726C 19.6256 12.6526 19.6204 12.6317 19.6179 12.6105L 19.1213 12.6688ZM 19.1664 12.8507C 19.4136 13.5248 19.9647 13.9303 20.5003 14.2056L 20.7289 13.7609C 20.2367 13.5079 19.8192 13.1785 19.6358 12.6785L 19.1664 12.8507ZM 20.5003 14.2056C 20.7687 14.3436 21.0517 14.4603 21.328 14.57C 21.6078 14.6812 21.8775 14.784 22.1362 14.8991L 22.3395 14.4423C 22.0685 14.3218 21.7835 14.213 21.5126 14.1054C 21.2382 13.9964 20.9744 13.8871 20.7289 13.7609L 20.5003 14.2056ZM 22.1362 14.8991C 22.6541 15.1296 23.1015 15.3944 23.4128 15.7188L 23.7735 15.3726C 23.3967 14.9798 22.8809 14.6833 22.3395 14.4423L 22.1362 14.8991ZM 23.4128 15.7188C 23.6163 15.9309 23.7593 16.2057 23.8561 16.564L 24.3388 16.4334C 24.2262 16.0171 24.0496 15.6602 23.7735 15.3726L 23.4128 15.7188ZM 24.0975 16.2487L 21.1819 16.2487L 21.1819 16.7487L 24.0975 16.7487L 24.0975 16.2487ZM 21.1936 16.249C 21.1701 16.2479 21.1465 16.2479 21.123 16.249L 21.1463 16.7484C 21.1543 16.7481 21.1623 16.7481 21.1703 16.7484L 21.1936 16.249ZM 21.3478 16.3681C 21.181 16.0959 20.9913 15.8544 20.7773 15.6362L 20.4203 15.9863C 20.6081 16.1778 20.7745 16.3895 20.9215 16.6293L 21.3478 16.3681ZM 20.7773 15.6362C 20.1195 14.9654 19.3062 14.5522 18.5385 14.2223L 18.3411 14.6817C 19.0931 15.0049 19.8327 15.387 20.4203 15.9863L 20.7773 15.6362ZM 18.5385 14.2223C 18.1538 14.057 17.7716 13.9105 17.4206 13.7726C 17.0667 13.6336 16.7454 13.5037 16.4697 13.3683L 16.2493 13.8171C 16.5457 13.9627 16.8846 14.0993 17.2378 14.238C 17.5939 14.3779 17.9658 14.5204 18.3411 14.6817L 18.5385 14.2223ZM 16.4697 13.3683C 15.9389 13.1075 15.6729 12.8515 15.5643 12.6023L 15.1059 12.802C 15.2844 13.2116 15.6773 13.5361 16.2493 13.8171L 16.4697 13.3683ZM 15.5846 12.6867C 15.5478 12.0928 15.5382 11.6483 15.5378 11.124L 15.0378 11.1243C 15.0382 11.6566 15.048 12.1115 15.0856 12.7176L 15.5846 12.6867ZM 15.4754 11.2895C 15.4827 11.2811 15.4942 11.2721 15.5381 11.2378C 15.5713 11.2118 15.632 11.1645 15.6796 11.0986L 15.2743 10.8059C 15.275 10.8049 15.2732 10.8076 15.2653 10.8149C 15.2572 10.8223 15.2467 10.8309 15.2302 10.8438C 15.205 10.8635 15.1462 10.9067 15.1003 10.9588L 15.4754 11.2895ZM 15.6796 11.0986C 15.8153 10.9107 15.9497 10.6979 16.066 10.4487L 15.6129 10.2372C 15.5131 10.4511 15.3965 10.6367 15.2743 10.8059L 15.6796 11.0986ZM 16.066 10.4487C 16.2694 10.0127 16.3864 9.51305 16.4643 9.03994L 15.971 8.95865C 15.896 9.41401 15.7881 9.86179 15.6129 10.2372L 16.066 10.4487ZM 16.3457 9.21402C 16.3886 9.18843 16.417 9.18522 16.5215 9.14625C 16.6104 9.11311 16.7311 9.05782 16.8268 8.9314L 16.428 8.62973C 16.4171 8.6442 16.4018 8.65726 16.3468 8.67776C 16.3326 8.68306 16.3175 8.68826 16.299 8.69456C 16.2815 8.70052 16.2603 8.7077 16.239 8.7155C 16.1959 8.73122 16.1433 8.75258 16.0896 8.78458L 16.3457 9.21402ZM 16.8268 8.9314C 17.0804 8.59622 17.2436 8.14969 17.3316 7.56806L 16.8372 7.49326C 16.7566 8.02599 16.6142 8.38363 16.428 8.62973L 16.8268 8.9314ZM 17.3036 7.65101C 17.312 7.63565 17.3199 7.62 17.3272 7.60408L 16.8732 7.39475C 16.8707 7.40002 16.8681 7.40521 16.8653 7.41032L 17.3036 7.65101ZM 17.3491 7.52225C 17.3841 7.14108 17.3308 6.79207 17.2041 6.49511L 16.7442 6.69136C 16.835 6.90424 16.8794 7.16903 16.8512 7.47658L 17.3491 7.52225ZM 17.2041 6.49511C 17.178 6.4341 17.1391 6.39194 17.1076 6.36443C 17.0779 6.33851 17.0471 6.31928 17.0318 6.30968C 17.0219 6.30348 17.0171 6.30053 17.0115 6.2969C 17.0092 6.29538 17.0076 6.29427 17.0064 6.29346C 17.0052 6.29265 17.0047 6.29228 17.0048 6.29231C 17.0048 6.29233 17.0055 6.29288 17.0067 6.29393C 17.0079 6.29498 17.0098 6.29666 17.012 6.29898C 17.0165 6.30362 17.023 6.3111 17.0294 6.32161L 16.6036 6.58363C 16.6347 6.63411 16.673 6.66802 16.7009 6.68934C 16.7268 6.70922 16.7554 6.72648 16.766 6.73315C 16.7821 6.74327 16.7821 6.744 16.7788 6.74109C 16.7736 6.73659 16.7566 6.72048 16.7442 6.69137L 17.2041 6.49511ZM 17.0403 6.56402C 17.218 6.2071 17.3345 5.80934 17.3805 5.35273L 16.883 5.30269C 16.8428 5.70225 16.7421 6.04109 16.5927 6.34122L 17.0403 6.56402ZM 17.3805 5.35273C 17.4331 4.82946 17.4159 4.25916 17.2978 3.68383L 16.808 3.78434C 16.9151 4.30595 16.931 4.82524 16.883 5.30269L 17.3805 5.35273ZM 17.1183 3.97538C 17.5432 3.86021 18.0507 3.81656 18.56 3.7964L 18.5402 3.29679C 18.0234 3.31725 17.4693 3.36222 16.9875 3.49279L 17.1183 3.97538ZM 7.26558 3.67865L 7.45469 4.038L 7.89716 3.80514L 7.70805 3.44579L 7.26558 3.67865ZM 7.45004 4.02869C 7.50272 4.13977 7.58194 4.23612 7.68058 4.30946L 7.97891 3.90822C 7.94568 3.88351 7.91927 3.85126 7.90181 3.81445L 7.45004 4.02869ZM 7.68058 4.30946C 7.77921 4.3828 7.89429 4.43093 8.01572 4.44982L 8.0926 3.95577C 8.05118 3.94933 8.01216 3.93294 7.97891 3.90822L 7.68058 4.30946ZM 7.80519 4.18013C 7.73524 4.94836 7.85535 5.73907 8.13496 6.49271L 8.60374 6.31879C 8.34724 5.62744 8.24066 4.91157 8.30313 4.22547L 7.80519 4.18013ZM 8.16813 6.2574C 7.94753 6.55662 7.7697 6.96315 7.82096 7.52224L 8.31887 7.47659C 8.2808 7.06136 8.40845 6.77402 8.57058 6.5541L 8.16813 6.2574ZM 7.82118 7.52451C 7.9176 8.48042 8.35926 8.96299 8.80912 9.22992L 9.06427 8.79992C 8.74391 8.60983 8.39836 8.26446 8.31866 7.47432L 7.82118 7.52451ZM 8.69026 9.05694C 8.77497 9.55386 8.92538 10.0632 9.13899 10.4868L 9.58543 10.2616C 9.39946 9.89289 9.26169 9.43366 9.18314 8.97291L 8.69026 9.05694ZM 9.13899 10.4868C 9.2608 10.7283 9.39706 10.9489 9.54297 11.1368L 9.93791 10.8302C 9.81501 10.6719 9.69534 10.4795 9.58543 10.2616L 9.13899 10.4868ZM 9.54297 11.1368C 9.59417 11.2028 9.65783 11.2467 9.69098 11.2697C 9.71165 11.2841 9.72275 11.2916 9.73418 11.3002C 9.74443 11.3079 9.74748 11.3111 9.74736 11.3109L 10.1118 10.9686C 10.0625 10.9162 10.0006 10.876 9.9764 10.8592C 9.94093 10.8345 9.93686 10.8288 9.93791 10.8302L 9.54297 11.1368ZM 9.67956 11.1396C 9.67913 11.6646 9.66892 12.1339 9.63281 12.6858L 10.1317 12.7185C 10.1687 12.1528 10.1791 11.6723 10.1796 11.14L 9.67956 11.1396ZM 9.65308 12.6023C 9.54452 12.8515 9.27848 13.1075 8.74767 13.3683L 8.96813 13.8171C 9.54009 13.5361 9.93302 13.2116 10.1115 12.802L 9.65308 12.6023ZM 8.74767 13.3683C 8.47197 13.5037 8.15073 13.6336 7.79679 13.7726C 7.44577 13.9105 7.06355 14.057 6.67892 14.2223L 6.87633 14.6817C 7.25161 14.5204 7.62347 14.3779 7.97958 14.238C 8.33276 14.0993 8.67171 13.9627 8.96813 13.8171L 8.74767 13.3683ZM 6.67892 14.2223C 5.91118 14.5522 5.09789 14.9654 4.44005 15.6362L 4.79706 15.9863C 5.38473 15.387 6.12427 15.0049 6.87633 14.6817L 6.67892 14.2223ZM 4.44005 15.6362C 4.2139 15.8669 4.01053 16.124 3.83617 16.4181L 4.26625 16.6731C 4.41843 16.4164 4.59653 16.1908 4.79706 15.9863L 4.44005 15.6362ZM 4.05508 16.2956C 4.04725 16.2955 4.03941 16.2955 4.03158 16.2956L 4.03932 16.7956C 4.04199 16.7955 4.04467 16.7955 4.04734 16.7956L 4.05508 16.2956ZM 4.03545 16.2956L 1.13568 16.2956L 1.13568 16.7956L 4.03545 16.7956L 4.03545 16.2956ZM 1.37682 16.6115C 1.4751 16.2523 1.61494 15.9773 1.81939 15.7666L 1.46058 15.4184C 1.18004 15.7075 1.00741 16.067 0.894535 16.4796L 1.37682 16.6115ZM 1.81939 15.7666C 2.13472 15.4417 2.58718 15.1772 3.11176 14.9464L 2.91039 14.4888C 2.36272 14.7297 1.84187 15.0256 1.46058 15.4184L 1.81939 15.7666ZM 3.11176 14.9464C 3.37456 14.8308 3.64366 14.7277 3.92196 14.6166C 4.19713 14.5067 4.47773 14.3904 4.74771 14.253L 4.52092 13.8074C 4.27229 13.9339 4.00934 14.0433 3.73657 14.1522C 3.46693 14.2599 3.18371 14.3685 2.91039 14.4888L 3.11176 14.9464ZM 4.74771 14.253C 5.28193 13.9811 5.84868 13.5937 6.09828 12.9132L 5.62886 12.741C 5.4463 13.2387 5.02392 13.5513 4.52092 13.8074L 4.74771 14.253ZM 6.097 12.9166C 6.123 12.8488 6.13897 12.7776 6.14439 12.7052L 5.64579 12.6678C 5.644 12.6917 5.63874 12.7152 5.63014 12.7376L 6.097 12.9166ZM 6.14421 12.7075C 6.19687 12.081 6.20813 11.661 6.20813 11.1554L 5.70813 11.1554C 5.70813 11.6497 5.69725 12.0555 5.64597 12.6656L 6.14421 12.7075ZM 6.20803 11.1623C 6.21166 11.0314 6.18075 10.9019 6.11848 10.7867L 5.6786 11.0244C 5.69926 11.0626 5.70942 11.1054 5.70822 11.1484L 6.20803 11.1623ZM 6.11848 10.7867C 6.05623 10.6715 5.96486 10.5746 5.85364 10.5055L 5.58983 10.9303C 5.62741 10.9536 5.65793 10.9861 5.6786 11.0244L 6.11848 10.7867ZM 5.90676 10.5498C 5.88505 10.5259 5.86529 10.5056 5.84704 10.4798L 5.43883 10.7685C 5.47943 10.8259 5.52663 10.875 5.53671 10.886L 5.90676 10.5498ZM 5.84702 10.4798C 5.79309 10.4035 5.72396 10.2971 5.663 10.1714L 5.21311 10.3895C 5.2898 10.5477 5.37504 10.6784 5.43885 10.7686L 5.84702 10.4798ZM 5.663 10.1714C 5.5345 9.90638 5.42281 9.56485 5.38639 9.29407L 4.89086 9.36072C 4.9357 9.69417 5.06633 10.0869 5.21311 10.3895L 5.663 10.1714ZM 5.38575 9.28962C 5.36078 9.12621 5.28226 8.97588 5.16281 8.86168L 4.8173 9.2231C 4.85736 9.26139 4.88327 9.31137 4.8915 9.36518L 5.38575 9.28962ZM 5.16281 8.86168C 5.04339 8.74751 4.88969 8.67579 4.72556 8.65715L 4.66915 9.15396C 4.72518 9.16032 4.77721 9.18477 4.8173 9.2231L 5.16281 8.86168ZM 4.89673 8.75472C 4.90217 8.76192 4.88407 8.73778 4.85863 8.65825C 4.83485 8.5839 4.80789 8.47123 4.7878 8.31182L 4.29172 8.37437C 4.33678 8.73169 4.41972 8.95293 4.49798 9.05639L 4.89673 8.75472ZM 4.7882 8.31525C 4.78272 8.2663 4.78554 8.23407 4.78881 8.21519C 4.79195 8.197 4.79627 8.18667 4.79892 8.18083L 4.34363 7.97416C 4.30818 8.05226 4.26983 8.17928 4.29131 8.37094L 4.7882 8.31525ZM 4.71105 8.28477C 4.85917 8.1849 4.96706 8.03567 5.01483 7.86346L 4.53303 7.72981C 4.51727 7.78662 4.48149 7.83651 4.43151 7.87022L 4.71105 8.28477ZM 5.01483 7.86346C 5.06261 7.69122 5.04696 7.50774 4.97081 7.34604L 4.51846 7.55905C 4.54366 7.61257 4.54877 7.67304 4.53303 7.72981L 5.01483 7.86346ZM 4.97298 7.35077C 4.58609 6.48273 4.66025 5.59712 5.09551 4.93363L 4.67744 4.65937C 4.14009 5.4785 4.06685 6.54595 4.51629 7.55432L 4.97298 7.35077ZM 5.09551 4.93363C 5.48748 4.33611 6.26859 3.88614 7.50186 3.81177L 7.47176 3.31268C 6.13455 3.39331 5.18174 3.89062 4.67744 4.65937L 5.09551 4.93363Z"/>
</defs>
</svg>
