<svg width="26" height="19" viewBox="0 0 26 19" version="1.1" xmlns="http://www.w3.org/2000/svg" xmlns:xlink="http://www.w3.org/1999/xlink">
<title>Vector</title>
<desc>Created using Figma</desc>
<g id="Canvas" transform="translate(279 -8137)">
<g id="Vector">
<use xlink:href="#path0_fill" transform="translate(-279 8137)" fill="url(#paint0_linear)"/>
</g>
</g>
<defs>
<linearGradient id="paint0_linear" x1="0" y1="0" x2="1" y2="0" gradientUnits="userSpaceOnUse" gradientTransform="matrix(1.54412e-15 18.9985 -25.2174 1.16332e-15 25.2174 -1.16332e-15)">
<stop offset="0" stop-color="#361FB2"/>
<stop offset="1" stop-color="#2768C9"/>
</linearGradient>
<path id="path0_fill" d="M 13.5228 0C 11.2746 0 9.63301 0.879945 8.76334 2.18733C 8.58506 2.45535 8.44939 2.7355 8.33783 3.03101L 8.21176 2.78103C 8.1713 2.69854 8.10873 2.62867 8.0309 2.57907C 7.95307 2.52947 7.86298 2.50205 7.77049 2.4998C 6.02537 2.4998 4.72167 3.20362 4.03545 4.24967C 3.40927 5.20421 3.3711 6.40632 3.76754 7.53066C 3.73606 7.58232 3.66968 7.6091 3.64146 7.67128C 3.54686 7.87968 3.49664 8.14467 3.53114 8.45247C 3.53106 8.45767 3.53106 8.46288 3.53114 8.46809C 3.58863 8.92403 3.70483 9.24972 3.89361 9.49926C 3.97384 9.6053 4.10222 9.60481 4.20881 9.67112C 4.28328 10.0419 4.39102 10.4112 4.53976 10.7179C 4.62853 10.901 4.72313 11.0605 4.82343 11.2023C 4.85756 11.2505 4.91428 11.2835 4.94951 11.3272C 4.94899 11.7107 4.93594 12.0532 4.90223 12.499C 4.81104 12.7284 4.59161 12.9287 4.17729 13.1396C 3.75347 13.3553 3.18728 13.5536 2.60132 13.8114C 2.01536 14.0692 1.39254 14.3812 0.899282 14.8895C 0.406024 15.3977 0.0580694 16.1088 0.000982778 17.0143C -0.00332017 17.0825 0.00653769 17.1509 0.0299472 17.2152C 0.0533566 17.2795 0.0898203 17.3384 0.137085 17.3882C 0.184349 17.438 0.24141 17.4776 0.304742 17.5047C 0.368073 17.5317 0.436329 17.5456 0.505291 17.5455L 3.64146 17.5455C 3.56405 17.8315 3.5039 18.1375 3.48386 18.4673C 3.47956 18.5355 3.48942 18.6039 3.51283 18.6682C 3.53624 18.7325 3.5727 18.7914 3.61997 18.8412C 3.66723 18.891 3.72429 18.9306 3.78762 18.9577C 3.85095 18.9847 3.91921 18.9986 3.98817 18.9985L 21.2292 18.9985C 21.2982 18.9986 21.3664 18.9847 21.4298 18.9577C 21.4931 18.9306 21.5502 18.891 21.5974 18.8412C 21.6447 18.7914 21.6812 18.7325 21.7046 18.6682C 21.728 18.6039 21.7378 18.5355 21.7335 18.4673C 21.7123 18.1185 21.6452 17.7985 21.5602 17.4986L 24.7121 17.4986C 24.7811 17.4988 24.8493 17.4849 24.9126 17.4578C 24.976 17.4307 25.033 17.3911 25.0803 17.3413C 25.1276 17.2915 25.164 17.2327 25.1874 17.1684C 25.2109 17.104 25.2207 17.0357 25.2164 16.9674C 25.1594 16.0632 24.8061 15.3512 24.3181 14.8426C 23.8301 14.334 23.2274 14.0226 22.6476 13.7646C 22.0678 13.5065 21.5064 13.3082 21.0874 13.0927C 20.6869 12.8868 20.4742 12.677 20.3782 12.4522C 20.3451 12.0472 20.3315 11.6882 20.3309 11.2804C 20.3653 11.2375 20.4237 11.2026 20.457 11.1554C 20.5569 11.0138 20.6387 10.8526 20.7249 10.671C 20.8648 10.3764 20.9663 10.024 21.0243 9.67112C 21.1262 9.60575 21.2466 9.60124 21.3238 9.49926C 21.5126 9.24972 21.6288 8.92403 21.6862 8.46809C 21.7211 8.19178 21.691 7.93574 21.6075 7.71815C 21.5841 7.65731 21.4976 7.62036 21.4656 7.56191C 21.576 7.30556 21.7025 7.06444 21.7335 6.74947C 21.7795 6.28339 21.7412 5.75836 21.6075 5.24959C 21.4737 4.74082 21.2403 4.23412 20.8352 3.84345C 20.5077 3.52753 20.0465 3.3409 19.5272 3.26537L 19.3223 2.79666C 19.2829 2.70888 19.2189 2.63421 19.1378 2.58156C 19.0568 2.52892 18.9622 2.50053 18.8653 2.4998C 18.1686 2.4998 17.4259 2.56902 16.7377 2.78103C 16.5577 2.38682 16.3218 2.01231 15.997 1.70299C 15.5653 1.29187 14.9598 1.04461 14.2635 0.968674L 13.9798 0.296852C 13.9404 0.209076 13.8764 0.134401 13.7953 0.0817569C 13.7143 0.0291129 13.6196 0.000729006 13.5228 0ZM 13.1918 1.03117L 13.4597 1.60925C 13.4991 1.69703 13.5631 1.7717 13.6442 1.82434C 13.7252 1.87699 13.8199 1.90537 13.9167 1.9061C 14.5438 1.9061 14.9696 2.10365 15.3036 2.42169C 15.6376 2.73973 15.876 3.19353 16.0128 3.70284C 16.1496 4.21214 16.1856 4.7693 16.1389 5.23397C 16.0921 5.69864 15.9313 6.07312 15.8394 6.18702C 15.792 6.24668 15.7589 6.31629 15.7426 6.39054C 15.7263 6.46479 15.7274 6.54174 15.7456 6.61554C 15.7638 6.68934 15.7988 6.75805 15.8478 6.81645C 15.8968 6.87485 15.9586 6.92141 16.0285 6.95258C 16.0213 6.94783 16.0294 6.9488 16.0443 6.98383C 16.072 7.04876 16.1023 7.19194 16.0916 7.37442C 16.0892 7.39005 16.094 7.39053 16.0916 7.40567C 16.0234 7.81953 15.9035 8.06577 15.8237 8.17124C 15.7823 8.2259 15.7519 8.24349 15.7449 8.24936C 15.6296 8.25927 15.5213 8.30814 15.4381 8.38779C 15.3549 8.46743 15.3019 8.57301 15.2878 8.68682C 15.246 9.06003 15.1001 9.54679 14.9254 9.9211C 14.838 10.1083 14.735 10.2668 14.6574 10.3742C 14.5993 10.4547 14.5396 10.4985 14.5471 10.4992C 14.4645 10.5426 14.3957 10.608 14.3483 10.688C 14.301 10.7681 14.2771 10.8595 14.2792 10.9523C 14.2792 11.6022 14.2751 12.125 14.3265 12.8896C 14.3301 12.9378 14.3407 12.9851 14.358 13.0302C 14.6285 13.7342 15.2375 14.1565 15.9025 14.4832C 16.5675 14.8099 17.3211 15.0535 18.03 15.3582C 18.7389 15.6628 19.3982 16.0292 19.8739 16.5143C 20.2416 16.8893 20.467 17.3857 20.5988 17.9986L 4.61856 17.9986C 4.75035 17.3857 4.97583 16.8893 5.3435 16.5143C 5.8192 16.0292 6.47848 15.6628 7.18738 15.3582C 7.89627 15.0535 8.64992 14.8099 9.31493 14.4832C 9.97994 14.1565 10.5889 13.7342 10.8594 13.0302C 10.8767 12.9851 10.8873 12.9378 10.8909 12.8896C 10.9427 12.1711 10.9382 11.6022 10.9382 10.9523C 10.9403 10.8595 10.9164 10.7681 10.8691 10.688C 10.8217 10.608 10.7529 10.5426 10.6703 10.4992C 10.671 10.4985 10.6655 10.4925 10.6545 10.4836C 10.6505 10.4819 10.6456 10.4865 10.6387 10.4836C 10.6158 10.4647 10.582 10.4229 10.5442 10.3742C 10.4627 10.2692 10.3527 10.1038 10.2605 9.9211C 10.0762 9.55561 9.92384 9.09386 9.88228 8.70245C 9.87051 8.59554 9.8243 8.49524 9.75048 8.41644C 9.67667 8.33763 9.5792 8.28452 9.47253 8.26498C 9.42325 8.25521 9.16532 8.26604 9.07854 7.40567C 9.04333 7.02168 9.22547 6.90755 9.20461 6.92134C 9.30639 6.85687 9.38146 6.75834 9.41616 6.64365C 9.45087 6.52897 9.44291 6.40574 9.39373 6.29638C 9.07008 5.56109 8.96799 4.79978 9.07854 4.09343C 9.13522 4.03081 9.17504 3.95503 9.19433 3.8731C 9.21361 3.79117 9.21173 3.70574 9.18885 3.62472C 9.28295 3.31429 9.41674 3.02319 9.5986 2.74979C 10.2263 1.80621 11.4082 1.11424 13.1918 1.03117ZM 18.5501 3.5466L 18.7077 3.89032C 18.7447 3.98102 18.8077 4.05897 18.8889 4.11451C 18.9702 4.17005 19.066 4.20075 19.1647 4.2028C 19.6144 4.2028 19.8928 4.33724 20.126 4.56214C 20.3592 4.78705 20.5308 5.12091 20.6304 5.49957C 20.7299 5.87823 20.7594 6.29063 20.7249 6.64011C 20.6905 6.98958 20.572 7.27452 20.52 7.34318C 20.4766 7.39918 20.4457 7.46368 20.4292 7.53241C 20.4127 7.60114 20.4112 7.67254 20.4246 7.74192C 20.438 7.8113 20.466 7.87708 20.5069 7.93492C 20.5478 7.99276 20.6007 8.04135 20.6619 8.07749C 20.6791 8.12239 20.6932 8.21944 20.6776 8.3431C 20.6343 8.6871 20.5582 8.85511 20.52 8.90556C 20.4052 8.91947 20.2987 8.97208 20.2184 9.05457C 20.1381 9.13706 20.0888 9.24441 20.0788 9.35865C 20.0602 9.61664 19.9411 9.9749 19.8109 10.2492C 19.7458 10.3864 19.6795 10.4954 19.6217 10.5773C 19.5784 10.6387 19.5387 10.6845 19.5429 10.6867C 19.476 10.7318 19.4209 10.7923 19.3825 10.863C 19.3441 10.9337 19.3235 11.0126 19.3223 11.0929C 19.3223 11.6428 19.3172 12.0679 19.3696 12.6396C 19.3746 12.6825 19.3852 12.7245 19.4011 12.7646C 19.6164 13.3516 20.1007 13.7191 20.6146 13.9833C 21.1285 14.2475 21.7082 14.435 22.2378 14.6707C 22.7675 14.9064 23.2491 15.1871 23.5932 15.5457C 23.833 15.7956 23.9927 16.1114 24.0975 16.4987L 21.1819 16.4987C 21.1662 16.498 21.1504 16.498 21.1347 16.4987C 20.9778 16.2427 20.7997 16.0161 20.5988 15.8113C 19.9761 15.1762 19.1997 14.7786 18.4398 14.452C 17.6799 14.1254 16.9316 13.8738 16.3595 13.5927C 15.8081 13.3218 15.4786 13.0316 15.3351 12.7021C 15.2979 12.1021 15.2882 11.6525 15.2878 11.1241C 15.3411 11.0637 15.4283 11.0196 15.477 10.9523C 15.6059 10.7737 15.7314 10.5745 15.8394 10.3429C 16.0288 9.93724 16.1412 9.46353 16.2177 8.9993C 16.3552 8.91726 16.5208 8.92146 16.6274 8.78057C 16.8473 8.48992 17.0001 8.08784 17.0844 7.53066C 17.0901 7.52043 17.0953 7.51001 17.1002 7.49941C 17.1318 7.15506 17.0829 6.84816 16.9741 6.59324C 16.9469 6.52946 16.8533 6.51236 16.8165 6.45262C 16.98 6.12409 17.0887 5.7558 17.1317 5.32771C 17.182 4.82735 17.1655 4.28255 17.0529 3.73408C 17.5062 3.61121 18.0371 3.5669 18.5501 3.5466ZM 7.48681 3.56222L 7.67593 3.92157C 7.711 3.99552 7.76381 4.05982 7.82974 4.10884C 7.89568 4.15787 7.97273 4.19013 8.05416 4.2028C 7.98795 4.92996 8.1013 5.68325 8.36935 6.40575C 8.17799 6.66532 8.02525 7.01226 8.06992 7.49941C 8.15798 8.37244 8.55159 8.78641 8.9367 9.01492C 9.01833 9.49376 9.16242 9.97805 9.36221 10.3742C 9.47807 10.6039 9.60604 10.8104 9.74044 10.9835C 9.79058 11.0481 9.87592 11.0827 9.92956 11.1398C 9.92913 11.6684 9.91884 12.1434 9.88228 12.7021C 9.73877 13.0316 9.40929 13.3218 8.8579 13.5927C 8.28578 13.8738 7.53753 14.1254 6.77763 14.452C 6.01772 14.7786 5.24131 15.1762 4.61856 15.8113C 4.40522 16.0288 4.21448 16.2702 4.05121 16.5456C 4.04596 16.5455 4.0407 16.5455 4.03545 16.5456L 1.13568 16.5456C 1.24125 16.1596 1.39749 15.8424 1.63999 15.5925C 1.98829 15.2337 2.47495 14.9535 3.01107 14.7176C 3.5472 14.4817 4.11571 14.2941 4.63432 14.0302C 5.15293 13.7662 5.64749 13.4162 5.86357 12.8271C 5.88087 12.782 5.89148 12.7346 5.89509 12.6865C 5.94706 12.0682 5.95813 11.6553 5.95813 11.1554C 5.96054 11.0684 5.94 10.9822 5.89854 10.9055C 5.85708 10.8288 5.79613 10.7641 5.72173 10.7179C 5.70584 10.7004 5.67236 10.6658 5.64293 10.6242C 5.58407 10.541 5.50688 10.4224 5.43806 10.2804C 5.30042 9.99662 5.17926 9.62951 5.13863 9.3274C 5.12202 9.21879 5.06981 9.11863 4.99005 9.04239C 4.9103 8.96614 4.80743 8.91806 4.69736 8.90556C 4.6592 8.85511 4.58313 8.6871 4.53976 8.3431C 4.52383 8.20093 4.55241 8.11907 4.57128 8.07749C 4.67033 8.0107 4.74217 7.91114 4.77393 7.79664C 4.80569 7.68213 4.79531 7.56015 4.74463 7.45254C 4.32647 6.51434 4.40017 5.53781 4.88647 4.7965C 5.33461 4.11337 6.20157 3.63972 7.48681 3.56222Z"/>
</defs>
</svg>
