<svg width="25" height="25" viewBox="0 0 25 25" version="1.1" xmlns="http://www.w3.org/2000/svg" xmlns:xlink="http://www.w3.org/1999/xlink">
<title>Vector</title>
<desc>Created using Figma</desc>
<g id="Canvas" transform="translate(279 113)">
<g id="Vector">
<use xlink:href="#path0_fill" transform="translate(-279 -113)" fill="url(#paint0_linear)"/>
</g>
</g>
<defs>
<linearGradient id="paint0_linear" x1="0" y1="0" x2="1" y2="0" gradientUnits="userSpaceOnUse" gradientTransform="matrix(1.53081e-15 25 -25 1.53081e-15 25 -1.53081e-15)">
<stop offset="0" stop-color="#361FB2"/>
<stop offset="1" stop-color="#2768C9"/>
</linearGradient>
<path id="path0_fill" d="M 12.5 0C 5.60878 0 0 5.60878 0 12.5C 0 19.3912 5.60878 25 12.5 25C 19.3912 25 25 19.3912 25 12.5C 25 5.60878 19.3912 0 12.5 0ZM 12.5 2.08333C 18.2653 2.08333 22.9167 6.7347 22.9167 12.5C 22.9167 18.2653 18.2653 22.9167 12.5 22.9167C 6.7347 22.9167 2.08333 18.2653 2.08333 12.5C 2.08333 6.7347 6.7347 2.08333 12.5 2.08333ZM 12.5 3.125C 11.9247 3.125 11.4583 3.59137 11.4583 4.16667C 11.4583 4.74196 11.9247 5.20833 12.5 5.20833C 13.0753 5.20833 13.5417 4.74196 13.5417 4.16667C 13.5417 3.59137 13.0753 3.125 12.5 3.125ZM 6.60807 5.56641C 6.03278 5.56641 5.56641 6.03278 5.56641 6.60807C 5.56641 7.18337 6.03278 7.64974 6.60807 7.64974C 7.18337 7.64974 7.64974 7.18337 7.64974 6.60807C 7.64974 6.03278 7.18337 5.56641 6.60807 5.56641ZM 17.6432 5.89193L 13.0208 10.4818C 12.8544 10.439 12.6798 10.4167 12.5 10.4167C 11.3494 10.4167 10.4167 11.3494 10.4167 12.5C 10.4167 13.6506 11.3494 14.5833 12.5 14.5833C 13.6506 14.5833 14.5833 13.6506 14.5833 12.5C 14.5833 12.3202 14.561 12.1456 14.5182 11.9792L 19.1406 7.35677L 17.6432 5.89193ZM 4.16667 11.4583C 3.59137 11.4583 3.125 11.9247 3.125 12.5C 3.125 13.0753 3.59137 13.5417 4.16667 13.5417C 4.74196 13.5417 5.20833 13.0753 5.20833 12.5C 5.20833 11.9247 4.74196 11.4583 4.16667 11.4583ZM 20.8333 11.4583C 20.258 11.4583 19.7917 11.9247 19.7917 12.5C 19.7917 13.0753 20.258 13.5417 20.8333 13.5417C 21.4086 13.5417 21.875 13.0753 21.875 12.5C 21.875 11.9247 21.4086 11.4583 20.8333 11.4583ZM 6.60807 17.3503C 6.03278 17.3503 5.56641 17.8166 5.56641 18.3919C 5.56641 18.9672 6.03278 19.4336 6.60807 19.4336C 7.18337 19.4336 7.64974 18.9672 7.64974 18.3919C 7.64974 17.8166 7.18337 17.3503 6.60807 17.3503ZM 18.3919 17.3503C 17.8166 17.3503 17.3503 17.8166 17.3503 18.3919C 17.3503 18.9672 17.8166 19.4336 18.3919 19.4336C 18.9672 19.4336 19.4336 18.9672 19.4336 18.3919C 19.4336 17.8166 18.9672 17.3503 18.3919 17.3503Z"/>
</defs>
</svg>
