<svg width="42" height="42" viewBox="0 0 42 42" version="1.1" xmlns="http://www.w3.org/2000/svg" xmlns:xlink="http://www.w3.org/1999/xlink">
<title>Vector</title>
<desc>Created using Figma</desc>
<g id="Canvas" transform="translate(-7057 -430)">
<g id="Vector">
<use xlink:href="#path0_fill" transform="matrix(0.707107 -0.707107 0.707107 0.707107 7057 447.69)" fill="#FF3B30"/>
</g>
</g>
<defs>
<path id="path0_fill" d="M 11.8046 0.00445431C 11.7623 0.0121733 11.7206 0.0226116 11.6796 0.0357043C 11.4538 0.0862734 11.2525 0.213578 11.1101 0.395924C 10.9676 0.578271 10.8928 0.804374 10.8984 1.0357L 10.8984 30.567L 1.71087 21.3795C 1.61828 21.2817 1.50689 21.2036 1.38338 21.1499C 1.25987 21.0962 1.12679 21.068 0.992118 21.067C 0.793605 21.0685 0.600056 21.1292 0.436115 21.2411C 0.272174 21.3531 0.145259 21.5113 0.0715309 21.6956C -0.00219696 21.8799 -0.0194021 22.082 0.0221068 22.2761C 0.0636156 22.4703 0.16196 22.6477 0.304618 22.7857L 11.1796 33.692L 11.8984 34.3795L 12.6171 33.692L 23.4921 22.7857C 23.6014 22.6976 23.6909 22.5876 23.7549 22.4626C 23.8188 22.3377 23.8557 22.2007 23.8633 22.0605C 23.8708 21.9204 23.8487 21.7802 23.7985 21.6491C 23.7483 21.5181 23.671 21.399 23.5718 21.2998C 23.4725 21.2006 23.3535 21.1233 23.2224 21.0731C 23.0914 21.0229 22.9512 21.0008 22.8111 21.0083C 22.6709 21.0158 22.5339 21.0528 22.409 21.1167C 22.284 21.1806 22.1739 21.2702 22.0859 21.3795L 12.8984 30.567L 12.8984 1.0357C 12.9034 0.893509 12.8781 0.751869 12.8241 0.620247C 12.77 0.488624 12.6885 0.370047 12.585 0.272438C 12.4815 0.174828 12.3583 0.100433 12.2237 0.0542199C 12.0892 0.00800696 11.9463 -0.00895958 11.8046 0.00445431Z"/>
</defs>
</svg>
