<svg width="22" height="22" viewBox="0 0 22 22" version="1.1" xmlns="http://www.w3.org/2000/svg" xmlns:xlink="http://www.w3.org/1999/xlink">
<title>close</title>
<desc>Created using Figma</desc>
<g id="Canvas" transform="translate(-19095 74)">
<g id="close">
<use xlink:href="#path0_fill" transform="translate(19096 -73)" fill="#8A8A92"/>
<use xlink:href="#path1_stroke" transform="translate(19096 -73)" fill="#8A8A92"/>
</g>
</g>
<defs>
<path id="path0_fill" d="M 1.18689 0L 0 1.18689L 0.593443 1.78033L 8.81312 10L 0.593443 18.2197L 0 18.8131L 1.18689 20L 1.78033 19.4066L 10 11.1869L 18.2197 19.4066L 18.8131 20L 20 18.8131L 19.4066 18.2197L 11.1869 10L 19.4066 1.78033L 20 1.18689L 18.8131 0L 18.2197 0.593443L 10 8.81312L 1.78033 0.593443L 1.18689 0Z"/>
<path id="path1_stroke" d="M 1.18689 0L 1.36366 -0.176777L 1.18689 -0.353553L 1.01011 -0.176777L 1.18689 0ZM 0 1.18689L -0.176777 1.01011L -0.353553 1.18689L -0.176777 1.36366L 0 1.18689ZM 0.593443 1.78033L 0.416666 1.9571L 0.416666 1.9571L 0.593443 1.78033ZM 8.81312 10L 8.98989 10.1768L 9.16667 10L 8.98989 9.82322L 8.81312 10ZM 0.593443 18.2197L 0.770219 18.3965L 0.770219 18.3965L 0.593443 18.2197ZM 0 18.8131L -0.176776 18.6363L -0.353554 18.8131L -0.176777 18.9899L 0 18.8131ZM 1.18689 20L 1.01011 20.1768L 1.18689 20.3536L 1.36366 20.1768L 1.18689 20ZM 1.78033 19.4066L 1.60355 19.2298L 1.60355 19.2298L 1.78033 19.4066ZM 10 11.1869L 10.1768 11.0101L 10 10.8333L 9.82322 11.0101L 10 11.1869ZM 18.2197 19.4066L 18.3965 19.2298L 18.2197 19.4066ZM 18.8131 20L 18.6363 20.1768L 18.8131 20.3536L 18.9899 20.1768L 18.8131 20ZM 20 18.8131L 20.1768 18.9899L 20.3536 18.8131L 20.1768 18.6363L 20 18.8131ZM 19.4066 18.2197L 19.2298 18.3965L 19.4066 18.2197ZM 11.1869 10L 11.0101 9.82322L 10.8333 10L 11.0101 10.1768L 11.1869 10ZM 19.4066 1.78033L 19.2298 1.60355L 19.2298 1.60355L 19.4066 1.78033ZM 20 1.18689L 20.1768 1.36366L 20.3536 1.18689L 20.1768 1.01011L 20 1.18689ZM 18.8131 0L 18.9899 -0.176777L 18.8131 -0.353554L 18.6363 -0.176776L 18.8131 0ZM 18.2197 0.593443L 18.3965 0.770219L 18.3965 0.770219L 18.2197 0.593443ZM 10 8.81312L 9.82322 8.98989L 10 9.16667L 10.1768 8.98989L 10 8.81312ZM 1.78033 0.593443L 1.9571 0.416666L 1.9571 0.416666L 1.78033 0.593443ZM 1.01011 -0.176777L -0.176777 1.01011L 0.176777 1.36366L 1.36366 0.176777L 1.01011 -0.176777ZM -0.176777 1.36366L 0.416666 1.9571L 0.770219 1.60355L 0.176777 1.01011L -0.176777 1.36366ZM 0.416666 1.9571L 8.63634 10.1768L 8.98989 9.82322L 0.770219 1.60355L 0.416666 1.9571ZM 8.63634 9.82322L 0.416666 18.0429L 0.770219 18.3965L 8.98989 10.1768L 8.63634 9.82322ZM 0.416666 18.0429L -0.176776 18.6363L 0.176776 18.9899L 0.770219 18.3965L 0.416666 18.0429ZM -0.176777 18.9899L 1.01011 20.1768L 1.36366 19.8232L 0.176777 18.6363L -0.176777 18.9899ZM 1.36366 20.1768L 1.9571 19.5833L 1.60355 19.2298L 1.01011 19.8232L 1.36366 20.1768ZM 1.9571 19.5833L 10.1768 11.3637L 9.82322 11.0101L 1.60355 19.2298L 1.9571 19.5833ZM 9.82322 11.3637L 18.0429 19.5833L 18.3965 19.2298L 10.1768 11.0101L 9.82322 11.3637ZM 18.0429 19.5833L 18.6363 20.1768L 18.9899 19.8232L 18.3965 19.2298L 18.0429 19.5833ZM 18.9899 20.1768L 20.1768 18.9899L 19.8232 18.6363L 18.6363 19.8232L 18.9899 20.1768ZM 20.1768 18.6363L 19.5833 18.0429L 19.2298 18.3965L 19.8232 18.9899L 20.1768 18.6363ZM 19.5833 18.0429L 11.3637 9.82322L 11.0101 10.1768L 19.2298 18.3965L 19.5833 18.0429ZM 11.3637 10.1768L 19.5833 1.9571L 19.2298 1.60355L 11.0101 9.82322L 11.3637 10.1768ZM 19.5833 1.9571L 20.1768 1.36366L 19.8232 1.01011L 19.2298 1.60355L 19.5833 1.9571ZM 20.1768 1.01011L 18.9899 -0.176777L 18.6363 0.176777L 19.8232 1.36366L 20.1768 1.01011ZM 18.6363 -0.176776L 18.0429 0.416666L 18.3965 0.770219L 18.9899 0.176776L 18.6363 -0.176776ZM 18.0429 0.416666L 9.82322 8.63634L 10.1768 8.98989L 18.3965 0.770219L 18.0429 0.416666ZM 10.1768 8.63634L 1.9571 0.416666L 1.60355 0.770219L 9.82322 8.98989L 10.1768 8.63634ZM 1.9571 0.416666L 1.36366 -0.176777L 1.01011 0.176777L 1.60355 0.770219L 1.9571 0.416666Z"/>
</defs>
</svg>
