<svg width="45" height="45" viewBox="0 0 45 45" version="1.1" xmlns="http://www.w3.org/2000/svg" xmlns:xlink="http://www.w3.org/1999/xlink">
<title>Vector</title>
<desc>Created using Figma</desc>
<g id="Canvas" transform="translate(-2194 -10)">
<g id="Vector">
<use xlink:href="#path0_fill" transform="translate(2194 10)" fill="#BFC5D1"/>
</g>
</g>
<defs>
<path id="path0_fill" d="M 41.25 0C 40.2145 0 39.375 0.839466 39.375 1.875C 39.375 2.1479 39.446 2.40283 39.5508 2.63672L 32.0508 13.125C 31.9928 13.1196 31.9344 13.125 31.875 13.125C 31.5007 13.125 31.1423 13.229 30.8496 13.418L 24.375 10.1953C 24.3142 9.2147 23.4959 8.4375 22.5 8.4375C 21.4645 8.4375 20.625 9.27697 20.625 10.3125C 20.625 10.4122 20.6393 10.5099 20.6543 10.6055L 13.7988 16.0547C 13.5906 15.975 13.3612 15.9375 13.125 15.9375C 12.1892 15.9375 11.42 16.6233 11.2793 17.5195L 4.89258 20.0977C 4.57487 19.8503 4.18385 19.6875 3.75 19.6875C 2.71447 19.6875 1.875 20.527 1.875 21.5625C 1.875 22.598 2.71447 23.4375 3.75 23.4375C 4.69569 23.4375 5.46709 22.7364 5.5957 21.8262L 11.9824 19.2773C 12.3001 19.5247 12.6911 19.6875 13.125 19.6875C 14.1605 19.6875 15 18.848 15 17.8125C 15 17.7128 14.9857 17.6151 14.9707 17.5195L 21.8262 12.0703C 22.0344 12.15 22.2638 12.1875 22.5 12.1875C 22.8743 12.1875 23.2327 12.0835 23.5254 11.8945L 30 15.1172C 30.0608 16.0978 30.8791 16.875 31.875 16.875C 32.9105 16.875 33.75 16.0355 33.75 15C 33.75 14.7271 33.679 14.4722 33.5742 14.2383L 41.0742 3.75C 41.1322 3.7554 41.1906 3.75 41.25 3.75C 42.2855 3.75 43.125 2.91053 43.125 1.875C 43.125 0.839466 42.2855 0 41.25 0ZM 37.5 12.1875L 37.5 13.125L 37.5 44.0625L 37.5 45L 38.4375 45L 44.0625 45L 45 45L 45 44.0625L 45 13.125L 45 12.1875L 44.0625 12.1875L 38.4375 12.1875L 37.5 12.1875ZM 39.375 14.0625L 43.125 14.0625L 43.125 43.125L 39.375 43.125L 39.375 14.0625ZM 18.75 20.625L 18.75 21.5625L 18.75 44.0625L 18.75 45L 19.6875 45L 25.3125 45L 26.25 45L 26.25 44.0625L 26.25 21.5625L 26.25 20.625L 25.3125 20.625L 19.6875 20.625L 18.75 20.625ZM 20.625 22.5L 24.375 22.5L 24.375 43.125L 20.625 43.125L 20.625 22.5ZM 28.125 25.3125L 28.125 26.25L 28.125 44.0625L 28.125 45L 29.0625 45L 34.6875 45L 35.625 45L 35.625 44.0625L 35.625 26.25L 35.625 25.3125L 34.6875 25.3125L 29.0625 25.3125L 28.125 25.3125ZM 30 27.1875L 33.75 27.1875L 33.75 43.125L 30 43.125L 30 27.1875ZM 9.375 28.125L 9.375 29.0625L 9.375 44.0625L 9.375 45L 10.3125 45L 15.9375 45L 16.875 45L 16.875 44.0625L 16.875 29.0625L 16.875 28.125L 15.9375 28.125L 10.3125 28.125L 9.375 28.125ZM 11.25 30L 15 30L 15 43.125L 11.25 43.125L 11.25 30ZM 0 31.875L 0 32.8125L 0 44.0625L 0 45L 0.9375 45L 6.5625 45L 7.5 45L 7.5 44.0625L 7.5 32.8125L 7.5 31.875L 6.5625 31.875L 0.9375 31.875L 0 31.875ZM 1.875 33.75L 5.625 33.75L 5.625 43.125L 1.875 43.125L 1.875 33.75Z"/>
</defs>
</svg>
