<svg width="25" height="25" viewBox="0 0 25 25" version="1.1" xmlns="http://www.w3.org/2000/svg" xmlns:xlink="http://www.w3.org/1999/xlink">
<title>Vector</title>
<desc>Created using Figma</desc>
<g id="Canvas" transform="translate(-1184 -438)">
<g id="Vector">
<use xlink:href="#path0_fill" transform="matrix(-0.707076 -0.707137 0.707076 -0.707137 1192.96 471)" fill="#02B21F"/>
</g>
</g>
<defs>
<path id="path0_fill" d="M 11.8675 0.00440365C 11.825 0.0120349 11.783 0.0223545 11.7418 0.0352982C 11.5148 0.0852921 11.3125 0.211149 11.1693 0.391421C 11.026 0.571693 10.9508 0.795225 10.9564 1.02392L 10.9564 30.2193L 1.71998 21.1363C 1.6269 21.0396 1.51491 20.9624 1.39075 20.9093C 1.26658 20.8562 1.13279 20.8283 0.997403 20.8273C 0.797833 20.8289 0.603253 20.8888 0.438438 20.9995C 0.273624 21.1102 0.146033 21.2666 0.071912 21.4488C -0.00220866 21.631 -0.0195054 21.8308 0.0222245 22.0228C 0.0639545 22.2147 0.162823 22.3901 0.30624 22.5265L 11.2392 33.3087L 11.9618 33.9884L 12.6843 33.3087L 23.6173 22.5265C 23.7271 22.4395 23.8171 22.3306 23.8814 22.2071C 23.9457 22.0836 23.9828 21.9482 23.9904 21.8096C 23.9979 21.671 23.9757 21.5325 23.9253 21.4029C 23.8748 21.2733 23.7971 21.1557 23.6973 21.0575C 23.5976 20.9594 23.4779 20.8831 23.3461 20.8334C 23.2144 20.7838 23.0735 20.7619 22.9326 20.7694C 22.7917 20.7768 22.6539 20.8133 22.5283 20.8765C 22.4027 20.9397 22.2921 21.0282 22.2035 21.1363L 12.9671 30.2193L 12.9671 1.02392C 12.9722 0.883346 12.9467 0.743318 12.8924 0.613192C 12.838 0.483066 12.7561 0.365838 12.652 0.269339C 12.5479 0.17284 12.4241 0.0992905 12.2888 0.0536032C 12.1536 0.00791588 12.0099 -0.00885767 11.8675 0.00440365Z"/>
</defs>
</svg>
