<svg width="25" height="25" viewBox="0 0 25 25" version="1.1" xmlns="http://www.w3.org/2000/svg" xmlns:xlink="http://www.w3.org/1999/xlink">
<title>Vector</title>
<desc>Created using Figma</desc>
<g id="Canvas" transform="translate(-1464 -183)">
<g id="Vector">
<use xlink:href="#path0_fill" transform="translate(1464 183)" fill="#8E8E93"/>
</g>
</g>
<defs>
<path id="path0_fill" d="M 12.5 0C 5.60236 0 0 5.60236 0 12.5C 0 19.3976 5.60236 25 12.5 25C 19.3976 25 25 19.3976 25 12.5C 25 5.60236 19.3976 0 12.5 0ZM 12.5 1C 18.8572 1 24 6.1428 24 12.5C 24 18.8572 18.8572 24 12.5 24C 6.1428 24 1 18.8572 1 12.5C 1 6.1428 6.1428 1 12.5 1ZM 11.8906 6.45312C 11.7831 6.45312 11.7188 6.5175 11.7188 6.625L 11.7188 7.9375C 11.7188 8.045 11.7826 8.125 11.8906 8.125L 13.1094 8.125C 13.2164 8.125 13.2812 8.045 13.2812 7.9375L 13.2812 6.625C 13.2812 6.5175 13.2169 6.45312 13.1094 6.45312L 11.8906 6.45312ZM 11.8594 10.0625C 11.794 10.0878 11.75 10.1538 11.75 10.2344L 11.75 18.4688C 11.75 18.5763 11.8144 18.6406 11.9219 18.6406L 13.0781 18.6406C 13.1856 18.6406 13.25 18.5767 13.25 18.4688L 13.25 10.2344C 13.25 10.1269 13.1861 10.0625 13.0781 10.0625L 11.9219 10.0625C 11.8951 10.0625 11.8812 10.0541 11.8594 10.0625Z"/>
</defs>
</svg>
