<svg width="25" height="24" viewBox="0 0 25 24" version="1.1" xmlns="http://www.w3.org/2000/svg" xmlns:xlink="http://www.w3.org/1999/xlink">
<title>Vector</title>
<desc>Created using Figma</desc>
<g id="Canvas" transform="translate(279 -578)">
<g id="Vector">
<use xlink:href="#path0_fill" transform="translate(-279 578)" fill="#8E8E93"/>
</g>
</g>
<defs>
<path id="path0_fill" d="M 7.04833 0.000694163C 6.94731 0.023165 6.85339 0.070636 6.77499 0.138848L 0.390521 5.09264C 0.274114 5.14024 0.174596 5.22219 0.104942 5.3278C 0.0352879 5.43342 -0.00127033 5.5578 3.37094e-05 5.68472L 3.37094e-05 23.3684C 5.02766e-05 23.5359 0.0658804 23.6965 0.183046 23.8149C 0.300211 23.9334 0.459117 23.9999 0.624814 23.9999L 19.3682 23.9999C 19.3747 24 19.3812 24 19.3877 23.9999C 19.4273 23.9971 19.4665 23.9905 19.5049 23.9802C 19.5247 23.9746 19.5443 23.968 19.5635 23.9605C 19.7207 23.9147 19.8539 23.8084 19.9344 23.6644L 24.8546 17.4475C 24.9431 17.3354 24.9913 17.1962 24.9912 17.0528L 24.9912 0.75067C 25.0087 0.646373 25 0.539311 24.9659 0.439307C 24.9318 0.339304 24.8733 0.249563 24.796 0.17832C 24.7899 0.164937 24.7834 0.151771 24.7765 0.138848C 24.77 0.138745 24.7634 0.138745 24.7569 0.138848C 24.7445 0.125115 24.7315 0.111945 24.7179 0.0993752C 24.7114 0.0992724 24.7049 0.0992724 24.6984 0.0993752C 24.6677 0.0766773 24.635 0.0568588 24.6007 0.0401666C 24.5444 0.0185049 24.4852 0.0052095 24.425 0.000694163C 24.4055 -0.000231388 24.386 -0.000231388 24.3664 0.000694163L 15.7757 0.000694163L 15.5219 0.000694163L 7.16548 0.000694163C 7.14596 -0.000231388 7.12642 -0.000231388 7.10691 0.000694163C 7.08739 -0.000231388 7.06785 -0.000231388 7.04833 0.000694163ZM 7.36072 1.26381L 13.9795 1.26381L 9.76222 5.05316L 2.4601 5.05316L 7.36072 1.26381ZM 15.8538 1.26381L 22.8435 1.26381L 19.0949 5.05316L 11.6366 5.05316L 15.8538 1.26381ZM 23.7417 2.17168L 23.7417 16.8357L 19.993 21.5724L 19.993 5.96103L 23.7417 2.17168ZM 1.24959 6.31628L 9.76222 6.31628C 9.88302 6.35424 10.0124 6.35424 10.1332 6.31628L 18.7434 6.31628L 18.7434 22.7368L 1.24959 22.7368L 1.24959 6.31628ZM 6.75547 8.84252C 6.58976 8.85822 6.43702 8.93982 6.33084 9.06936C 6.22465 9.19891 6.17373 9.36578 6.18926 9.53328C 6.20479 9.70078 6.28552 9.85518 6.41367 9.96252C 6.54182 10.0699 6.70691 10.1213 6.87261 10.1056L 13.1204 10.1056C 13.2032 10.1068 13.2854 10.0914 13.3622 10.0601C 13.4391 10.0289 13.509 9.98261 13.5679 9.92385C 13.6269 9.86508 13.6737 9.79506 13.7057 9.71785C 13.7376 9.64063 13.7541 9.55777 13.7541 9.47407C 13.7541 9.39038 13.7376 9.30751 13.7057 9.2303C 13.6737 9.15309 13.6269 9.08307 13.5679 9.0243C 13.509 8.96554 13.4391 8.91921 13.3622 8.888C 13.2854 8.85679 13.2032 8.84133 13.1204 8.84252L 6.87261 8.84252C 6.8531 8.84159 6.83355 8.84159 6.81404 8.84252C 6.79453 8.84159 6.77498 8.84159 6.75547 8.84252Z"/>
</defs>
</svg>
