<svg width="28" height="35" viewBox="0 0 28 35" version="1.1" xmlns="http://www.w3.org/2000/svg" xmlns:xlink="http://www.w3.org/1999/xlink">
<title>icon</title>
<desc>Created using Figma</desc>
<g id="Canvas" transform="translate(-1466 211)">
<g id="icon">
<use xlink:href="#path0_fill" transform="translate(1467 -210)" fill="#BFC5D1"/>
<mask id="mask0_outline_out">
<rect id="mask0_outline_inv" fill="white" x="-1" y="-1" width="28" height="35" transform="translate(1467 -210)"/>
<use xlink:href="#path0_fill" fill="black" transform="translate(1467 -210)"/>
</mask>
<g mask="url(#mask0_outline_out)">
<use xlink:href="#path1_stroke_2x" transform="translate(1467 -210)" fill="#BFC5D1"/>
</g>
</g>
</g>
<defs>
<path id="path0_fill" d="M 13.0625 0C 11.5519 0 10.3125 1.23936 10.3125 2.75C 10.3125 3.10302 10.3855 3.43933 10.5085 3.75037C 6.66178 4.73298 4.125 7.93236 4.125 12.375C 4.125 17.4833 3.12601 19.8076 2.19409 21.0842C 1.72813 21.7226 1.27125 22.1073 0.862061 22.4901C 0.452873 22.873 0 23.3616 0 24.0625C 0 25.0078 0.575531 25.8024 1.36963 26.3318C 2.16373 26.8612 3.19811 27.2155 4.40564 27.4839C 5.75928 27.7847 7.34505 27.9611 9.01807 28.0653C 8.96575 28.3278 8.9375 28.5987 8.9375 28.875C 8.9375 31.1453 10.7922 33 13.0625 33C 15.3328 33 17.1875 31.1453 17.1875 28.875C 17.1875 28.5981 17.158 28.3279 17.1056 28.0653C 18.7791 27.9611 20.3654 27.7848 21.7194 27.4839C 22.9269 27.2155 23.9613 26.8612 24.7554 26.3318C 25.5495 25.8024 26.125 25.0078 26.125 24.0625C 26.125 23.3616 25.6721 22.873 25.2629 22.4901C 24.8538 22.1073 24.3969 21.7226 23.9309 21.0842C 22.999 19.8076 22 17.4833 22 12.375C 22 7.96477 19.4642 4.73966 15.6151 3.75305C 15.7388 3.44126 15.8125 3.10406 15.8125 2.75C 15.8125 1.23936 14.5731 0 13.0625 0ZM 13.0625 1.375C 13.83 1.375 14.4375 1.98247 14.4375 2.75C 14.4375 3.51753 13.83 4.125 13.0625 4.125C 12.295 4.125 11.6875 3.51753 11.6875 2.75C 11.6875 1.98247 12.295 1.375 13.0625 1.375ZM 11.4418 4.95618C 11.8984 5.29354 12.4555 5.5 13.0625 5.5C 13.6688 5.5 14.2256 5.29421 14.6819 4.95752C 18.3597 5.61291 20.625 8.23753 20.625 12.375C 20.625 17.6651 21.6885 20.3465 22.8191 21.8953C 23.3844 22.6697 23.9587 23.1537 24.323 23.4945C 24.6872 23.8353 24.75 23.926 24.75 24.0625C 24.75 24.4922 24.5521 24.8148 23.9927 25.1877C 23.4333 25.5607 22.534 25.8938 21.4213 26.1411C 19.1957 26.6357 16.1308 26.8125 13.0625 26.8125C 9.99421 26.8125 6.9293 26.6357 4.70374 26.1411C 3.59095 25.8938 2.69174 25.5607 2.13232 25.1877C 1.57291 24.8148 1.375 24.4922 1.375 24.0625C 1.375 23.926 1.43775 23.8353 1.802 23.4945C 2.16625 23.1537 2.74062 22.6697 3.30591 21.8953C 4.43649 20.3465 5.5 17.6651 5.5 12.375C 5.5 8.1994 7.76083 5.6159 11.4418 4.95618ZM 10.4253 28.1365C 11.2957 28.1681 12.1763 28.1875 13.0625 28.1875C 13.9487 28.1875 14.8293 28.1681 15.6997 28.1365C 15.7659 28.3722 15.8125 28.6163 15.8125 28.875C 15.8125 30.4025 14.59 31.625 13.0625 31.625C 11.535 31.625 10.3125 30.4025 10.3125 28.875C 10.3125 28.6159 10.359 28.3721 10.4253 28.1365Z"/>
<path id="path1_stroke_2x" d="M 10.5085 3.75037L 10.5704 3.99259L 10.8454 3.92235L 10.741 3.65842L 10.5085 3.75037ZM 2.19409 21.0842L 2.39602 21.2316L 2.19409 21.0842ZM 0.862061 22.4901L 1.03286 22.6727L 1.03286 22.6727L 0.862061 22.4901ZM 1.36963 26.3318L 1.5083 26.1238L 1.5083 26.1238L 1.36963 26.3318ZM 4.40564 27.4839L 4.45987 27.2398L 4.40564 27.4839ZM 9.01807 28.0653L 9.26324 28.1142L 9.31917 27.8336L 9.03361 27.8158L 9.01807 28.0653ZM 17.1056 28.0653L 17.0901 27.8158L 16.8044 27.8336L 16.8604 28.1142L 17.1056 28.0653ZM 21.7194 27.4839L 21.6651 27.2398L 21.6651 27.2398L 21.7194 27.4839ZM 24.7554 26.3318L 24.6167 26.1238L 24.6167 26.1238L 24.7554 26.3318ZM 25.2629 22.4901L 25.0921 22.6727L 25.2629 22.4901ZM 15.6151 3.75305L 15.3827 3.66086L 15.278 3.92474L 15.553 3.99522L 15.6151 3.75305ZM 11.4418 4.95618L 11.5903 4.75511L 11.5037 4.69109L 11.3977 4.7101L 11.4418 4.95618ZM 14.6819 4.95752L 14.7257 4.7114L 14.6199 4.69254L 14.5335 4.75635L 14.6819 4.95752ZM 24.323 23.4945L 24.1522 23.6771L 24.323 23.4945ZM 23.9927 25.1877L 24.1314 25.3958L 24.1314 25.3958L 23.9927 25.1877ZM 21.4213 26.1411L 21.4755 26.3852L 21.4755 26.3852L 21.4213 26.1411ZM 4.70374 26.1411L 4.6495 26.3852L 4.70374 26.1411ZM 2.13232 25.1877L 1.99365 25.3958L 1.99365 25.3958L 2.13232 25.1877ZM 1.802 23.4945L 1.97281 23.6771L 1.802 23.4945ZM 3.30591 21.8953L 3.50783 22.0427L 3.30591 21.8953ZM 10.4253 28.1365L 10.4344 27.8866L 10.2379 27.8795L 10.1846 28.0687L 10.4253 28.1365ZM 15.6997 28.1365L 15.9404 28.0689L 15.8873 27.8795L 15.6906 27.8866L 15.6997 28.1365ZM 13.0625 -0.25C 11.4138 -0.25 10.0625 1.10129 10.0625 2.75L 10.5625 2.75C 10.5625 1.37743 11.6899 0.25 13.0625 0.25L 13.0625 -0.25ZM 10.0625 2.75C 10.0625 3.13791 10.1428 3.50535 10.2761 3.84231L 10.741 3.65842C 10.6283 3.37331 10.5625 3.06813 10.5625 2.75L 10.0625 2.75ZM 10.4467 3.50814C 6.48354 4.52049 3.875 7.8241 3.875 12.375L 4.375 12.375C 4.375 8.04063 6.84002 4.94548 10.5704 3.99259L 10.4467 3.50814ZM 3.875 12.375C 3.875 17.4515 2.88231 19.7174 1.99217 20.9368L 2.39602 21.2316C 3.3697 19.8978 4.375 17.5151 4.375 12.375L 3.875 12.375ZM 1.99217 20.9368C 1.54355 21.5514 1.10845 21.9172 0.691256 22.3076L 1.03286 22.6727C 1.43405 22.2973 1.91272 21.8937 2.39602 21.2316L 1.99217 20.9368ZM 0.691256 22.3076C 0.281118 22.6913 -0.25 23.2455 -0.25 24.0625L 0.25 24.0625C 0.25 23.4776 0.624628 23.0546 1.03286 22.6727L 0.691256 22.3076ZM -0.25 24.0625C -0.25 25.1175 0.392268 25.9807 1.23095 26.5398L 1.5083 26.1238C 0.758793 25.6241 0.25 24.8981 0.25 24.0625L -0.25 24.0625ZM 1.23095 26.5398C 2.06271 27.0943 3.13203 27.457 4.35141 27.7279L 4.45987 27.2398C 3.26419 26.9741 2.26474 26.6281 1.5083 26.1238L 1.23095 26.5398ZM 4.35141 27.7279C 5.72318 28.0328 7.32351 28.2102 9.00253 28.3148L 9.03361 27.8158C 7.3666 27.712 5.79538 27.5366 4.45987 27.2398L 4.35141 27.7279ZM 8.77289 28.0164C 8.71749 28.2944 8.6875 28.5816 8.6875 28.875L 9.1875 28.875C 9.1875 28.6157 9.214 28.3613 9.26324 28.1142L 8.77289 28.0164ZM 8.6875 28.875C 8.6875 31.2833 10.6542 33.25 13.0625 33.25L 13.0625 32.75C 10.9303 32.75 9.1875 31.0072 9.1875 28.875L 8.6875 28.875ZM 13.0625 33.25C 15.4708 33.25 17.4375 31.2833 17.4375 28.875L 16.9375 28.875C 16.9375 31.0072 15.1947 32.75 13.0625 32.75L 13.0625 33.25ZM 17.4375 28.875C 17.4375 28.5802 17.4061 28.2937 17.3508 28.0164L 16.8604 28.1142C 16.9099 28.3622 16.9375 28.6159 16.9375 28.875L 17.4375 28.875ZM 17.1211 28.3148C 18.8006 28.2103 20.4015 28.0329 21.7736 27.7279L 21.6651 27.2398C 20.3293 27.5367 18.7576 27.712 17.0901 27.8158L 17.1211 28.3148ZM 21.7736 27.7279C 22.993 27.457 24.0623 27.0943 24.894 26.5398L 24.6167 26.1238C 23.8603 26.6281 22.8608 26.9741 21.6651 27.2398L 21.7736 27.7279ZM 24.894 26.5398C 25.7327 25.9807 26.375 25.1175 26.375 24.0625L 25.875 24.0625C 25.875 24.8981 25.3662 25.6241 24.6167 26.1238L 24.894 26.5398ZM 26.375 24.0625C 26.375 23.2455 25.8439 22.6913 25.4337 22.3076L 25.0921 22.6727C 25.5004 23.0546 25.875 23.4776 25.875 24.0625L 26.375 24.0625ZM 25.4337 22.3076C 25.0166 21.9172 24.5814 21.5514 24.1328 20.9368L 23.729 21.2316C 24.2123 21.8937 24.691 22.2973 25.0921 22.6727L 25.4337 22.3076ZM 24.1328 20.9368C 23.2427 19.7174 22.25 17.4515 22.25 12.375L 21.75 12.375C 21.75 17.5151 22.7553 19.8978 23.729 21.2316L 24.1328 20.9368ZM 22.25 12.375C 22.25 7.8568 19.6428 4.52734 15.6772 3.51088L 15.553 3.99522C 19.2857 4.95198 21.75 8.07275 21.75 12.375L 22.25 12.375ZM 15.8475 3.84524C 15.9815 3.50759 16.0625 3.13916 16.0625 2.75L 15.5625 2.75C 15.5625 3.06895 15.4962 3.37494 15.3827 3.66086L 15.8475 3.84524ZM 16.0625 2.75C 16.0625 1.10129 14.7112 -0.25 13.0625 -0.25L 13.0625 0.25C 14.4351 0.25 15.5625 1.37743 15.5625 2.75L 16.0625 2.75ZM 13.0625 1.625C 13.692 1.625 14.1875 2.12054 14.1875 2.75L 14.6875 2.75C 14.6875 1.84439 13.9681 1.125 13.0625 1.125L 13.0625 1.625ZM 14.1875 2.75C 14.1875 3.37946 13.692 3.875 13.0625 3.875L 13.0625 4.375C 13.9681 4.375 14.6875 3.65561 14.6875 2.75L 14.1875 2.75ZM 13.0625 3.875C 12.433 3.875 11.9375 3.37946 11.9375 2.75L 11.4375 2.75C 11.4375 3.65561 12.1569 4.375 13.0625 4.375L 13.0625 3.875ZM 11.9375 2.75C 11.9375 2.12054 12.433 1.625 13.0625 1.625L 13.0625 1.125C 12.1569 1.125 11.4375 1.84439 11.4375 2.75L 11.9375 2.75ZM 11.2932 5.15724C 11.7889 5.5235 12.3974 5.75 13.0625 5.75L 13.0625 5.25C 12.5137 5.25 12.0078 5.06359 11.5903 4.75511L 11.2932 5.15724ZM 13.0625 5.75C 13.7268 5.75 14.3349 5.52426 14.8303 5.15869L 14.5335 4.75635C 14.1163 5.06416 13.6108 5.25 13.0625 5.25L 13.0625 5.75ZM 14.638 5.20364C 16.4277 5.52256 17.8565 6.31669 18.8391 7.5187C 19.8219 8.72115 20.375 10.3524 20.375 12.375L 20.875 12.375C 20.875 10.2601 20.2954 8.51034 19.2262 7.20226C 18.1566 5.89375 16.6139 5.04786 14.7257 4.7114L 14.638 5.20364ZM 20.375 12.375C 20.375 17.6975 21.445 20.437 22.6172 22.0427L 23.021 21.7479C 21.932 20.256 20.875 17.6328 20.875 12.375L 20.375 12.375ZM 22.6172 22.0427C 23.1997 22.8407 23.7957 23.3435 24.1522 23.6771L 24.4938 23.312C 24.1218 22.9639 23.569 22.4986 23.021 21.7479L 22.6172 22.0427ZM 24.1522 23.6771C 24.3367 23.8497 24.4268 23.9429 24.4725 24.0043C 24.5054 24.0486 24.5 24.054 24.5 24.0625L 25 24.0625C 25 23.9346 24.9632 23.8264 24.8737 23.706C 24.797 23.6027 24.6735 23.4801 24.4938 23.312L 24.1522 23.6771ZM 24.5 24.0625C 24.5 24.2341 24.4619 24.3731 24.3724 24.5087C 24.2788 24.6506 24.1198 24.8025 23.854 24.9797L 24.1314 25.3958C 24.425 25.2 24.6446 25.0041 24.7898 24.7841C 24.9391 24.5577 25 24.3206 25 24.0625L 24.5 24.0625ZM 23.854 24.9797C 23.3321 25.3276 22.4678 25.6525 21.367 25.8971L 21.4755 26.3852C 22.6003 26.1352 23.5344 25.7937 24.1314 25.3958L 23.854 24.9797ZM 21.367 25.8971C 19.169 26.3855 16.1262 26.5625 13.0625 26.5625L 13.0625 27.0625C 16.1353 27.0625 19.2224 26.8858 21.4755 26.3852L 21.367 25.8971ZM 13.0625 26.5625C 9.99875 26.5625 6.95605 26.3855 4.75797 25.8971L 4.6495 26.3852C 6.90255 26.8858 9.98968 27.0625 13.0625 27.0625L 13.0625 26.5625ZM 4.75797 25.8971C 3.65724 25.6525 2.79286 25.3276 2.271 24.9797L 1.99365 25.3958C 2.59062 25.7937 3.52466 26.1352 4.6495 26.3852L 4.75797 25.8971ZM 2.271 24.9797C 2.0052 24.8025 1.84618 24.6506 1.75256 24.5087C 1.66308 24.3731 1.625 24.2341 1.625 24.0625L 1.125 24.0625C 1.125 24.3206 1.18587 24.5577 1.3352 24.7841C 1.48039 25.0041 1.70003 25.2 1.99365 25.3958L 2.271 24.9797ZM 1.625 24.0625C 1.625 24.054 1.61962 24.0486 1.65253 24.0043C 1.69822 23.9429 1.78829 23.8497 1.97281 23.6771L 1.6312 23.312C 1.45147 23.4801 1.32804 23.6027 1.25128 23.706C 1.16176 23.8264 1.125 23.9346 1.125 24.0625L 1.625 24.0625ZM 1.97281 23.6771C 2.32934 23.3435 2.92525 22.8407 3.50783 22.0427L 3.10398 21.7479C 2.55598 22.4986 2.00316 22.9639 1.6312 23.312L 1.97281 23.6771ZM 3.50783 22.0427C 4.67996 20.437 5.75 17.6975 5.75 12.375L 5.25 12.375C 5.25 17.6328 4.19303 20.256 3.10398 21.7479L 3.50783 22.0427ZM 5.75 12.375C 5.75 10.3328 6.30222 8.70266 7.28384 7.50566C 8.26518 6.30901 9.69347 5.5235 11.4859 5.20226L 11.3977 4.7101C 9.50913 5.04858 7.96654 5.88468 6.89722 7.18861C 5.8282 8.49219 5.25 10.2416 5.25 12.375L 5.75 12.375ZM 10.4162 28.3863C 11.289 28.418 12.1727 28.4375 13.0625 28.4375L 13.0625 27.9375C 12.1799 27.9375 11.3024 27.9182 10.4344 27.8866L 10.4162 28.3863ZM 13.0625 28.4375C 13.9523 28.4375 14.836 28.418 15.7088 28.3863L 15.6906 27.8866C 14.8226 27.9182 13.9451 27.9375 13.0625 27.9375L 13.0625 28.4375ZM 15.459 28.204C 15.5214 28.4263 15.5625 28.6465 15.5625 28.875L 16.0625 28.875C 16.0625 28.5861 16.0103 28.3182 15.9404 28.0689L 15.459 28.204ZM 15.5625 28.875C 15.5625 30.2644 14.4519 31.375 13.0625 31.375L 13.0625 31.875C 14.7281 31.875 16.0625 30.5406 16.0625 28.875L 15.5625 28.875ZM 13.0625 31.375C 11.6731 31.375 10.5625 30.2644 10.5625 28.875L 10.0625 28.875C 10.0625 30.5406 11.3969 31.875 13.0625 31.875L 13.0625 31.375ZM 10.5625 28.875C 10.5625 28.6461 10.6035 28.4261 10.6659 28.2042L 10.1846 28.0687C 10.1144 28.3181 10.0625 28.5858 10.0625 28.875L 10.5625 28.875Z"/>
</defs>
</svg>
