<svg width="25" height="20" viewBox="0 0 25 20" version="1.1" xmlns="http://www.w3.org/2000/svg" xmlns:xlink="http://www.w3.org/1999/xlink">
<title>Vector</title>
<desc>Created using Figma</desc>
<g id="Canvas" transform="translate(279 -5360)">
<g id="Vector">
<use xlink:href="#path0_fill" transform="translate(-279 5360)" fill="url(#paint0_linear)"/>
</g>
</g>
<defs>
<linearGradient id="paint0_linear" x1="0" y1="0" x2="1" y2="0" gradientUnits="userSpaceOnUse" gradientTransform="matrix(1.53081e-15 20 -25 1.22465e-15 25 -1.22465e-15)">
<stop offset="0" stop-color="#361FB2"/>
<stop offset="1" stop-color="#2768C9"/>
</linearGradient>
<path id="path0_fill" d="M 1.05263 0C 0.471579 0 0 0.448 0 1C 0 1.552 0.471579 2 1.05263 2L 3.38816 2L 6.15132 12.5C 6.38605 13.39 7.22553 14 8.19079 14L 9.47368 14L 18.9474 14L 20.2632 14C 21.2126 14 22.0192 13.4012 22.2697 12.5312L 25 3L 7.36842 3L 7.89474 5L 22.2697 5L 20.2632 12L 8.19079 12L 5.42763 1.5C 5.19395 0.61 4.35447 0 3.38816 0L 1.05263 0ZM 18.9474 14C 17.2158 14 15.7895 15.355 15.7895 17C 15.7895 18.645 17.2158 20 18.9474 20C 20.679 20 22.1053 18.645 22.1053 17C 22.1053 15.355 20.679 14 18.9474 14ZM 9.47368 14C 7.74209 14 6.31579 15.355 6.31579 17C 6.31579 18.645 7.74209 20 9.47368 20C 11.2053 20 12.6316 18.645 12.6316 17C 12.6316 15.355 11.2053 14 9.47368 14ZM 9.47368 16C 10.0675 16 10.5263 16.4359 10.5263 17C 10.5263 17.5641 10.0675 18 9.47368 18C 8.87987 18 8.42105 17.5641 8.42105 17C 8.42105 16.4359 8.87987 16 9.47368 16ZM 18.9474 16C 19.5412 16 20 16.4359 20 17C 20 17.5641 19.5412 18 18.9474 18C 18.3535 18 17.8947 17.5641 17.8947 17C 17.8947 16.4359 18.3535 16 18.9474 16Z"/>
</defs>
</svg>
