<svg width="25" height="27" viewBox="0 0 25 27" version="1.1" xmlns="http://www.w3.org/2000/svg" xmlns:xlink="http://www.w3.org/1999/xlink">
<title>Vector</title>
<desc>Created using Figma</desc>
<g id="Canvas" transform="translate(279 -52)">
<g id="Vector">
<use xlink:href="#path0_fill" transform="translate(-279 52)" fill="#8E8E93"/>
<mask id="mask0_outline_ins">
<use xlink:href="#path0_fill" fill="white" transform="translate(-279 52)"/>
</mask>
<g mask="url(#mask0_outline_ins)">
<use xlink:href="#path1_stroke_2x" transform="translate(-279 52)" fill="#8E8E93"/>
</g>
</g>
</g>
<defs>
<path id="path0_fill" d="M 5.12821 8.56458e-16C 4.9582 1.70466e-05 4.79516 0.0677519 4.67495 0.188307C 4.55474 0.308863 4.4872 0.472366 4.48718 0.642857L 4.48718 12.8571L 0.641026 12.8571C 0.47102 12.8572 0.307983 12.9249 0.187771 13.0455C 0.0675589 13.166 1.6998e-05 13.3295 0 13.5L 0 26.3571C 1.6998e-05 26.5276 0.0675589 26.6911 0.187771 26.8117C 0.307983 26.9322 0.47102 27 0.641026 27L 10.8974 27C 11.0674 27 11.2305 26.9322 11.3507 26.8117C 11.4709 26.6911 11.5384 26.5276 11.5385 26.3571L 11.5385 25.0714L 24.359 25.0714C 24.529 25.0714 24.692 25.0037 24.8122 24.8831C 24.9324 24.7626 25 24.5991 25 24.4286L 25 0.642857C 25 0.472366 24.9324 0.308863 24.8122 0.188307C 24.692 0.0677519 24.529 1.70466e-05 24.359 8.56458e-16L 5.12821 8.56458e-16ZM 5.76923 1.28571L 23.7179 1.28571L 23.7179 23.7857L 11.5385 23.7857L 11.5385 13.5C 11.5384 13.3295 11.4709 13.166 11.3507 13.0455C 11.2305 12.9249 11.0674 12.8572 10.8974 12.8571L 5.76923 12.8571L 5.76923 1.28571ZM 8.33333 5.14286L 8.33333 6.42857L 17.9487 6.42857L 17.9487 5.14286L 8.33333 5.14286ZM 19.2308 5.14286L 19.2308 6.42857L 21.1538 6.42857L 21.1538 5.14286L 19.2308 5.14286ZM 8.33333 7.71429L 8.33333 9L 16.6667 9L 16.6667 7.71429L 8.33333 7.71429ZM 19.2308 7.71429L 19.2308 9L 21.1538 9L 21.1538 7.71429L 19.2308 7.71429ZM 8.33333 10.2857L 8.33333 11.5714L 17.9487 11.5714L 17.9487 10.2857L 8.33333 10.2857ZM 19.2308 10.2857L 19.2308 11.5714L 21.1538 11.5714L 21.1538 10.2857L 19.2308 10.2857ZM 12.8205 12.8571L 12.8205 14.1429L 17.9487 14.1429L 17.9487 12.8571L 12.8205 12.8571ZM 19.2308 12.8571L 19.2308 14.1429L 21.1538 14.1429L 21.1538 12.8571L 19.2308 12.8571ZM 1.28205 14.1429L 10.2564 14.1429L 10.2564 25.7143L 1.28205 25.7143L 1.28205 14.1429ZM 2.5641 15.4286L 2.5641 16.7143L 8.97436 16.7143L 8.97436 15.4286L 2.5641 15.4286ZM 12.8205 15.4286L 12.8205 16.7143L 16.6667 16.7143L 16.6667 15.4286L 12.8205 15.4286ZM 19.2308 15.4286L 19.2308 16.7143L 21.1538 16.7143L 21.1538 15.4286L 19.2308 15.4286ZM 2.5641 18L 2.5641 19.2857L 3.84615 19.2857L 3.84615 18L 2.5641 18ZM 5.12821 18L 5.12821 19.2857L 6.41026 19.2857L 6.41026 18L 5.12821 18ZM 7.69231 18L 7.69231 19.2857L 8.97436 19.2857L 8.97436 18L 7.69231 18ZM 12.8205 18L 12.8205 19.2857L 17.9487 19.2857L 17.9487 18L 12.8205 18ZM 19.2308 18L 19.2308 19.2857L 21.1538 19.2857L 21.1538 18L 19.2308 18ZM 2.5641 20.5714L 2.5641 21.8571L 3.84615 21.8571L 3.84615 20.5714L 2.5641 20.5714ZM 5.12821 20.5714L 5.12821 21.8571L 6.41026 21.8571L 6.41026 20.5714L 5.12821 20.5714ZM 7.69231 20.5714L 7.69231 21.8571L 8.97436 21.8571L 8.97436 20.5714L 7.69231 20.5714ZM 2.5641 23.1429L 2.5641 24.4286L 3.84615 24.4286L 3.84615 23.1429L 2.5641 23.1429ZM 5.12821 23.1429L 5.12821 24.4286L 6.41026 24.4286L 6.41026 23.1429L 5.12821 23.1429ZM 7.69231 23.1429L 7.69231 24.4286L 8.97436 24.4286L 8.97436 23.1429L 7.69231 23.1429Z"/>
<path id="path1_stroke_2x" d="M 5.12821 8.56458e-16L 5.12821 -1L 5.1281 -1L 5.12821 8.56458e-16ZM 4.48718 0.642857L 3.48718 0.642757L 3.48718 0.642857L 4.48718 0.642857ZM 4.48718 12.8571L 4.48718 13.8571L 5.48718 13.8571L 5.48718 12.8571L 4.48718 12.8571ZM 0.641026 12.8571L 0.641026 11.8571L 0.640925 11.8571L 0.641026 12.8571ZM 0 13.5L -1 13.4999L -1 13.5L 0 13.5ZM 0 26.3571L -1 26.3571L -1 26.3572L 0 26.3571ZM 0.641026 27L 0.640925 28L 0.641026 28L 0.641026 27ZM 10.8974 27L 10.8974 28L 10.8975 28L 10.8974 27ZM 11.5385 26.3571L 12.5385 26.3572L 12.5385 26.3571L 11.5385 26.3571ZM 11.5385 25.0714L 11.5385 24.0714L 10.5385 24.0714L 10.5385 25.0714L 11.5385 25.0714ZM 24.359 25.0714L 24.359 26.0714L 24.3591 26.0714L 24.359 25.0714ZM 25 24.4286L 26 24.4287L 26 24.4286L 25 24.4286ZM 25 0.642857L 26 0.642857L 26 0.642757L 25 0.642857ZM 24.359 8.56458e-16L 24.3591 -1L 24.359 -1L 24.359 8.56458e-16ZM 5.76923 1.28571L 5.76923 0.285714L 4.76923 0.285714L 4.76923 1.28571L 5.76923 1.28571ZM 23.7179 1.28571L 24.7179 1.28571L 24.7179 0.285714L 23.7179 0.285714L 23.7179 1.28571ZM 23.7179 23.7857L 23.7179 24.7857L 24.7179 24.7857L 24.7179 23.7857L 23.7179 23.7857ZM 11.5385 23.7857L 10.5385 23.7857L 10.5385 24.7857L 11.5385 24.7857L 11.5385 23.7857ZM 11.5385 13.5L 12.5385 13.5L 12.5385 13.4999L 11.5385 13.5ZM 10.8974 12.8571L 10.8975 11.8571L 10.8974 11.8571L 10.8974 12.8571ZM 5.76923 12.8571L 4.76923 12.8571L 4.76923 13.8571L 5.76923 13.8571L 5.76923 12.8571ZM 8.33333 5.14286L 8.33333 4.14286L 7.33333 4.14286L 7.33333 5.14286L 8.33333 5.14286ZM 8.33333 6.42857L 7.33333 6.42857L 7.33333 7.42857L 8.33333 7.42857L 8.33333 6.42857ZM 17.9487 6.42857L 17.9487 7.42857L 18.9487 7.42857L 18.9487 6.42857L 17.9487 6.42857ZM 17.9487 5.14286L 18.9487 5.14286L 18.9487 4.14286L 17.9487 4.14286L 17.9487 5.14286ZM 19.2308 5.14286L 19.2308 4.14286L 18.2308 4.14286L 18.2308 5.14286L 19.2308 5.14286ZM 19.2308 6.42857L 18.2308 6.42857L 18.2308 7.42857L 19.2308 7.42857L 19.2308 6.42857ZM 21.1538 6.42857L 21.1538 7.42857L 22.1538 7.42857L 22.1538 6.42857L 21.1538 6.42857ZM 21.1538 5.14286L 22.1538 5.14286L 22.1538 4.14286L 21.1538 4.14286L 21.1538 5.14286ZM 8.33333 7.71429L 8.33333 6.71429L 7.33333 6.71429L 7.33333 7.71429L 8.33333 7.71429ZM 8.33333 9L 7.33333 9L 7.33333 10L 8.33333 10L 8.33333 9ZM 16.6667 9L 16.6667 10L 17.6667 10L 17.6667 9L 16.6667 9ZM 16.6667 7.71429L 17.6667 7.71429L 17.6667 6.71429L 16.6667 6.71429L 16.6667 7.71429ZM 19.2308 7.71429L 19.2308 6.71429L 18.2308 6.71429L 18.2308 7.71429L 19.2308 7.71429ZM 19.2308 9L 18.2308 9L 18.2308 10L 19.2308 10L 19.2308 9ZM 21.1538 9L 21.1538 10L 22.1538 10L 22.1538 9L 21.1538 9ZM 21.1538 7.71429L 22.1538 7.71429L 22.1538 6.71429L 21.1538 6.71429L 21.1538 7.71429ZM 8.33333 10.2857L 8.33333 9.28571L 7.33333 9.28571L 7.33333 10.2857L 8.33333 10.2857ZM 8.33333 11.5714L 7.33333 11.5714L 7.33333 12.5714L 8.33333 12.5714L 8.33333 11.5714ZM 17.9487 11.5714L 17.9487 12.5714L 18.9487 12.5714L 18.9487 11.5714L 17.9487 11.5714ZM 17.9487 10.2857L 18.9487 10.2857L 18.9487 9.28571L 17.9487 9.28571L 17.9487 10.2857ZM 19.2308 10.2857L 19.2308 9.28571L 18.2308 9.28571L 18.2308 10.2857L 19.2308 10.2857ZM 19.2308 11.5714L 18.2308 11.5714L 18.2308 12.5714L 19.2308 12.5714L 19.2308 11.5714ZM 21.1538 11.5714L 21.1538 12.5714L 22.1538 12.5714L 22.1538 11.5714L 21.1538 11.5714ZM 21.1538 10.2857L 22.1538 10.2857L 22.1538 9.28571L 21.1538 9.28571L 21.1538 10.2857ZM 12.8205 12.8571L 12.8205 11.8571L 11.8205 11.8571L 11.8205 12.8571L 12.8205 12.8571ZM 12.8205 14.1429L 11.8205 14.1429L 11.8205 15.1429L 12.8205 15.1429L 12.8205 14.1429ZM 17.9487 14.1429L 17.9487 15.1429L 18.9487 15.1429L 18.9487 14.1429L 17.9487 14.1429ZM 17.9487 12.8571L 18.9487 12.8571L 18.9487 11.8571L 17.9487 11.8571L 17.9487 12.8571ZM 19.2308 12.8571L 19.2308 11.8571L 18.2308 11.8571L 18.2308 12.8571L 19.2308 12.8571ZM 19.2308 14.1429L 18.2308 14.1429L 18.2308 15.1429L 19.2308 15.1429L 19.2308 14.1429ZM 21.1538 14.1429L 21.1538 15.1429L 22.1538 15.1429L 22.1538 14.1429L 21.1538 14.1429ZM 21.1538 12.8571L 22.1538 12.8571L 22.1538 11.8571L 21.1538 11.8571L 21.1538 12.8571ZM 1.28205 14.1429L 1.28205 13.1429L 0.282051 13.1429L 0.282051 14.1429L 1.28205 14.1429ZM 10.2564 14.1429L 11.2564 14.1429L 11.2564 13.1429L 10.2564 13.1429L 10.2564 14.1429ZM 10.2564 25.7143L 10.2564 26.7143L 11.2564 26.7143L 11.2564 25.7143L 10.2564 25.7143ZM 1.28205 25.7143L 0.282051 25.7143L 0.282051 26.7143L 1.28205 26.7143L 1.28205 25.7143ZM 2.5641 15.4286L 2.5641 14.4286L 1.5641 14.4286L 1.5641 15.4286L 2.5641 15.4286ZM 2.5641 16.7143L 1.5641 16.7143L 1.5641 17.7143L 2.5641 17.7143L 2.5641 16.7143ZM 8.97436 16.7143L 8.97436 17.7143L 9.97436 17.7143L 9.97436 16.7143L 8.97436 16.7143ZM 8.97436 15.4286L 9.97436 15.4286L 9.97436 14.4286L 8.97436 14.4286L 8.97436 15.4286ZM 12.8205 15.4286L 12.8205 14.4286L 11.8205 14.4286L 11.8205 15.4286L 12.8205 15.4286ZM 12.8205 16.7143L 11.8205 16.7143L 11.8205 17.7143L 12.8205 17.7143L 12.8205 16.7143ZM 16.6667 16.7143L 16.6667 17.7143L 17.6667 17.7143L 17.6667 16.7143L 16.6667 16.7143ZM 16.6667 15.4286L 17.6667 15.4286L 17.6667 14.4286L 16.6667 14.4286L 16.6667 15.4286ZM 19.2308 15.4286L 19.2308 14.4286L 18.2308 14.4286L 18.2308 15.4286L 19.2308 15.4286ZM 19.2308 16.7143L 18.2308 16.7143L 18.2308 17.7143L 19.2308 17.7143L 19.2308 16.7143ZM 21.1538 16.7143L 21.1538 17.7143L 22.1538 17.7143L 22.1538 16.7143L 21.1538 16.7143ZM 21.1538 15.4286L 22.1538 15.4286L 22.1538 14.4286L 21.1538 14.4286L 21.1538 15.4286ZM 2.5641 18L 2.5641 17L 1.5641 17L 1.5641 18L 2.5641 18ZM 2.5641 19.2857L 1.5641 19.2857L 1.5641 20.2857L 2.5641 20.2857L 2.5641 19.2857ZM 3.84615 19.2857L 3.84615 20.2857L 4.84615 20.2857L 4.84615 19.2857L 3.84615 19.2857ZM 3.84615 18L 4.84615 18L 4.84615 17L 3.84615 17L 3.84615 18ZM 5.12821 18L 5.12821 17L 4.12821 17L 4.12821 18L 5.12821 18ZM 5.12821 19.2857L 4.12821 19.2857L 4.12821 20.2857L 5.12821 20.2857L 5.12821 19.2857ZM 6.41026 19.2857L 6.41026 20.2857L 7.41026 20.2857L 7.41026 19.2857L 6.41026 19.2857ZM 6.41026 18L 7.41026 18L 7.41026 17L 6.41026 17L 6.41026 18ZM 7.69231 18L 7.69231 17L 6.69231 17L 6.69231 18L 7.69231 18ZM 7.69231 19.2857L 6.69231 19.2857L 6.69231 20.2857L 7.69231 20.2857L 7.69231 19.2857ZM 8.97436 19.2857L 8.97436 20.2857L 9.97436 20.2857L 9.97436 19.2857L 8.97436 19.2857ZM 8.97436 18L 9.97436 18L 9.97436 17L 8.97436 17L 8.97436 18ZM 12.8205 18L 12.8205 17L 11.8205 17L 11.8205 18L 12.8205 18ZM 12.8205 19.2857L 11.8205 19.2857L 11.8205 20.2857L 12.8205 20.2857L 12.8205 19.2857ZM 17.9487 19.2857L 17.9487 20.2857L 18.9487 20.2857L 18.9487 19.2857L 17.9487 19.2857ZM 17.9487 18L 18.9487 18L 18.9487 17L 17.9487 17L 17.9487 18ZM 19.2308 18L 19.2308 17L 18.2308 17L 18.2308 18L 19.2308 18ZM 19.2308 19.2857L 18.2308 19.2857L 18.2308 20.2857L 19.2308 20.2857L 19.2308 19.2857ZM 21.1538 19.2857L 21.1538 20.2857L 22.1538 20.2857L 22.1538 19.2857L 21.1538 19.2857ZM 21.1538 18L 22.1538 18L 22.1538 17L 21.1538 17L 21.1538 18ZM 2.5641 20.5714L 2.5641 19.5714L 1.5641 19.5714L 1.5641 20.5714L 2.5641 20.5714ZM 2.5641 21.8571L 1.5641 21.8571L 1.5641 22.8571L 2.5641 22.8571L 2.5641 21.8571ZM 3.84615 21.8571L 3.84615 22.8571L 4.84615 22.8571L 4.84615 21.8571L 3.84615 21.8571ZM 3.84615 20.5714L 4.84615 20.5714L 4.84615 19.5714L 3.84615 19.5714L 3.84615 20.5714ZM 5.12821 20.5714L 5.12821 19.5714L 4.12821 19.5714L 4.12821 20.5714L 5.12821 20.5714ZM 5.12821 21.8571L 4.12821 21.8571L 4.12821 22.8571L 5.12821 22.8571L 5.12821 21.8571ZM 6.41026 21.8571L 6.41026 22.8571L 7.41026 22.8571L 7.41026 21.8571L 6.41026 21.8571ZM 6.41026 20.5714L 7.41026 20.5714L 7.41026 19.5714L 6.41026 19.5714L 6.41026 20.5714ZM 7.69231 20.5714L 7.69231 19.5714L 6.69231 19.5714L 6.69231 20.5714L 7.69231 20.5714ZM 7.69231 21.8571L 6.69231 21.8571L 6.69231 22.8571L 7.69231 22.8571L 7.69231 21.8571ZM 8.97436 21.8571L 8.97436 22.8571L 9.97436 22.8571L 9.97436 21.8571L 8.97436 21.8571ZM 8.97436 20.5714L 9.97436 20.5714L 9.97436 19.5714L 8.97436 19.5714L 8.97436 20.5714ZM 2.5641 23.1429L 2.5641 22.1429L 1.5641 22.1429L 1.5641 23.1429L 2.5641 23.1429ZM 2.5641 24.4286L 1.5641 24.4286L 1.5641 25.4286L 2.5641 25.4286L 2.5641 24.4286ZM 3.84615 24.4286L 3.84615 25.4286L 4.84615 25.4286L 4.84615 24.4286L 3.84615 24.4286ZM 3.84615 23.1429L 4.84615 23.1429L 4.84615 22.1429L 3.84615 22.1429L 3.84615 23.1429ZM 5.12821 23.1429L 5.12821 22.1429L 4.12821 22.1429L 4.12821 23.1429L 5.12821 23.1429ZM 5.12821 24.4286L 4.12821 24.4286L 4.12821 25.4286L 5.12821 25.4286L 5.12821 24.4286ZM 6.41026 24.4286L 6.41026 25.4286L 7.41026 25.4286L 7.41026 24.4286L 6.41026 24.4286ZM 6.41026 23.1429L 7.41026 23.1429L 7.41026 22.1429L 6.41026 22.1429L 6.41026 23.1429ZM 7.69231 23.1429L 7.69231 22.1429L 6.69231 22.1429L 6.69231 23.1429L 7.69231 23.1429ZM 7.69231 24.4286L 6.69231 24.4286L 6.69231 25.4286L 7.69231 25.4286L 7.69231 24.4286ZM 8.97436 24.4286L 8.97436 25.4286L 9.97436 25.4286L 9.97436 24.4286L 8.97436 24.4286ZM 8.97436 23.1429L 9.97436 23.1429L 9.97436 22.1429L 8.97436 22.1429L 8.97436 23.1429ZM 5.1281 -1C 4.692 -0.999956 4.27434 -0.826171 3.96684 -0.51779L 5.38307 0.894405C 5.31599 0.961675 5.2244 0.99999 5.12831 1L 5.1281 -1ZM 3.96684 -0.51779C 3.65943 -0.209506 3.48722 0.208002 3.48718 0.642757L 5.48718 0.642957C 5.48717 0.73673 5.45005 0.827231 5.38307 0.894405L 3.96684 -0.51779ZM 3.48718 0.642857L 3.48718 12.8571L 5.48718 12.8571L 5.48718 0.642857L 3.48718 0.642857ZM 4.48718 11.8571L 0.641026 11.8571L 0.641026 13.8571L 4.48718 13.8571L 4.48718 11.8571ZM 0.640925 11.8571C 0.204815 11.8572 -0.212842 12.031 -0.520344 12.3394L 0.895886 13.7515C 0.828807 13.8188 0.737226 13.8571 0.641126 13.8571L 0.640925 11.8571ZM -0.520344 12.3394C -0.827751 12.6476 -0.999957 13.0651 -1 13.4999L 1 13.5001C 0.999991 13.5939 0.962868 13.6844 0.895886 13.7515L -0.520344 12.3394ZM -1 13.5L -1 26.3571L 1 26.3571L 1 13.5L -1 13.5ZM -1 26.3572C -0.999957 26.792 -0.827751 27.2095 -0.520344 27.5178L 0.895886 26.1056C 0.962868 26.1728 0.999991 26.2633 1 26.357L -1 26.3572ZM -0.520344 27.5178C -0.212842 27.8262 0.204815 28 0.640925 28L 0.641126 26C 0.737226 26 0.828807 26.0383 0.895886 26.1056L -0.520344 27.5178ZM 0.641026 28L 10.8974 28L 10.8974 26L 0.641026 26L 0.641026 28ZM 10.8975 28C 11.3336 28 11.7513 27.8262 12.0588 27.5178L 10.6426 26.1056C 10.7097 26.0383 10.8012 26 10.8973 26L 10.8975 28ZM 12.0588 27.5178C 12.3662 27.2095 12.5384 26.792 12.5385 26.3572L 10.5385 26.357C 10.5385 26.2633 10.5756 26.1728 10.6426 26.1056L 12.0588 27.5178ZM 12.5385 26.3571L 12.5385 25.0714L 10.5385 25.0714L 10.5385 26.3571L 12.5385 26.3571ZM 11.5385 26.0714L 24.359 26.0714L 24.359 24.0714L 11.5385 24.0714L 11.5385 26.0714ZM 24.3591 26.0714C 24.7952 26.0714 25.2128 25.8976 25.5203 25.5892L 24.1041 24.177C 24.1712 24.1098 24.2628 24.0714 24.3589 24.0714L 24.3591 26.0714ZM 25.5203 25.5892C 25.8277 25.2809 26 24.8634 26 24.4287L 24 24.4285C 24 24.3347 24.0371 24.2442 24.1041 24.177L 25.5203 25.5892ZM 26 24.4286L 26 0.642857L 24 0.642857L 24 24.4286L 26 24.4286ZM 26 0.642757C 26 0.208002 25.8277 -0.209506 25.5203 -0.51779L 24.1041 0.894405C 24.0371 0.827231 24 0.73673 24 0.642957L 26 0.642757ZM 25.5203 -0.51779C 25.2128 -0.826171 24.7952 -0.999956 24.3591 -1L 24.3589 1C 24.2628 0.99999 24.1712 0.961675 24.1041 0.894405L 25.5203 -0.51779ZM 24.359 -1L 5.12821 -1L 5.12821 1L 24.359 1L 24.359 -1ZM 5.76923 2.28571L 23.7179 2.28571L 23.7179 0.285714L 5.76923 0.285714L 5.76923 2.28571ZM 22.7179 1.28571L 22.7179 23.7857L 24.7179 23.7857L 24.7179 1.28571L 22.7179 1.28571ZM 23.7179 22.7857L 11.5385 22.7857L 11.5385 24.7857L 23.7179 24.7857L 23.7179 22.7857ZM 12.5385 23.7857L 12.5385 13.5L 10.5385 13.5L 10.5385 23.7857L 12.5385 23.7857ZM 12.5385 13.4999C 12.5384 13.0651 12.3662 12.6476 12.0588 12.3394L 10.6426 13.7515C 10.5756 13.6844 10.5385 13.5939 10.5385 13.5001L 12.5385 13.4999ZM 12.0588 12.3394C 11.7513 12.031 11.3336 11.8572 10.8975 11.8571L 10.8973 13.8571C 10.8012 13.8571 10.7097 13.8188 10.6426 13.7515L 12.0588 12.3394ZM 10.8974 11.8571L 5.76923 11.8571L 5.76923 13.8571L 10.8974 13.8571L 10.8974 11.8571ZM 6.76923 12.8571L 6.76923 1.28571L 4.76923 1.28571L 4.76923 12.8571L 6.76923 12.8571ZM 7.33333 5.14286L 7.33333 6.42857L 9.33333 6.42857L 9.33333 5.14286L 7.33333 5.14286ZM 8.33333 7.42857L 17.9487 7.42857L 17.9487 5.42857L 8.33333 5.42857L 8.33333 7.42857ZM 18.9487 6.42857L 18.9487 5.14286L 16.9487 5.14286L 16.9487 6.42857L 18.9487 6.42857ZM 17.9487 4.14286L 8.33333 4.14286L 8.33333 6.14286L 17.9487 6.14286L 17.9487 4.14286ZM 18.2308 5.14286L 18.2308 6.42857L 20.2308 6.42857L 20.2308 5.14286L 18.2308 5.14286ZM 19.2308 7.42857L 21.1538 7.42857L 21.1538 5.42857L 19.2308 5.42857L 19.2308 7.42857ZM 22.1538 6.42857L 22.1538 5.14286L 20.1538 5.14286L 20.1538 6.42857L 22.1538 6.42857ZM 21.1538 4.14286L 19.2308 4.14286L 19.2308 6.14286L 21.1538 6.14286L 21.1538 4.14286ZM 7.33333 7.71429L 7.33333 9L 9.33333 9L 9.33333 7.71429L 7.33333 7.71429ZM 8.33333 10L 16.6667 10L 16.6667 8L 8.33333 8L 8.33333 10ZM 17.6667 9L 17.6667 7.71429L 15.6667 7.71429L 15.6667 9L 17.6667 9ZM 16.6667 6.71429L 8.33333 6.71429L 8.33333 8.71429L 16.6667 8.71429L 16.6667 6.71429ZM 18.2308 7.71429L 18.2308 9L 20.2308 9L 20.2308 7.71429L 18.2308 7.71429ZM 19.2308 10L 21.1538 10L 21.1538 8L 19.2308 8L 19.2308 10ZM 22.1538 9L 22.1538 7.71429L 20.1538 7.71429L 20.1538 9L 22.1538 9ZM 21.1538 6.71429L 19.2308 6.71429L 19.2308 8.71429L 21.1538 8.71429L 21.1538 6.71429ZM 7.33333 10.2857L 7.33333 11.5714L 9.33333 11.5714L 9.33333 10.2857L 7.33333 10.2857ZM 8.33333 12.5714L 17.9487 12.5714L 17.9487 10.5714L 8.33333 10.5714L 8.33333 12.5714ZM 18.9487 11.5714L 18.9487 10.2857L 16.9487 10.2857L 16.9487 11.5714L 18.9487 11.5714ZM 17.9487 9.28571L 8.33333 9.28571L 8.33333 11.2857L 17.9487 11.2857L 17.9487 9.28571ZM 18.2308 10.2857L 18.2308 11.5714L 20.2308 11.5714L 20.2308 10.2857L 18.2308 10.2857ZM 19.2308 12.5714L 21.1538 12.5714L 21.1538 10.5714L 19.2308 10.5714L 19.2308 12.5714ZM 22.1538 11.5714L 22.1538 10.2857L 20.1538 10.2857L 20.1538 11.5714L 22.1538 11.5714ZM 21.1538 9.28571L 19.2308 9.28571L 19.2308 11.2857L 21.1538 11.2857L 21.1538 9.28571ZM 11.8205 12.8571L 11.8205 14.1429L 13.8205 14.1429L 13.8205 12.8571L 11.8205 12.8571ZM 12.8205 15.1429L 17.9487 15.1429L 17.9487 13.1429L 12.8205 13.1429L 12.8205 15.1429ZM 18.9487 14.1429L 18.9487 12.8571L 16.9487 12.8571L 16.9487 14.1429L 18.9487 14.1429ZM 17.9487 11.8571L 12.8205 11.8571L 12.8205 13.8571L 17.9487 13.8571L 17.9487 11.8571ZM 18.2308 12.8571L 18.2308 14.1429L 20.2308 14.1429L 20.2308 12.8571L 18.2308 12.8571ZM 19.2308 15.1429L 21.1538 15.1429L 21.1538 13.1429L 19.2308 13.1429L 19.2308 15.1429ZM 22.1538 14.1429L 22.1538 12.8571L 20.1538 12.8571L 20.1538 14.1429L 22.1538 14.1429ZM 21.1538 11.8571L 19.2308 11.8571L 19.2308 13.8571L 21.1538 13.8571L 21.1538 11.8571ZM 1.28205 15.1429L 10.2564 15.1429L 10.2564 13.1429L 1.28205 13.1429L 1.28205 15.1429ZM 9.25641 14.1429L 9.25641 25.7143L 11.2564 25.7143L 11.2564 14.1429L 9.25641 14.1429ZM 10.2564 24.7143L 1.28205 24.7143L 1.28205 26.7143L 10.2564 26.7143L 10.2564 24.7143ZM 2.28205 25.7143L 2.28205 14.1429L 0.282051 14.1429L 0.282051 25.7143L 2.28205 25.7143ZM 1.5641 15.4286L 1.5641 16.7143L 3.5641 16.7143L 3.5641 15.4286L 1.5641 15.4286ZM 2.5641 17.7143L 8.97436 17.7143L 8.97436 15.7143L 2.5641 15.7143L 2.5641 17.7143ZM 9.97436 16.7143L 9.97436 15.4286L 7.97436 15.4286L 7.97436 16.7143L 9.97436 16.7143ZM 8.97436 14.4286L 2.5641 14.4286L 2.5641 16.4286L 8.97436 16.4286L 8.97436 14.4286ZM 11.8205 15.4286L 11.8205 16.7143L 13.8205 16.7143L 13.8205 15.4286L 11.8205 15.4286ZM 12.8205 17.7143L 16.6667 17.7143L 16.6667 15.7143L 12.8205 15.7143L 12.8205 17.7143ZM 17.6667 16.7143L 17.6667 15.4286L 15.6667 15.4286L 15.6667 16.7143L 17.6667 16.7143ZM 16.6667 14.4286L 12.8205 14.4286L 12.8205 16.4286L 16.6667 16.4286L 16.6667 14.4286ZM 18.2308 15.4286L 18.2308 16.7143L 20.2308 16.7143L 20.2308 15.4286L 18.2308 15.4286ZM 19.2308 17.7143L 21.1538 17.7143L 21.1538 15.7143L 19.2308 15.7143L 19.2308 17.7143ZM 22.1538 16.7143L 22.1538 15.4286L 20.1538 15.4286L 20.1538 16.7143L 22.1538 16.7143ZM 21.1538 14.4286L 19.2308 14.4286L 19.2308 16.4286L 21.1538 16.4286L 21.1538 14.4286ZM 1.5641 18L 1.5641 19.2857L 3.5641 19.2857L 3.5641 18L 1.5641 18ZM 2.5641 20.2857L 3.84615 20.2857L 3.84615 18.2857L 2.5641 18.2857L 2.5641 20.2857ZM 4.84615 19.2857L 4.84615 18L 2.84615 18L 2.84615 19.2857L 4.84615 19.2857ZM 3.84615 17L 2.5641 17L 2.5641 19L 3.84615 19L 3.84615 17ZM 4.12821 18L 4.12821 19.2857L 6.12821 19.2857L 6.12821 18L 4.12821 18ZM 5.12821 20.2857L 6.41026 20.2857L 6.41026 18.2857L 5.12821 18.2857L 5.12821 20.2857ZM 7.41026 19.2857L 7.41026 18L 5.41026 18L 5.41026 19.2857L 7.41026 19.2857ZM 6.41026 17L 5.12821 17L 5.12821 19L 6.41026 19L 6.41026 17ZM 6.69231 18L 6.69231 19.2857L 8.69231 19.2857L 8.69231 18L 6.69231 18ZM 7.69231 20.2857L 8.97436 20.2857L 8.97436 18.2857L 7.69231 18.2857L 7.69231 20.2857ZM 9.97436 19.2857L 9.97436 18L 7.97436 18L 7.97436 19.2857L 9.97436 19.2857ZM 8.97436 17L 7.69231 17L 7.69231 19L 8.97436 19L 8.97436 17ZM 11.8205 18L 11.8205 19.2857L 13.8205 19.2857L 13.8205 18L 11.8205 18ZM 12.8205 20.2857L 17.9487 20.2857L 17.9487 18.2857L 12.8205 18.2857L 12.8205 20.2857ZM 18.9487 19.2857L 18.9487 18L 16.9487 18L 16.9487 19.2857L 18.9487 19.2857ZM 17.9487 17L 12.8205 17L 12.8205 19L 17.9487 19L 17.9487 17ZM 18.2308 18L 18.2308 19.2857L 20.2308 19.2857L 20.2308 18L 18.2308 18ZM 19.2308 20.2857L 21.1538 20.2857L 21.1538 18.2857L 19.2308 18.2857L 19.2308 20.2857ZM 22.1538 19.2857L 22.1538 18L 20.1538 18L 20.1538 19.2857L 22.1538 19.2857ZM 21.1538 17L 19.2308 17L 19.2308 19L 21.1538 19L 21.1538 17ZM 1.5641 20.5714L 1.5641 21.8571L 3.5641 21.8571L 3.5641 20.5714L 1.5641 20.5714ZM 2.5641 22.8571L 3.84615 22.8571L 3.84615 20.8571L 2.5641 20.8571L 2.5641 22.8571ZM 4.84615 21.8571L 4.84615 20.5714L 2.84615 20.5714L 2.84615 21.8571L 4.84615 21.8571ZM 3.84615 19.5714L 2.5641 19.5714L 2.5641 21.5714L 3.84615 21.5714L 3.84615 19.5714ZM 4.12821 20.5714L 4.12821 21.8571L 6.12821 21.8571L 6.12821 20.5714L 4.12821 20.5714ZM 5.12821 22.8571L 6.41026 22.8571L 6.41026 20.8571L 5.12821 20.8571L 5.12821 22.8571ZM 7.41026 21.8571L 7.41026 20.5714L 5.41026 20.5714L 5.41026 21.8571L 7.41026 21.8571ZM 6.41026 19.5714L 5.12821 19.5714L 5.12821 21.5714L 6.41026 21.5714L 6.41026 19.5714ZM 6.69231 20.5714L 6.69231 21.8571L 8.69231 21.8571L 8.69231 20.5714L 6.69231 20.5714ZM 7.69231 22.8571L 8.97436 22.8571L 8.97436 20.8571L 7.69231 20.8571L 7.69231 22.8571ZM 9.97436 21.8571L 9.97436 20.5714L 7.97436 20.5714L 7.97436 21.8571L 9.97436 21.8571ZM 8.97436 19.5714L 7.69231 19.5714L 7.69231 21.5714L 8.97436 21.5714L 8.97436 19.5714ZM 1.5641 23.1429L 1.5641 24.4286L 3.5641 24.4286L 3.5641 23.1429L 1.5641 23.1429ZM 2.5641 25.4286L 3.84615 25.4286L 3.84615 23.4286L 2.5641 23.4286L 2.5641 25.4286ZM 4.84615 24.4286L 4.84615 23.1429L 2.84615 23.1429L 2.84615 24.4286L 4.84615 24.4286ZM 3.84615 22.1429L 2.5641 22.1429L 2.5641 24.1429L 3.84615 24.1429L 3.84615 22.1429ZM 4.12821 23.1429L 4.12821 24.4286L 6.12821 24.4286L 6.12821 23.1429L 4.12821 23.1429ZM 5.12821 25.4286L 6.41026 25.4286L 6.41026 23.4286L 5.12821 23.4286L 5.12821 25.4286ZM 7.41026 24.4286L 7.41026 23.1429L 5.41026 23.1429L 5.41026 24.4286L 7.41026 24.4286ZM 6.41026 22.1429L 5.12821 22.1429L 5.12821 24.1429L 6.41026 24.1429L 6.41026 22.1429ZM 6.69231 23.1429L 6.69231 24.4286L 8.69231 24.4286L 8.69231 23.1429L 6.69231 23.1429ZM 7.69231 25.4286L 8.97436 25.4286L 8.97436 23.4286L 7.69231 23.4286L 7.69231 25.4286ZM 9.97436 24.4286L 9.97436 23.1429L 7.97436 23.1429L 7.97436 24.4286L 9.97436 24.4286ZM 8.97436 22.1429L 7.69231 22.1429L 7.69231 24.1429L 8.97436 24.1429L 8.97436 22.1429Z"/>
</defs>
</svg>
