<svg width="25" height="27" viewBox="0 0 25 27" version="1.1" xmlns="http://www.w3.org/2000/svg" xmlns:xlink="http://www.w3.org/1999/xlink">
<title>Vector</title>
<desc>Created using Figma</desc>
<g id="Canvas" transform="translate(279 -2589)">
<g id="Vector">
<use xlink:href="#path0_fill" transform="translate(-279 2589)" fill="url(#paint0_linear)"/>
</g>
</g>
<defs>
<linearGradient id="paint0_linear" x1="0" y1="0" x2="1" y2="0" gradientUnits="userSpaceOnUse" gradientTransform="matrix(1.53081e-15 27 -25 1.65327e-15 25 -1.65327e-15)">
<stop offset="0" stop-color="#361FB2"/>
<stop offset="1" stop-color="#2768C9"/>
</linearGradient>
<path id="path0_fill" d="M 5.12821 8.56458e-16C 4.9582 1.70466e-05 4.79516 0.0677519 4.67495 0.188307C 4.55474 0.308863 4.4872 0.472366 4.48718 0.642857L 4.48718 12.8571L 0.641026 12.8571C 0.47102 12.8572 0.307983 12.9249 0.187771 13.0455C 0.0675589 13.166 1.6998e-05 13.3295 0 13.5L 0 26.3571C 1.6998e-05 26.5276 0.0675589 26.6911 0.187771 26.8117C 0.307983 26.9322 0.47102 27 0.641026 27L 10.8974 27C 11.0674 27 11.2305 26.9322 11.3507 26.8117C 11.4709 26.6911 11.5384 26.5276 11.5385 26.3571L 11.5385 25.0714L 24.359 25.0714C 24.529 25.0714 24.692 25.0037 24.8122 24.8831C 24.9324 24.7626 25 24.5991 25 24.4286L 25 0.642857C 25 0.472366 24.9324 0.308863 24.8122 0.188307C 24.692 0.0677519 24.529 1.70466e-05 24.359 8.56458e-16L 5.12821 8.56458e-16ZM 5.76923 1.28571L 23.7179 1.28571L 23.7179 23.7857L 11.5385 23.7857L 11.5385 13.5C 11.5384 13.3295 11.4709 13.166 11.3507 13.0455C 11.2305 12.9249 11.0674 12.8572 10.8974 12.8571L 5.76923 12.8571L 5.76923 1.28571ZM 8.33333 5.14286L 8.33333 6.42857L 17.9487 6.42857L 17.9487 5.14286L 8.33333 5.14286ZM 19.2308 5.14286L 19.2308 6.42857L 21.1538 6.42857L 21.1538 5.14286L 19.2308 5.14286ZM 8.33333 7.71429L 8.33333 9L 16.6667 9L 16.6667 7.71429L 8.33333 7.71429ZM 19.2308 7.71429L 19.2308 9L 21.1538 9L 21.1538 7.71429L 19.2308 7.71429ZM 8.33333 10.2857L 8.33333 11.5714L 17.9487 11.5714L 17.9487 10.2857L 8.33333 10.2857ZM 19.2308 10.2857L 19.2308 11.5714L 21.1538 11.5714L 21.1538 10.2857L 19.2308 10.2857ZM 12.8205 12.8571L 12.8205 14.1429L 17.9487 14.1429L 17.9487 12.8571L 12.8205 12.8571ZM 19.2308 12.8571L 19.2308 14.1429L 21.1538 14.1429L 21.1538 12.8571L 19.2308 12.8571ZM 1.28205 14.1429L 10.2564 14.1429L 10.2564 25.7143L 1.28205 25.7143L 1.28205 14.1429ZM 2.5641 15.4286L 2.5641 16.7143L 8.97436 16.7143L 8.97436 15.4286L 2.5641 15.4286ZM 12.8205 15.4286L 12.8205 16.7143L 16.6667 16.7143L 16.6667 15.4286L 12.8205 15.4286ZM 19.2308 15.4286L 19.2308 16.7143L 21.1538 16.7143L 21.1538 15.4286L 19.2308 15.4286ZM 2.5641 18L 2.5641 19.2857L 3.84615 19.2857L 3.84615 18L 2.5641 18ZM 5.12821 18L 5.12821 19.2857L 6.41026 19.2857L 6.41026 18L 5.12821 18ZM 7.69231 18L 7.69231 19.2857L 8.97436 19.2857L 8.97436 18L 7.69231 18ZM 12.8205 18L 12.8205 19.2857L 17.9487 19.2857L 17.9487 18L 12.8205 18ZM 19.2308 18L 19.2308 19.2857L 21.1538 19.2857L 21.1538 18L 19.2308 18ZM 2.5641 20.5714L 2.5641 21.8571L 3.84615 21.8571L 3.84615 20.5714L 2.5641 20.5714ZM 5.12821 20.5714L 5.12821 21.8571L 6.41026 21.8571L 6.41026 20.5714L 5.12821 20.5714ZM 7.69231 20.5714L 7.69231 21.8571L 8.97436 21.8571L 8.97436 20.5714L 7.69231 20.5714ZM 2.5641 23.1429L 2.5641 24.4286L 3.84615 24.4286L 3.84615 23.1429L 2.5641 23.1429ZM 5.12821 23.1429L 5.12821 24.4286L 6.41026 24.4286L 6.41026 23.1429L 5.12821 23.1429ZM 7.69231 23.1429L 7.69231 24.4286L 8.97436 24.4286L 8.97436 23.1429L 7.69231 23.1429Z"/>
</defs>
</svg>
