<svg width="35" height="33" viewBox="0 0 35 33" version="1.1" xmlns="http://www.w3.org/2000/svg" xmlns:xlink="http://www.w3.org/1999/xlink">
<title>search-vector</title>
<desc>Created using Figma</desc>
<g id="Canvas" transform="translate(-1399 210)">
<g id="search-vector">
<g id="Ellipse">
<use xlink:href="#path0_fill" transform="translate(1399 -210)" fill="#FFFFFF"/>
<mask id="mask0_outline_ins">
<use xlink:href="#path0_fill" fill="white" transform="translate(1399 -210)"/>
</mask>
<g mask="url(#mask0_outline_ins)">
<use xlink:href="#path1_stroke_2x" transform="translate(1399 -210)" fill="#BFC5D1"/>
</g>
</g>
<g id="Line">
<use xlink:href="#path2_stroke" transform="matrix(0.707107 0.707107 -0.707107 0.707107 1422.25 -186.754)" fill="#BFC5D1"/>
</g>
</g>
</g>
<defs>
<path id="path0_fill" d="M 28.2995 14.1497C 28.2995 21.9644 21.9644 28.2995 14.1497 28.2995C 6.33505 28.2995 0 21.9644 0 14.1497C 0 6.33505 6.33505 0 14.1497 0C 21.9644 0 28.2995 6.33505 28.2995 14.1497Z"/>
<path id="path1_stroke_2x" d="M 26.2995 14.1497C 26.2995 20.8598 20.8598 26.2995 14.1497 26.2995L 14.1497 30.2995C 23.069 30.2995 30.2995 23.069 30.2995 14.1497L 26.2995 14.1497ZM 14.1497 26.2995C 7.43962 26.2995 2 20.8598 2 14.1497L -2 14.1497C -2 23.069 5.23048 30.2995 14.1497 30.2995L 14.1497 26.2995ZM 2 14.1497C 2 7.43962 7.43962 2 14.1497 2L 14.1497 -2C 5.23048 -2 -2 5.23048 -2 14.1497L 2 14.1497ZM 14.1497 2C 20.8598 2 26.2995 7.43962 26.2995 14.1497L 30.2995 14.1497C 30.2995 5.23048 23.069 -2 14.1497 -2L 14.1497 2Z"/>
<path id="path2_stroke" d="M 0 0L 13.7943 0L 13.7943 -1.85864L 0 -1.85864L 0 0Z"/>
</defs>
</svg>
