<svg width="52" height="52" viewBox="0 0 52 52" version="1.1" xmlns="http://www.w3.org/2000/svg" xmlns:xlink="http://www.w3.org/1999/xlink">
<title>overdue-icon</title>
<desc>Created using Figma</desc>
<g id="Canvas" transform="translate(-3338 -408)">
<g id="overdue-icon">
<g id="state-icon">
<use xlink:href="#path0_stroke" transform="translate(3339 409)" fill="url(#paint0_linear)"/>
</g>
<g id="Vector">
<use xlink:href="#path1_fill" transform="translate(3362 420)" fill="url(#paint1_linear)"/>
</g>
</g>
</g>
<defs>
<linearGradient id="paint0_linear" x1="0" y1="0" x2="1" y2="0" gradientUnits="userSpaceOnUse" gradientTransform="matrix(3.06162e-15 50 -50 3.06162e-15 50 -3.06162e-15)">
<stop offset="0" stop-color="#361FB2"/>
<stop offset="1" stop-color="#2768C9"/>
</linearGradient>
<linearGradient id="paint1_linear" x1="0" y1="0" x2="1" y2="0" gradientUnits="userSpaceOnUse" gradientTransform="matrix(2.04108e-16 27.7778 -3.33333 1.7009e-15 3.33333 0)">
<stop offset="0" stop-color="#361FB2"/>
<stop offset="1" stop-color="#2768C9"/>
</linearGradient>
<path id="path0_stroke" d="M 49 25C 49 38.2548 38.2548 49 25 49L 25 51C 39.3594 51 51 39.3594 51 25L 49 25ZM 25 49C 11.7452 49 1 38.2548 1 25L -1 25C -1 39.3594 10.6406 51 25 51L 25 49ZM 1 25C 1 11.7452 11.7452 1 25 1L 25 -1C 10.6406 -1 -1 10.6406 -1 25L 1 25ZM 25 1C 38.2548 1 49 11.7452 49 25L 51 25C 51 10.6406 39.3594 -1 25 -1L 25 1Z"/>
<path id="path1_fill" d="M 0.555556 0C 0.248889 0 0 0.248889 0 0.555556L 0 21.6667C 0 21.9739 0.248889 22.2222 0.555556 22.2222L 2.77778 22.2222C 3.085 22.2222 3.33333 21.9739 3.33333 21.6667L 3.33333 0.555556C 3.33333 0.248889 3.085 0 2.77778 0L 0.555556 0ZM 0.555556 24.4444C 0.248889 24.4444 0 24.6928 0 25L 0 27.2222C 0 27.5294 0.248889 27.7778 0.555556 27.7778L 2.77778 27.7778C 3.085 27.7778 3.33333 27.5294 3.33333 27.2222L 3.33333 25C 3.33333 24.6928 3.085 24.4444 2.77778 24.4444L 0.555556 24.4444Z"/>
</defs>
</svg>
