<svg width="52" height="52" viewBox="0 0 52 52" version="1.1" xmlns="http://www.w3.org/2000/svg" xmlns:xlink="http://www.w3.org/1999/xlink">
<title>accepted-icon-c-50</title>
<desc>Created using Figma</desc>
<g id="Canvas" transform="translate(-3338 -2985)">
<g id="accepted-icon-c-50">
<g id="state-icon">
<use xlink:href="#path0_stroke" transform="translate(3339 2986)" fill="url(#paint0_linear)"/>
</g>
<g id="Vector">
<use xlink:href="#path1_fill" transform="translate(3351 3001)" fill="url(#paint1_linear)"/>
</g>
</g>
</g>
<defs>
<linearGradient id="paint0_linear" x1="0" y1="0" x2="1" y2="0" gradientUnits="userSpaceOnUse" gradientTransform="matrix(3.06162e-15 50 -50 3.06162e-15 50 -3.06162e-15)">
<stop offset="0" stop-color="#361FB2"/>
<stop offset="1" stop-color="#2768C9"/>
</linearGradient>
<linearGradient id="paint1_linear" x1="0" y1="0" x2="1" y2="0" gradientUnits="userSpaceOnUse" gradientTransform="matrix(1.53081e-15 19.4694 -25 1.19216e-15 25 -1.19216e-15)">
<stop offset="0" stop-color="#361FB2"/>
<stop offset="1" stop-color="#2768C9"/>
</linearGradient>
<path id="path0_stroke" d="M 49 25C 49 38.2548 38.2548 49 25 49L 25 51C 39.3594 51 51 39.3594 51 25L 49 25ZM 25 49C 11.7452 49 1 38.2548 1 25L -1 25C -1 39.3594 10.6406 51 25 51L 25 49ZM 1 25C 1 11.7452 11.7452 1 25 1L 25 -1C 10.6406 -1 -1 10.6406 -1 25L 1 25ZM 25 1C 38.2548 1 49 11.7452 49 25L 51 25C 51 10.6406 39.3594 -1 25 -1L 25 1Z"/>
<path id="path1_fill" fill-rule="evenodd" d="M 25 1.78472L 9.5 19.4694L 0 11.1111L 1.83194 9.04167L 9.5 16L 22.9514 2.46716e-15L 25 1.78472Z"/>
</defs>
</svg>
